<svg xmlns="http://www.w3.org/2000/svg" viewBox="0 0 31.9 33.7"><defs><linearGradient id="b" x1="5887.8" y1="-5275.3" x2="6064.6" y2="-5191.3" gradientTransform="matrix(.1435 0 0 -.1435 -842 -735)" gradientUnits="userSpaceOnUse"><stop offset="0" stop-color="#e40035"/><stop offset=".2" stop-color="#f60a48"/><stop offset=".4" stop-color="#f20755"/><stop offset=".5" stop-color="#dc087d"/><stop offset=".7" stop-color="#9717e7"/><stop offset="1" stop-color="#6c00f5"/></linearGradient><linearGradient id="c" x1="5913.6" y1="-5145.3" x2="6029.3" y2="-5277.3" gradientTransform="matrix(.1435 0 0 -.1435 -842 -735)" gradientUnits="userSpaceOnUse"><stop offset="0" stop-color="#ff31d9"/><stop offset="1" stop-color="#ff5be1" stop-opacity="0"/></linearGradient><clipPath id="a"><path fill="none" d="M0 0h32v33.9H0z"/></clipPath></defs><g clip-path="url(#a)"><path d="m31.9 5.6-1.2 18L19.7 0ZM24.2 29 16 33.7 7.6 29l1.7-4.1h13.3ZM16 9l4.4 10.6h-8.7ZM1.1 23.7 0 5.7 12.2 0Z" fill="url(#b)"/><path d="m31.9 5.6-1.2 18L19.7 0ZM24.2 29 16 33.7 7.6 29l1.7-4.1h13.3ZM16 9l4.4 10.6h-8.7ZM1.1 23.7 0 5.7 12.2 0Z" fill="url(#c)"/></g></svg>