<svg xmlns="http://www.w3.org/2000/svg" xmlns:xlink="http://www.w3.org/1999/xlink" viewBox="0 0 31.8676 33.7324"><defs><clipPath id="angular-clip-path"><rect width="32" height="33.8655" style="fill:none"/></clipPath><linearGradient id="angular-linear-gradient" x1="5887.787" y1="-5275.3072" x2="6064.607" y2="-5191.2792" gradientTransform="matrix(0.1435, 0, 0, -0.1435, -841.9417, -734.9289)" gradientUnits="userSpaceOnUse"><stop offset="0" stop-color="#e40035"/><stop offset="0.24" stop-color="#f60a48"/><stop offset="0.352" stop-color="#f20755"/><stop offset="0.494" stop-color="#dc087d"/><stop offset="0.745" stop-color="#9717e7"/><stop offset="1" stop-color="#6c00f5"/></linearGradient><linearGradient id="angular-linear-gradient-2" x1="5913.5521" y1="-5145.2807" x2="6029.2681" y2="-5277.2807" gradientTransform="matrix(0.1435, 0, 0, -0.1435, -841.9417, -734.9289)" gradientUnits="userSpaceOnUse"><stop offset="0" stop-color="#ff31d9"/><stop offset="1" stop-color="#ff5be1" stop-opacity="0"/></linearGradient></defs><g><g><g style="clip-path:url(#angular-clip-path)"><path d="M31.8676,5.624l-1.1508,18.07L19.7147,0Zm-7.62,23.365-8.3133,4.7434L7.62,28.989l1.6909-4.0977h13.245ZM15.9338,8.9937,20.29,19.5843H11.5775Zm-14.7949,14.7L0,5.624,12.1528,0Z" style="fill:url(#angular-linear-gradient)"/><path d="M31.8676,5.624l-1.1508,18.07L19.7147,0Zm-7.62,23.365-8.3133,4.7434L7.62,28.989l1.6909-4.0977h13.245ZM15.9338,8.9937,20.29,19.5843H11.5775Zm-14.7949,14.7L0,5.624,12.1528,0Z" style="fill:url(#angular-linear-gradient-2)"/></g></g></g></svg>
