<svg xmlns="http://www.w3.org/2000/svg" viewBox="0 0 200 200"><defs><linearGradient x1="62.1%" y1="0%" x2="108.2%" y2="37.9%" id="a"><stop stop-color="#4285EB" offset="0%"/><stop stop-color="#2EC7FF" offset="100%"/></linearGradient><linearGradient x1="69.6%" y1="0%" x2="54%" y2="108.5%" id="b"><stop stop-color="#29CDFF" offset="0%"/><stop stop-color="#148EFF" offset="37.9%"/><stop stop-color="#0A60FF" offset="100%"/></linearGradient><linearGradient x1="69.7%" y1="-13%" x2="16.7%" y2="117.4%" id="c"><stop stop-color="#FA816E" offset="0%"/><stop stop-color="#F74A5C" offset="41.5%"/><stop stop-color="#F51D2C" offset="100%"/></linearGradient><linearGradient x1="68.1%" y1="-35.7%" x2="30.4%" y2="114.9%" id="d"><stop stop-color="#FA8E7D" offset="0%"/><stop stop-color="#F74A5C" offset="51.3%"/><stop stop-color="#F51D2C" offset="100%"/></linearGradient></defs><g fill="none" fill-rule="evenodd"><g fill-rule="nonzero"><path d="M91.6 4.2 4.2 91.5a12 12 0 0 0 0 17l87.4 87.3a12 12 0 0 0 17 0l36.6-36.6A10.8 10.8 0 1 0 130 144l-27.8 27.7a3 3 0 0 1-4.1 0L28.3 102a3 3 0 0 1 0-4.1L98 28a3 3 0 0 1 4.1 0L130 56a10.8 10.8 0 0 0 15.2-15.2L108.6 4a12 12 0 0 0-17 0" fill="url(#a)"/><path d="M91.6 4.2 4.2 91.5a12 12 0 0 0 0 17l87.4 87.3a12 12 0 0 0 17 0l36.6-36.6A10.8 10.8 0 1 0 130 144l-27.8 27.7a3 3 0 0 1-4.1 0L28.3 102a3 3 0 0 1 0-4.1L98 28c2.9-2.5 7.7-7.6 14.6-8.7q7.8-1.4 17 5.8L108.6 4a12 12 0 0 0-17 0" fill="url(#b)"/><path d="M153.7 135.9c4.2 4.2 11 4.2 15.2 0l27-27a12 12 0 0 0 0-17l-27.2-27.2A10.8 10.8 0 0 0 153.4 80L172 98.4a3 3 0 0 1 0 4l-18.2 18.2c-4.2 4.2-4.2 11 0 15.3" fill="url(#c)"/></g><circle fill="url(#d)" cx="100.5" cy="100.4" r="23.6"/></g></svg>