<svg xmlns="http://www.w3.org/2000/svg" viewBox="0 0 172.9 154.6"><path d="m42.9 24.8-2.7-7.2H29.8L27 24.8h-2.5L34 .4h2.3l9.2 24.4ZM35.5 4.7l-.3-.8-.2-1-.3 1-.2.8-4 10.8h9ZM49 21.2l1.4.8a11 11 0 0 0 3 1l1.6.1a7 7 0 0 0 4.1-1 4 4 0 0 0 1.4-3.1l-.3-1.7-1-1.4-1.8-1.2-2.4-1.4-2.7-1.6-1.8-1.6-1-1.7-.4-2a6 6 0 0 1 .7-2.7 6 6 0 0 1 1.7-2A8 8 0 0 1 54 .4a10 10 0 0 1 3-.4 13 13 0 0 1 4.8.8v2.5a10 10 0 0 0-5-1.2l-2 .2-1.8.8-1 1.3-.5 1.7.3 1.7.9 1.2 1.6 1.3 2.5 1.3 2.6 1.6 2 1.6 1 1.8.4 2.1a6 6 0 0 1-.6 2.8 6 6 0 0 1-1.6 2 8 8 0 0 1-2.6 1.3 12 12 0 0 1-4.6.3l-1.6-.3-1.6-.4-1.2-.6Zm21.9-5.9v9.5h-2.3V.4H75a11 11 0 0 1 3.4.5 7 7 0 0 1 2.5 1.4 6 6 0 0 1 1.6 2.2 8 8 0 0 1 .5 3 8 8 0 0 1-.6 3 7 7 0 0 1-1.7 2.6 8 8 0 0 1-2.7 1.6 10 10 0 0 1-3.6.6Zm0-12.8v10.7h3.2a7 7 0 0 0 4.8-1.4 5 5 0 0 0 1.6-4.2q0-5.1-6-5.1Zm15 22.5a1.6 1.6 0 0 1-1.6-1.5 2 2 0 0 1 .4-1.2 2 2 0 0 1 1.2-.5l.6.1.5.4a2 2 0 0 1 .5 1.2v.6l-.5.5-.5.4zm24.2-.2L96.6 5.2l-.5-.8-.4-.7h-.1v21.1h-2.2V.4H96l13.3 19.3.6.9.4.7h.1v-1.2l-.1-1.6V.5h2.2v24.3Zm9.2 0V.4h11.9v2h-9.6v9h8.9v2h-9v9.3h10.2v2ZM144 2.5v22.3h-2.2V2.5h-7v-2H151v2Zm-21.7 76.8a10 10 0 0 0-6-1.7 10 10 0 0 0-4.7 1 12 12 0 0 0-3.5 2.7 16 16 0 0 0-2.6 4 26 26 0 0 0-1.7 4.6l-1 4.9-.2 4.7v25.9H96v-53h6.6v11.4h.2a24 24 0 0 1 2.3-5.2 16 16 0 0 1 3.3-3.9 14 14 0 0 1 4-2.4 13 13 0 0 1 4.7-.8l2.9.2 2.3.6Zm12.4 20.8a29 29 0 0 0 1.3 8.8 18 18 0 0 0 3.5 6.5 15 15 0 0 0 5.7 4.1 19 19 0 0 0 7.5 1.4q9 0 16.9-6.2v6.5q-7.6 5.4-18.4 5.4a24 24 0 0 1-9.6-1.8 20 20 0 0 1-7.4-5.4 25 25 0 0 1-4.7-8.7 38 38 0 0 1-1.7-11.8 33 33 0 0 1 1.8-11 27 27 0 0 1 5-8.8 23 23 0 0 1 7.6-5.8 22 22 0 0 1 9.6-2 22 22 0 0 1 9 1.7 18 18 0 0 1 6.7 5.1 23 23 0 0 1 4 8 38 38 0 0 1 1.4 10.7v3.3Zm31.4-5.8q-.2-8.2-4-12.8-3.7-4.5-10.4-4.5a16 16 0 0 0-6.3 1.2 15 15 0 0 0-5 3.4 19 19 0 0 0-3.6 5.5 27 27 0 0 0-2 7.2ZM21 133.8A50 50 0 0 1 6.5 97.5a48 48 0 0 1 14.5-36 50 50 0 0 1 70.7 0l4.2-4.3a56.4 56.4 0 0 0-79.5-.2A58 58 0 0 0 0 97.5a56.2 56.2 0 0 0 96 40.6l-4.3-4.3a50 50 0 0 1-70.7 0" fill="#0c2c65"/><path d="M55.5 117.7a19 19 0 0 1-7.5-1.4 16 16 0 0 1-5.7-4 17 17 0 0 1-3.6-6 24 24 0 0 1-1.3-8 25 25 0 0 1 1.4-8.4 18 18 0 0 1 3.7-6.3 16 16 0 0 1 6-4 21 21 0 0 1 7.7-1.3 19 19 0 0 1 7.3 1.3 15 15 0 0 1 5.6 3.9 17 17 0 0 1 3.5 6.2 26 26 0 0 1 1.2 8.3 24 24 0 0 1-1.3 8 18 18 0 0 1-3.6 6.2 16 16 0 0 1-5.7 4 19 19 0 0 1-7.7 1.5" fill="#40ccf4"/></svg>