<svg xmlns="http://www.w3.org/2000/svg" viewBox="-0.5 0.4 800.9 754.2"><linearGradient id="a" gradientUnits="userSpaceOnUse" x1="353.1" x2="107.1" y1="56.3" y2="783"><stop offset="0" stop-color="#114a8b"/><stop offset="1" stop-color="#0669bc"/></linearGradient><linearGradient id="b" gradientUnits="userSpaceOnUse" x1="429.8" x2="372.9" y1="394.9" y2="414.2"><stop offset="0" stop-opacity=".3"/><stop offset=".1" stop-opacity=".2"/><stop offset=".3" stop-opacity=".1"/><stop offset=".6" stop-opacity=".1"/><stop offset="1" stop-opacity="0"/></linearGradient><linearGradient id="c" gradientUnits="userSpaceOnUse" x1="398.4" x2="668.4" y1="35.1" y2="754.4"><stop offset="0" stop-color="#3ccbf4"/><stop offset="1" stop-color="#2892df"/></linearGradient><path d="M266.7.4h236.7L257.7 728.9a38 38 0 0 1-5.4 10.4 38 38 0 0 1-30.4 15.3H37.7q-9.1 0-17.2-4.2A38 38 0 0 1 7.1 739a38 38 0 0 1-6.7-16.4q-1.3-9 1.6-17.7L231 26.1A37.5 37.5 0 0 1 266.6.4z" fill="url(#a)"/><path d="M703 754.6H490.6a38 38 0 0 1-20.2-5.9 38 38 0 0 1-5.7-4.3L223.4 519.1a17 17 0 0 1-5-8.8 17 17 0 0 1 7.1-18.3q4.4-3 9.8-3h375.4z" fill="#0078d4"/><path d="M504.3.4 338.6 489.1h270.7l92.9 265.5H490.4a39 39 0 0 1-12.8-2.3 39 39 0 0 1-11.4-6.6l-162.8-152-45.6 134.5a40 40 0 0 1-4.8 9.5 41 41 0 0 1-16 13.7 40 40 0 0 1-10.2 3.2h-189q-9.1 0-17.4-4.2A38 38 0 0 1 .4 722a38 38 0 0 1 1.9-17.8L230.9 26.6A37 37 0 0 1 255 2.2Q260.8.4 266.7.4z" fill="url(#b)"/><path d="M798 704.8a38 38 0 0 1 1.6 17.7 38 38 0 0 1-6.7 16.4 38 38 0 0 1-30.6 15.7H498.5a37.8 37.8 0 0 0 35.7-49.8l-229-678.7a38 38 0 0 0-13.7-18.6 38 38 0 0 0-22-7.1h263.9A38 38 0 0 1 569 26.1z" fill="url(#c)"/></svg>