<svg xmlns="http://www.w3.org/2000/svg" viewBox="0 0 255.7 287.2"><path d="M255.6 84.5a26 26 0 0 0-3.1-12.8 25 25 0 0 0-9.2-9L141.2 3.9a25 25 0 0 0-27.2.3c-13.5 8-81.3 46.8-101.6 58.5A24 24 0 0 0 0 84.4v118.4a25 25 0 0 0 3 12.5 25 25 0 0 0 9.4 9.3c20.2 11.7 88 50.5 101.6 58.5a25 25 0 0 0 27.2.3l102.1-58.8a24 24 0 0 0 9.4-9.3 25 25 0 0 0 3-12.5z" fill="#967ab7"/><path d="M128.2 143.2 3 215.2a25 25 0 0 0 9.4 9.4c20.2 11.7 88 50.5 101.6 58.5a25 25 0 0 0 27.2.3l102.1-58.8a24 24 0 0 0 9.4-9.3z" fill="#2d2164"/><path d="M255.6 84.5a26 26 0 0 0-3.1-12.8l-124.3 71.6 124.4 72a25 25 0 0 0 3-12.4z" fill="#3f2d87"/><path d="M201.9 116.3v13.5h13.5v-13.5h6.7v13.5h13.5v6.7h-13.5V150h13.5v6.7h-13.5v13.5h-6.7v-13.5h-13.5v13.5h-6.7v-13.5h-13.5V150h13.5v-13.5h-13.5v-6.7h13.5v-13.5Zm13.5 20.2h-13.5V150h13.5Z" fill="#fff"/><path d="M128.5 48.6A95 95 0 0 1 210.8 96l-.2-.3-41.3 23.8a47 47 0 0 0-40.2-23.3h-.5a47.3 47.3 0 0 0-47.3 47.3 47 47 0 0 0 47.3 47.3 47 47 0 0 0 41.2-24.1l-.2.3 41.3 23.9a95 95 0 0 1-81.3 47.5h-1.1a95 95 0 1 1 0-190" fill="#fff"/></svg>