<svg xmlns="http://www.w3.org/2000/svg" xmlns:xlink="http://www.w3.org/1999/xlink" viewBox="0 0 62.9157 60.4157"><defs><linearGradient id="b338e642-afc3-421a-b10d-dd52aeb3fedc" x1="59.76819" y1="-1982.03062" x2="20.43818" y2="-1959.42064" gradientTransform="matrix(1, 0, 0, -1, 0, -1917.81633)" gradientUnits="userSpaceOnUse"><stop offset="0" stop-color="#0050d3"/><stop offset="0.94" stop-color="#007ffc"/><stop offset="1" stop-color="#0082ff"/></linearGradient><linearGradient id="adbd2497-0343-4386-9b53-ae7eda10b450" x1="-4548.17292" y1="2238.52958" x2="-4587.503" y2="2261.12957" gradientTransform="matrix(-1, 0, 0, 1, -4545.00598, -2242.34)" xlink:href="#b338e642-afc3-421a-b10d-dd52aeb3fedc"/></defs><g id="e9de3fb0-c44f-424a-9efa-f879c21086db" data-name="Layer 2"><g id="f580f58f-4159-4bf4-8e64-f586a7f89302" data-name="Layer 1"><path d="M2.30785,46.10785c-.6,1.1-1.4,2.3-2,3.3a1.90034,1.90034,0,0,0,.7,2.7l13,8a2.01266,2.01266,0,0,0,2.8-.7h0c.5-.9,1.2-2,1.9-3.2,5.1-8.5,10.3-7.5,19.7-3l12.9,6.1a2.00409,2.00409,0,0,0,2.7-.9v-.1l6.2-14a1.98454,1.98454,0,0,0-1-2.6c-2.7-1.3-8.1-3.8-13-6.2C28.60785,27.00785,13.70785,27.50785,2.30785,46.10785Z" fill="url(#b338e642-afc3-421a-b10d-dd52aeb3fedc)"/><path d="M60.60785,14.30785c.7-1.1,1.4-2.3,2-3.3a1.8817,1.8817,0,0,0-.7-2.7l-13-8a1.90034,1.90034,0,0,0-2.7.7h0c-.5.9-1.2,2-1.9,3.2-5.2,8.5-10.3,7.5-19.7,3l-12.9-6.1a2.04471,2.04471,0,0,0-2.7,1h0l-6.2,14a1.98454,1.98454,0,0,0,1,2.6c2.7,1.3,8.1,3.8,13,6.2C34.30785,33.40785,49.20785,32.80785,60.60785,14.30785Z" fill="url(#adbd2497-0343-4386-9b53-ae7eda10b450)"/></g></g></svg>