<svg xmlns="http://www.w3.org/2000/svg" xmlns:xlink="http://www.w3.org/1999/xlink" viewBox="0 0 62.7955 60.3725"><defs><linearGradient id="linear-gradient" x1="59.668" y1="-44.0252" x2="20.338" y2="-21.4152" gradientTransform="matrix(1, 0, 0, -1, 0, 20.168)" gradientUnits="userSpaceOnUse"><stop offset="0" stop-color="#0050d3"/><stop offset="0.94" stop-color="#007ffc"/><stop offset="1" stop-color="#0082ff"/></linearGradient><linearGradient id="linear-gradient-2" x1="-676.2862" y1="300.5124" x2="-715.6161" y2="323.1124" gradientTransform="matrix(-1, 0, 0, 1, -673.2218, -304.34)" xlink:href="#linear-gradient"/></defs><g id="Layer_2" data-name="Layer 2"><g id="Layer_1-2" data-name="Layer 1"><path d="M2.2291,46.084c-.65,1.06-1.38,2.29-1.95,3.27a2,2,0,0,0,.67,2.72l13,8a2,2,0,0,0,2.7524-.651l.0176-.029c.51-.87,1.18-2,1.91-3.21,5.15-8.5,10.34-7.46,19.67-3l12.89,6.13a2,2,0,0,0,2.6654-.9463l.0246-.0537,6.19-14a2,2,0,0,0-1-2.62c-2.72-1.28-8.13-3.84-13-6.18C28.5091,26.974,13.6191,27.534,2.2291,46.084Z" style="fill:url(#linear-gradient)"/><path d="M60.5191,14.284c.65-1.06,1.38-2.3,2-3.27a2,2,0,0,0-.68-2.72l-13-8a2,2,0,0,0-2.75.6629l-.01.0171c-.52.87-1.19,2-1.92,3.21-5.15,8.5-10.33,7.46-19.67,3l-12.93-6.1a2,2,0,0,0-2.6611.9585l-.0189.0415-6.19,14a2,2,0,0,0,1,2.62c2.72,1.28,8.14,3.83,13,6.18C34.2391,33.354,49.1291,32.794,60.5191,14.284Z" style="fill:url(#linear-gradient-2)"/></g></g></svg>