<svg xmlns="http://www.w3.org/2000/svg" xmlns:xlink="http://www.w3.org/1999/xlink" viewBox="0 0 62.9 60.4"><defs><linearGradient id="a" x1="59.8" y1="-1982" x2="20.4" y2="-1959.4" gradientTransform="matrix(1 0 0 -1 0 -1917.8)" gradientUnits="userSpaceOnUse"><stop offset="0" stop-color="#0050d3"/><stop offset=".9" stop-color="#007ffc"/><stop offset="1" stop-color="#0082ff"/></linearGradient><linearGradient id="b" x1="-4548.2" y1="2238.5" x2="-4587.5" y2="2261.1" gradientTransform="matrix(-1 0 0 1 -4545 -2242.3)" xlink:href="#a"/></defs><g data-name="Layer 2"><g data-name="Layer 1"><path d="m2.3 46.1-2 3.3a2 2 0 0 0 .7 2.7l13 8a2 2 0 0 0 2.8-.7l2-3.2c5-8.5 10.2-7.5 19.6-3l13 6.1a2 2 0 0 0 2.6-.9l6.2-14a2 2 0 0 0-1-2.7l-13-6.2c-17.6-8.5-32.5-8-43.9 10.6" fill="url(#a)"/><path d="m60.6 14.3 2-3.3a2 2 0 0 0-.7-2.7l-13-8a2 2 0 0 0-2.7.7l-1.9 3.2c-5.2 8.5-10.3 7.5-19.7 3l-12.9-6a2 2 0 0 0-2.7 1l-6.2 14a2 2 0 0 0 1 2.5l13 6.2c17.5 8.5 32.4 8 43.8-10.6" fill="url(#b)"/></g></g></svg>