<svg xmlns="http://www.w3.org/2000/svg" viewBox="0 0 963 961.4" xml:space="preserve"><style>.prefix__st0{fill:#1b1e2e}</style><path class="prefix__st0" d="M340.4 382.8a91 91 0 0 1 85.6 56.1l1.2 2.8 64.4-21.9-1.3-3.3c-24.9-60.8-82.4-98.5-149.9-98.5-47.5 0-86.1 15.2-118 46.5a157 157 0 0 0-47.7 116.2c0 45.7 16.1 84.6 47.7 115.6 31.9 31.3 70.5 46.5 118 46.5 67.5 0 124.9-37.8 149.9-98.5l1.3-3.3-64.5-21.9-1.1 2.9a89 89 0 0 1-85.6 56 90 90 0 0 1-67.1-27.7 96 96 0 0 1-27.2-69.6 98 98 0 0 1 27.2-70.2 90 90 0 0 1 67.1-27.7"/><linearGradient id="prefix__cypress-linear-gradient-1" gradientUnits="userSpaceOnUse" x1="993" y1="483.7" x2="568.9" y2="758.3"><stop offset=".1" stop-color="#69d3a7"/><stop offset="1" stop-color="#69d3a7" stop-opacity="0"/></linearGradient><path d="m620 934.4-19.2-63.3a406 406 0 0 0 289.6-390.4c0-49.9-8.9-98.7-26.5-144.9l61.8-23.5a471 471 0 0 1 30.9 168.5A472 472 0 0 1 620 934.4" fill="url(#prefix__cypress-linear-gradient-1)"/><path d="M872.5 361.1a406.5 406.5 0 0 0-391-288.5 416 416 0 0 0-73.2 6.5L396.6 14c27.8-5 56.4-7.6 84.9-7.6a472 472 0 0 1 454.2 335.2z" fill="#69d3a7"/><linearGradient id="prefix__cypress-linear-gradient-2" gradientUnits="userSpaceOnUse" x1="323.4" y1="12.4" x2="56.9" y2="577.5"><stop offset="0" stop-color="#69d3a7"/><stop offset=".8" stop-color="#2ab586"/><stop offset="1" stop-color="#1cae7f"/></linearGradient><path d="M36.9 647.9A471 471 0 0 1 6.5 480.7c0-245 183.9-447.9 427.8-471.9l6.5 65.8A407 407 0 0 0 72.6 480.7c0 49.5 8.8 98 26.1 143.9z" fill="url(#prefix__cypress-linear-gradient-2)"/><path class="prefix__st0" d="M743.7 324 652 556.4 559.6 324H484l129.6 317.2-94.4 229 66.1 13.2L815.1 324z"/><linearGradient id="prefix__cypress-linear-gradient-3" gradientUnits="userSpaceOnUse" x1="5.8" y1="697.8" x2="704.5" y2="917.1"><stop offset=".1" stop-color="#1cae7f"/><stop offset=".2" stop-color="#1ca379"/><stop offset=".3" stop-color="#1c8568"/><stop offset=".5" stop-color="#1b554d"/><stop offset=".7" stop-color="#1b1e2e"/></linearGradient><path d="m531.1 841.4-13.9 33.7a21 21 0 0 1-18.7 13.3q-8.5.4-17.1.4a410 410 0 0 1-393-295.5l-63.6 18.2a477 477 0 0 0 456.5 343.4h.1q9.9 0 19.8-.4a88 88 0 0 0 77.2-54.2l18.8-45.7z" fill="url(#prefix__cypress-linear-gradient-3)"/></svg>