<svg xmlns="http://www.w3.org/2000/svg" viewBox="0 0 200 200"><g fill="none" fill-rule="evenodd"><path fill="#FFF" d="M99 52h84v34H99z"/><path d="M23 163a20 20 0 0 1-17.3-10A20 20 0 0 0 3 163c0 11 9 20 20 20h20v-20z" fill="#3ECC5F"/><path d="m113 57.4 70-4.4V43c0-11-9-20-20-20H73l-2.5-4.3c-1.1-2-3.9-2-5 0L63 23l-2.5-4.3c-1.1-2-3.9-2-5 0L53 23l-2.5-4.3c-1.1-2-3.9-2-5 0L43 23l-4.2-4.1a3 3 0 0 0-4.8 1.3l-1.4 5-5.2-1.3a3 3 0 0 0-3.5 3.5l1.4 5.2-5.1 1.4a3 3 0 0 0-1.3 4.8l4.1 4.1v.1l-4.3 2.5c-2 1.1-2 3.9 0 5L23 53l-4.3 2.5c-2 1.1-2 3.9 0 5L23 63l-4.3 2.5c-2 1.1-2 3.9 0 5L23 73l-4.3 2.5c-2 1.1-2 3.9 0 5L23 83l-4.3 2.5c-2 1.1-2 3.9 0 5L23 93l-4.3 2.5c-2 1.1-2 3.9 0 5L23 103l-4.3 2.5c-2 1.1-2 3.9 0 5L23 113l-4.3 2.5c-2 1.1-2 3.9 0 5L23 123l-4.3 2.5c-2 1.1-2 3.9 0 5L23 133l-4.3 2.5c-2 1.1-2 3.9 0 5L23 143l-4.3 2.5c-2 1.1-2 3.9 0 5L23 153l-4.3 2.5c-2 1.1-2 3.9 0 5L23 163c0 11 9 20 20 20h120c11 0 20-9 20-20V83l-70-4.4A10.6 10.6 0 0 1 103 68c0-5.6 4.4-10.3 10-10.6" fill="#3ECC5F"/><path fill="#3ECC5F" d="M143 183h30v-40h-30z"/><path d="M193 158h-.6l-.2-.4a5 5 0 0 0-1.9-9.6 5 5 0 0 0-3 1l-.3-.3a5 5 0 0 0 1-3 5 5 0 0 0-9.6-2h-.5l.1-.7a5 5 0 0 0-5-5 5 5 0 0 0-5 5v.6l-.4.2a5 5 0 0 0-9.6 2 5 5 0 0 0 1 2.9 20 20 0 0 0 14 34.3 20 20 0 0 0 19.4-15h.6a5 5 0 0 0 5-5 5 5 0 0 0-5-5" fill="#44D860"/><path fill="#3ECC5F" d="M153 123h30v-20h-30z"/><path d="M193 115.5a2.5 2.5 0 1 0 0-5h-.3v-.2a2.5 2.5 0 0 0-1-4.8q-.9 0-1.5.5l-.2-.1q.5-.8.5-1.5a2.5 2.5 0 0 0-4.8-1l-2.7-.4a10 10 0 1 0 2.7 19.6 2.5 2.5 0 0 0 4.8-1q0-.8-.5-1.4l.2-.2q.6.5 1.5.5a2.5 2.5 0 0 0 1-4.8v-.2z" fill="#44D860"/><path d="M63 55.5a2.5 2.5 0 0 1-2.5-2.5 7.5 7.5 0 0 0-15 0 2.5 2.5 0 1 1-5 0 12.5 12.5 0 0 1 25 0 2.5 2.5 0 0 1-2.5 2.5" fill="#000"/><path d="M103 183h60c11 0 20-9 20-20V93h-60c-11 0-20 9-20 20z" fill="#FFFF50"/><path d="M168 124h-50a1 1 0 1 1 0-2h50a1 1 0 1 1 0 2m0 20h-50a1 1 0 1 1 0-2h50a1 1 0 1 1 0 2m0 20h-50a1 1 0 1 1 0-2h50a1 1 0 1 1 0 2m0-49.8h-50a1 1 0 1 1 0-2h50a1 1 0 1 1 0 2m0 19.8h-50a1 1 0 1 1 0-2h50a1 1 0 1 1 0 2m0 20h-50a1 1 0 1 1 0-2h50a1 1 0 1 1 0 2m15-92.4c-3.1.1-4.6 3.2-5.9 6s-2.4 4.6-4 4.6c-2 0-3-2.2-4.2-4.5-1.3-2.6-2.8-5.5-6-5.4-3 0-4.5 2.8-5.8 5.2s-2.3 4-4 4c-2-.1-3-1.9-4.2-3.9-1.3-2.2-2.9-4.7-6-4.6-3 0-4.4 2.4-5.7 4.4-1.4 2.1-2.3 3.4-4.2 3.3-2 0-3-1.5-4.1-3.2-1.4-1.8-2.9-4-6-3.8-2.9 0-4.3 2-5.6 3.6C116 68.8 115 70 113 70a1 1 0 0 0 0 2c3 .1 4.5-1.8 5.8-3.5 1.2-1.5 2.2-2.8 4.2-2.8 2-.1 2.9 1 4.2 3 1.3 1.8 2.8 4 5.8 4 3 .1 4.6-2.2 5.9-4.2C140 66.6 141 65 143 65s2.8 1.3 4.2 3.7c1.3 2.2 2.7 4.6 5.8 4.7s4.6-2.6 5.9-5c1.1-2 2.2-4 4.1-4.1s2.8 1.6 4.1 4.3 2.8 5.5 5.9 5.6h.1c3 0 4.5-3.1 5.8-5.8 1.2-2.4 2.3-4.7 4.1-4.8z" fill="#000"/><path fill="#3ECC5F" d="M83 183h40v-40H83z"/><path d="M143 158h-.6l-.2-.4a5 5 0 0 0-1.9-9.6 5 5 0 0 0-3 1l-.3-.3a5 5 0 0 0 1-3 5 5 0 0 0-9.6-2h-.5l.1-.7a5 5 0 0 0-5-5 5 5 0 0 0-5 5v.6l-.4.2a5 5 0 0 0-9.6 2 5 5 0 0 0 1 2.9 20 20 0 0 0 14 34.3 20 20 0 0 0 19.4-15h.6a5 5 0 0 0 5-5 5 5 0 0 0-5-5" fill="#44D860"/><path fill="#3ECC5F" d="M83 123h40v-20H83z"/><path d="M133 115.5a2.5 2.5 0 1 0 0-5h-.3v-.2a2.5 2.5 0 0 0-1-4.8q-.9 0-1.5.5l-.2-.1q.5-.8.5-1.5a2.5 2.5 0 0 0-4.8-1l-2.7-.4a10 10 0 1 0 2.7 19.6 2.5 2.5 0 0 0 4.8-1q0-.8-.5-1.4l.2-.2q.6.5 1.5.5a2.5 2.5 0 0 0 1-4.8v-.2z" fill="#44D860"/><path d="m143 41.8-.5-.1-.5-.1-.8-.6-.3-.4-.2-.4-.2-1 .2-1 1-1 .8-.4h1l.9.4.4.3.3.4.4 1.4a3 3 0 0 1-1.5 2.3zm20-1.3q-1 0-1.8-.7l-.3-.4-.2-.4-.2-1a3 3 0 0 1 1.1-2l1-.5h.9l.9.4.4.3a3 3 0 0 1 .5 2.8l-.2.4-.3.4q-.3 0-.4.3l-.4.2z" fill="#000"/></g></svg>