<svg xmlns="http://www.w3.org/2000/svg" width="47.7" height="54" viewBox="0 0 47.7 54"><g ><g ><g  ><path d="M47.7,9.7h0A26.9851,26.9851,0,0,0,2.8,15H38a10.8274,10.8274,0,0,0,6.9-2.5,18.5321,18.5321,0,0,0,2.8-2.8" style="fill:#fec617;fill-rule:evenodd"/><path d="M0,27a26.8653,26.8653,0,0,0,.9,7H34a7,7,0,0,0,0-14H.9A26.8653,26.8653,0,0,0,0,27" style="fill:#343842;fill-rule:evenodd"/><path d="M47.7,44.3h0A26.9851,26.9851,0,0,1,2.8,39H38a10.8274,10.8274,0,0,1,6.9,2.5,18.5321,18.5321,0,0,1,2.8,2.8" style="fill:#1fbbb1;fill-rule:evenodd"/></g></g></g></svg>
