<svg xmlns="http://www.w3.org/2000/svg" viewBox="0 0 172.9 147.4"><path d="M122.3 72a10 10 0 0 0-6-1.6 10 10 0 0 0-4.7 1 12 12 0 0 0-3.5 2.7 16 16 0 0 0-2.6 4 26 26 0 0 0-1.7 4.6l-1 5-.2 4.6v25.9H96v-53h6.6v11.4h.2a24 24 0 0 1 2.3-5.2 16 16 0 0 1 3.3-3.9 14 14 0 0 1 4-2.4 13 13 0 0 1 4.7-.8l2.9.2 2.3.6Zm12.4 21a29 29 0 0 0 1.3 8.7 18 18 0 0 0 3.5 6.5 15 15 0 0 0 5.7 4.1 19 19 0 0 0 7.5 1.4q9 0 16.9-6.2v6.5q-7.6 5.4-18.4 5.4a24 24 0 0 1-9.6-1.8 20 20 0 0 1-7.4-5.4 25 25 0 0 1-4.7-8.7 38 38 0 0 1-1.7-11.8 33 33 0 0 1 1.8-11 27 27 0 0 1 5-8.8 23 23 0 0 1 7.6-5.8 22 22 0 0 1 9.6-2 22 22 0 0 1 9 1.7 18 18 0 0 1 6.7 5.1 23 23 0 0 1 4 8 38 38 0 0 1 1.4 10.7V93Zm31.3-6q-.2-8.2-4-12.8-3.7-4.5-10.4-4.5a16 16 0 0 0-6.3 1.2 15 15 0 0 0-5 3.4 19 19 0 0 0-3.6 5.5 27 27 0 0 0-2 7.2ZM21 126.6A50 50 0 0 1 6.5 90.3a48 48 0 0 1 14.5-36 50 50 0 0 1 70.7 0L96 50a56.4 56.4 0 0 0-79.5-.2A58 58 0 0 0 0 90.3 56.2 56.2 0 0 0 96 131l-4.3-4.3a50 50 0 0 1-70.7 0" fill="#68217a"/><path d="M55.5 110.5a19 19 0 0 1-7.5-1.4 16 16 0 0 1-5.7-4 17 17 0 0 1-3.6-6 24 24 0 0 1-1.3-8 25 25 0 0 1 1.4-8.4 18 18 0 0 1 3.7-6.3 16 16 0 0 1 6-4 21 21 0 0 1 7.7-1.3 19 19 0 0 1 7.3 1.3 15 15 0 0 1 5.6 3.9 17 17 0 0 1 3.5 6.2 26 26 0 0 1 1.2 8.3 24 24 0 0 1-1.3 8A18 18 0 0 1 69 105a16 16 0 0 1-5.7 4 19 19 0 0 1-7.7 1.5" fill="#40ccf4"/><path d="M4.5 17V1h7.9v1.3H6v5.9h5.9v1.3H6v6.2h6.7V17Zm19.1 0v-6.6q0-3.9-2.8-3.9l-1.4.3-1.1.8-.8 1.3-.2 1.5V17h-1.5V5.5h1.5v2a4 4 0 0 1 3.9-2.2A4 4 0 0 1 24 6.5a6 6 0 0 1 1 3.5v7Zm9.8-.1-1.6.4Q29 17.3 29 14V6.8h-2V5.5h2V2.6l1.5-.4v3.3h3v1.3h-3v7a3 3 0 0 0 .4 1.7 2 2 0 0 0 1.2.5 2 2 0 0 0 1.3-.4Zm3.1-14.3-.7-.3-.3-.7.3-.7.7-.3h.4l.3.3.3.3V2l-.2.3-.4.2zM35.8 17V5.5h1.4V17Zm10.1-.1-1.6.4q-2.8 0-2.8-3.3V6.8h-2V5.5h2V2.6l1.4-.4v3.3h3v1.3h-3v7a3 3 0 0 0 .4 1.7 2 2 0 0 0 1.3.5 2 2 0 0 0 1.3-.4Zm5.7 2.2a7 7 0 0 1-1.6 2.5 3 3 0 0 1-2 .8l-1.1-.1v-1.4l1 .2a2 2 0 0 0 1.2-.4l1-1.4 1-2.3-4.5-11.5h1.6l3.3 9.1.1.4.1.5.2-.4.1-.4 3.5-9.2H57ZM67 2.3v6h6v1.4h-6V17h-1.4V1h7.8v1.3ZM82 7a2 2 0 0 0-1.3-.4l-1 .2-.8.6-.5.9-.4 1-.2 1V17h-1.5V5.5h1.4V8l.6-1.1.7-.9.9-.5 1-.2h.6l.5.2Zm8.7 10v-2a4 4 0 0 1-1.6 1.7 4 4 0 0 1-2.2.6l-1.5-.2-1-.7-.8-1-.3-1.4a3 3 0 0 1 1-2.5 5 5 0 0 1 3-1.2l3.4-.5q0-3.3-2.6-3.3A6 6 0 0 0 84.4 8V6.4l.8-.5 1-.3 1-.3h1a4 4 0 0 1 3 1 5 5 0 0 1 1 3.2V17Zm-3-5.6-1.3.3-.9.5-.5.7-.2 1 .2.9.5.7.7.4 1 .2a3 3 0 0 0 2.5-1.1l.7-1.3.3-1.5V11ZM110 17V8.5l-.6-1.1-.8-.7-1.2-.2-1.2.3-1 .8-.7 1.2-.2 1.6V17h-1.5v-6.9q0-3.6-2.7-3.6l-1.2.3-1 .8-.6 1.2-.3 1.6V17h-1.4V5.5H97v1.9a4 4 0 0 1 3.6-2.1l1.2.1 1 .6.7.7.4 1a5 5 0 0 1 1.6-1.8 4 4 0 0 1 2.2-.6q3.8 0 3.8 4.6V17Zm5.6-5.5.3 2 .8 1.4 1.2.9 1.7.3a6 6 0 0 0 3.6-1.4v1.4a7 7 0 0 1-4 1.2l-2-.4a4 4 0 0 1-1.7-1.2 5 5 0 0 1-1-1.9l-.3-2.5a7 7 0 0 1 .3-2.4 6 6 0 0 1 1.1-2 5 5 0 0 1 1.7-1.2 5 5 0 0 1 2-.4 5 5 0 0 1 2 .3 4 4 0 0 1 1.5 1.2l.9 1.7.3 2.3v.7Zm6.9-1.2a4 4 0 0 0-.9-2.8 3 3 0 0 0-2.3-1l-1.3.3-1.1.7-.8 1.2-.4 1.6Zm14.7 6.7h-1.5l-2.4-8.4-.2-1-.1.4-.2.6-2.7 8.4h-1.4l-3.4-11.5h1.5l2.5 9 .2 1 .1-.5.2-.6 2.8-8.9h1.2l2.5 9 .1 1h.1V15l.2-.5 2.5-9h1.5Zm10.3.3a6 6 0 0 1-2.3-.4 5 5 0 0 1-1.7-1.2 5 5 0 0 1-1.1-2l-.4-2.3a8 8 0 0 1 .4-2.6 5 5 0 0 1 1.1-2 5 5 0 0 1 1.8-1.1 6 6 0 0 1 2.4-.4 6 6 0 0 1 2.3.4 5 5 0 0 1 1.6 1.2 5 5 0 0 1 1.1 1.8 8 8 0 0 1 .4 2.6 7 7 0 0 1-.4 2.4 6 6 0 0 1-1.1 2 5 5 0 0 1-1.8 1.2 6 6 0 0 1-2.3.4m.1-10.8-1.7.3-1.3 1-.8 1.5-.3 2 .3 2 .8 1.5 1.3 1a5 5 0 0 0 3.4 0 3 3 0 0 0 1.3-1l.7-1.5.3-2a5 5 0 0 0-1-3.6 4 4 0 0 0-3-1.2m14.1.5a2 2 0 0 0-1.3-.4l-1 .2-.8.6-.6.9-.3 1-.2 1V17H156V5.5h1.4V8l.6-1.1.7-.9.9-.5 1-.2h.6l.5.2Zm8.9 10-5.3-5.6V17h-1.5V0h1.4v10.9l5-5.4h2l-5.4 5.6 5.8 6Z" fill="#68217a"/></svg>