<svg xmlns="http://www.w3.org/2000/svg" viewBox="-2.1 -2.3 314.9 359.3"><style>.B{fill:#010101}.C{fill:#f0efef}.D{fill:#8ac640}</style><path d="M48.2 155.6A226 226 0 0 0 5 189c-5.5 6.5-7.1-3.7-1.4-20.6a112 112 0 0 1 35-48 365 365 0 0 1 51-30.2c3-1.6 42.5-18.3 77.7-26.7 3-.8-3.6 5-4.7 8.4-5.3 15.4-111 81.8-111 81.8zM197 342.3c1.8 11 .2 11.9-11.2 13.3a30 30 0 0 1-22.8-5.7c-3.1-2.9-3.7-9.2-.7-14.9 1.9-3.7 3.7-4.9 4.7-9.4 1-4.2 1.9-5.2 2.7-6.9.8-1.4 1-2.8 1.2-12.8s0-28.7 1-36.7 36.3 3.7 36.3 3.7l-10.6 25.9c-2.3 5-2 14.8-2 16.9s-.9 6-1.5 6.3 2 5.5.8 8.5c-.8 2.9 1.9 10.2 2 11.8M210.5 31a68 68 0 0 1 1.6-25.4c5.1-7 32-7.8 37.7.4 2.5 3.6 2.3 12.2 1.9 17.7l-2 21.2c-.3 2.8-29.8 7.3-36.3-.4-1.9-2-2.9-13.5-2.9-13.5m59.9 291.7c12.4 9 22 10.6 28.3 13.8s4.7 9.6-5.9 11.4c-8.6 1.7-22-1.6-31-1.6s-28.9 1-34.2-2.6c-6-4.3-3.4-12.3-3.4-12.3 1.6-4.4 5.7-14.4 4.4-22.6s-2.8-12.6-5.9-20.1c-3-7.6-5.3-26.1-2.4-27.1s2 0 5.7.8 7.7 2 15.7 2 16.7-1.2 19.7-1.8 5.5-1.2 4.5 5c-1 6.4-4 18.2-4.3 27.4s-.2 19.7.4 21.6c.7 1.8 5.1 3.8 8.4 6" class="B"/><g class="D"><path d="M226.8 51.3C204.4 70.6 161 75.9 96.7 100.8c-16.5 6.3-60.5 25.2-71.1 45 35.6-20.6 48.8 7.7 51.7 36.9 2.6 27.3 16.3 41.5 51.3 40.7 36-.8 47 20.2 57 44.8C205 174 236 155.6 256 139.5c42.4-34.4-9.7-95.1-29-88.2"/><path d="M226.8 51.3C173 70 119.8 74.7 57.3 113.2c-14.8 9.2-46.2 30-52.3 69.7 22.8-25.3 75.6-57 140.1-77.2 32.6-10.2 56.4-17 85.4-28.1-2-13-2-18.2-3.7-26.3"/></g><path d="M295.4 162.9s-3.8 13.2-11.6 17.5c0 0-5.7 2-17-4.3-3.3-1.8-5.8-8.1-5.6-10.1.2-5 3.3-7.2 3.3-7.2s3.2-5.5 7.1-5.3 10.4.8 12.4-1c1.9-2 11.9 3.7 11.4 10.4m-83-128.1s-.9 10.4-2.3 16.9c-.2 1.2-6.3 1.8-10.8 3.7 8.6 24.4 60.1 24.2 66.8 12.2a89 89 0 0 0-12.8-7c-3-1.2-2.9-1-3-6.7l-1-19.1c-.5-2.9-32-2.9-37 0" class="B"/><path d="M214.4 34.8s0 5.9-.6 11.6a48 48 0 0 1-.8 6.3c-.2 1.2 6.9 6.1 9 17 9.7 21.7 32.3 11 41.7.5a79 79 0 0 0-14.7-7.7c-3-1.2-1.6-3.9-1.8-9.6s-1-14-1.5-17.1c-.4-3-26.4-3.9-31.3-1" class="C"/><g class="B"><path d="m212.3 34.8-.8 8c2.7 2.6 6.1 6.2 8.8 8.5 1.8 1.6 6.3 1.4 10.4 1.4 3.6 0 6.9.4 8.3-.4 3.3-1.6 8-5.7 10.6-8.8l-.6-8.7c-.2-2.9-31.8-2.9-36.7 0"/><path d="M230.9 50.3q-4 0-7.6-.6l-2.8-1.3L216 45c-3.2-2.5-3.5-3.9-3.5-4.5 1.5-12.8-.4-23.6-.4-23.6s-1.4-5.5 6.4-7 12.4-1.6 12.4-1.6 4.9 0 12.4 1.6c7.7 1.5 6.3 7 6.3 7s-1.8 10.8-.4 23.6c0 .6-.2 2-3.5 4.5-2.8 2-5 4.2-7.3 4.7s-5 .6-7.5.6"/><path d="M230.9 3c-13.5 0-16.1 3.7-20 7.7-.8 1-.2 7.2 1.2 20.2h1.9s-1.2-3.7-1-8 1-4 .4-5c-.9-1.2-2.5-3.3 1.2-5.3s9.4 1.6 16.3 1.8c7-.2 12.8-3.9 16.5-1.8s2 4 1.2 5.3.2.8.4 5-1 8-1 8h1.8c1.2-13 2-18.7 1.4-19.7-3.4-4.5-6.9-8-20.3-8.2m64.5 160.5s-3.8 12.4-11.4 16.7c-1.6-.8-1.4-2-2.8-3.9-.4-.6-1.8-1-2.5-1.6s-.4-1.6-1.4-2.4c-.8-.8-1.4-.2-2.2-.8-.8-.9-1-1.9-1.7-2.5-.4-.4-2-.6-2.4-1-1-1-10-2.9-9.6-4.9.8-3 2.5-5.3 2.5-5.3s3.8-5.7 7.7-5.5 7.6 1 9.6-.8c2.2-2 14.9 5.5 14.2 12"/><path d="M269 73.5s12.8-3 21.6 5.3a23 23 0 0 1 5.5 25.6c2.2 2.7 6.3 10 3.2 18.8 13.5 11.4 7.6 29-4.5 40.5 0 0-2.8-10.6-14.2-11.2.4-4-10.6-7.3-5.5-18-7.8-1.7-7.6-7-8.8-13.6-1-6.5 2.7-47.4 2.7-47.4"/></g><path d="M264.3 79.2s14.9-7.6 23.6 1 6.3 18 3.7 24.4c2.2 2.7 7.5 10.2 4.3 19.2-.7 2-5.1 2-8.4 7.3 8.1-4.7 13.2-3.4 15 2.5 3 9.1-3.4 20.1-8.9 26.2l-.2-.6c-.8 3-1.8 9-8 15.5-3 3.3-5.4 2.9-8.9 2-4-1-5.5-2.8-11.2-5.9-3.3-1.8-1.4-4-1.4-5.9q0-.6 1-1.8.6-1.6 3.5-4.5s2.6-3.6 6.5-3.4c3.8.2 8-.7 9-1.7 0-7.1-8.2-7.3-5.4-19.5.2-.6 1.3-1.7 4.5-2-4.9-1-7.1-1.3-10.6-4.5a15 15 0 0 1-4.9-8.8c-1.2-6.3-3.2-39.5-3.2-39.5" class="C"/><path d="M221.3 66.4a37 37 0 0 0-19.5-13c-3.5-1.1-5.8 1.7-9.2 3.8-1-.6-5.5-2.7-8-1.2s-4 2.8-6.5 3.8c-1.2-.6-4.5-.6-7.1.4-2.7.9-6.7 2.7-10.6 8-2.4 8.7 43.2 2.2 43.2 2.2z" class="B"/><path d="M221.7 66.4c-6.5-2.3-5.5-9.8-20-11-2.8-.3-4.6 2-6.7 3.4 1 1 2 2.7 2.7 4.3a17 17 0 0 0-8.4-5.3c-3-.6-5 1.6-8.3 3.3l2 2.8c-2.8-1.8-4.9-2.4-8.7-1-2.7.8-7.8 3-11.7 8.5-2.4 8.8 41.2-1 41.2-1z" class="D"/><path d="m260 69.6-.2-4.3c0-.4-1.6-1.4-1.6-1.8l-.4-.4s3.2-1.8 5.7-.8c2.6.8 4 4.3 4 4.3 4.7-1.7 5.1.2 7.4 2.6 4.9-1 5.5.8 8.5 5.3 0 0-3.6-.6-10.8.6-6.9 1-12.6-5.7-12.6-5.5" class="B"/><path d="M259.2 68.6s1.2-1 .8-1.2c2.2-1.3 5.3-2.7 6.7 1.2 4.7-1.6 5.3.6 7.6 3 5.7-2.6 6 .7 6.5 2q-2.7 0-8.2.7c-6.9 1-13.6-6-13.4-5.7" class="D"/><path d="M190 63.5s11.5 4 21.3 3.5c9.8-.9 26.5-1.7 35.5 3.6 0 0 9.1-3.2 17.7-1s24.2 17 19.5 32.4c-.4 1-3 2.6-6 3.7 0 0 1.6 6.9-1.3 12.6-2.8 5.5-9.2 16-9.4 30.7-.2 2.5-.6 7.6-1 10-15.9-.6-40.3-6.5-64.3-6l.6-7h.6c-1.2-6.7-1.7-10.2-2.9-15.3a67 67 0 0 1-22.8-21.4C170.8 98.5 190 63.5 190 63.5m78.6 110s12.6 45.2-2.3 64.2c0 0 2.3 8.7-2.8 18-.8 4.2-1.9 7.8-2.5 11.9-2.6 16.9-7.1 24-8.3 51.1l-12.2-.2s-1.5-19.5-5.8-30c-2.4-5.8-12-13.8-11.6-21.7.4-6.1 1.7-11.2 12-19.4.9-11.8-11-23-9.1-67z" class="B"/><path d="M264.9 171.7c3.3 20.7 10.8 51.5-2.9 66.6a31 31 0 0 1 .2 11.6q-.6 3.5-2.2 8c-2 4.8-2.8 12-3.5 16.2-2.6 17-2.6 17.7-3.8 44.8l-12.2-.2s-1.5-19.5-5.8-30c-2.4-5.8-7.5-11-7.9-18.9-.4-6 3.9-18.3 14-17.9-.6-24.6-12-19.7-15-71zm-75-108.2s4.5 1.4 9.4 1.8 10.2 0 14.9-.2c9.8-.8 23.6-1.8 32.8 3.5 0 0 5-1.6 10.6-1.2 2.4.2 4.9 2.2 7.7 3 9 2.3 17.5 17.1 13.6 30.6-.4 1-3.2 0-6.5 1a27 27 0 0 1-2.2 16.3c-3.5 7-8 15.9-7.1 33-21.4-1-31-2.5-52.2-3.5-1.8-7.5-3-15-3.2-19a20 20 0 0 0 6.7-5c-6.1 1-8.6.6-12.2-1.4-3.7-2-10.2-8.6-13.5-12.9-.4-.4-2.6 6.3-7.7 6.6-1.9-2.7 5.9-10.2 4.5-13-5.1-10.5 4.4-39.6 4.4-39.6" class="C"/><path d="m266.5 154.8.4 9.1c0 2 1.7 8.2 1.9 11-2.3 3.9-12 12.6-29.8 15.9-17.5 3.7-40.7-23.8-40.7-23.8a188 188 0 0 1 4.7-16.3c1.8-2.7 63.5 4 63.5 4" class="B"/><path d="M262 155.4c0 5 .9 8.7 1.5 12 1 5.9 2.6 9.8 2.6 13.6 0 11.8-15.5 9.8-28.5 10.2-17.5 3.7-32.4-23.8-32.4-23.8 1.2-4.7 2-10 3.9-14.5l.8-6.9c24.8 0 42.4 1.4 52.5 2.4.5 2.3 0 6.1-.4 7" class="C"/><path d="M242.5 181.6s-10.8-24-43.2-16.9c-7.7 21.8-18.1 46.9-11.4 74-6.7 9.1-14.5 14.2-14.5 31.1s.9 19.8.9 19.8l23.8 1.2s7.7-10 10.8-20.8c.8-3 1.6-8.5 1-14.8.8-1.2 4.3-4.1 4.7-9.6 0 0 11.6-6.1 18.3-21 6.3-13.4 4.7-25 9.6-43" class="B"/><path d="M242.5 181.6c-.6-2.2-8.8-24.2-39-17.7-17.6 47.3-11.1 66.8-8.5 75.4-12 15.3-17.5 18.5-15 49.5h15.8c7.4-11.6 9-16 9.4-31.2 0-.6-2.2 1.2-3.9 3.3 1.3-6.3 4.7-7.6 7.4-11.4a12 12 0 0 0 2.2-7.4 53 53 0 0 0 22.6-34c2.5-8.5 5.3-22.6 9-26.5" class="C"/><g class="B"><path d="M192.2 148.8s5.5.2 10.4 1.9c4.7 1.6 4.7 2.6 6.5 4.7s6.3 5 5.5 8.1c-.4 1.6-1.4 2-2.9 3.5l-6 6-2.1 1.5-3 2c-2.1 1-3.5 1.7-5.8 1.5 0 0-5-.2-8.3-3.7 0 0-.4-1.6.4-2.4 0 0-4.3-3.7-5.5-6.1-1.2-2.5-1.2-6-.4-7.8.4-1.8 8.3-7 11.2-9.2m5 198.2-.5 5.1s-1.9 2.3-15.5 2c-13.9-.1-17.5-4.4-18.8-6.7l-.8-5.3s2.7-3.8 3.3-3.8c4.5.4 19.7 6.5 30.3 8.1 1 0 1.3.4 2 .6m29.6-10.4c0 2.3-.2 2.3-.2 4.5 2.4 1.9 8.6 2.9 20.2 2.7 16.9-.4 32.6 5 51.7 1.8l.2-3.7-1.8-.2-67.9-5.5z"/><path d="M241.7 343.8h5c11-.4 21.5 2 32.7 2.6 5.9-.2 13.2-1.6 12.6-5.9l-57.9-4.9c-3.4 3.9-.8 7.2 7.6 8.2M175.3 258a60 60 0 0 0 34.4 7.6c-.4 3.8-.2 11.4-9.2 24.6a66 66 0 0 0-9.1 32.4c.2 3.2 2 6.1-.4 10.4.8 2.6 4 8 5.7 11.2 1.6 3.2 2.4 7-8.4 7.1-11 .2-28.7-1-26.3-9.6 1.3-4.4 4.7-9.1 5.1-11 .4-1.8.4-7.3 3.9-11 3-10.1 2-20 1.4-29-1-9.7-1.2-25 2.9-32.7m19-166c14.4-19.3 2.2-34.8-21-30.1-9.4 1.8-18.8 8.3-19.4 20.1-3 .4-10 .9-13.5 13.5-2.6 9.8-4 11.6-8.7 16.5-3 3.4.2 10.6 2.4 15.7 7.6 17.5 30.8 19.1 46.5 32.3a23 23 0 0 0 12.4-11.2c-13.2-15.6-10.4-21.7-15.7-29.9 5.7-2 18.7-10 17-26.9"/></g><path d="m191.4 90.8 2.8-4.9c.2-.2 2.5 3.7 2.7 3.5 5.5-9 6.9-22 .6-23.3-1.5-.2-4.1-.8-6.3-1.6a26 26 0 0 0-14.3-.2c-9 1.6-18 8.2-18 17.5 0 .6 6.4 2.5 8.2 10-3-4.3-8.3-9-14.6-4.9-6.8 4.3-3.3 14-12.3 24.3-3 3.4-2.6 7.5.6 15.6 5.3 12.9 30.4 19.8 44 32 3.3-1.4 5.5-4.7 7.2-7.1a72 72 0 0 1-15.5-25 42 42 0 0 0-14-17.6q5.6 2.3 8 4.1a8 8 0 0 0 7 .6c8.8-3 13.5-15.3 13.9-23" class="C"/><path d="M280 94c-.6 7.8-6.3 4-9.4 2.5-6.1-2.6-12.2-4.5-19.4-4.5s-16.2.6-24.2 2.7c-11 3-14.2 2.8-19.1.4-5-2.7-13.5-9.2-13.5-9.2s-.2 2 1.9 4.7a37 37 0 0 0 16.5 10c3.8 1.2 6.9.4 10.3-.4 18.2-4.5 37.3-5.3 53.4 4.4.8.5 3.7-.8 4.9-2.6 1.6-2.6-1.4-8-1.4-8" class="B"/><path d="M187.3 171.7c1.6 1 3.7 1.6 5.9 3.4 0 0-1.8 0-2.6-.8-1-.6-3.1-2.4-3.3-2.6" fill="#0a1825"/><path d="M246.2 10.1c-.7-1.8-5.1-5-15.5-5-11.2 0-14.5 3.4-14.7 5.2l-1 9.8.2 8.2c.2 3.2 1 5 1.4 9.3a23 23 0 0 0 3.9 11q1.4 1 2.8 1.5c4.1.8 11.2 1 15.1 0 2.3-.7 5.1-4.5 5.7-8 .8-4.3 1.6-7.3 1.9-10 .4-2.6.6-8.5.8-10.2.6-4.4-.4-11.4-.6-11.8" class="C"/><path d="M224.8 261.9s10.8 4.7 37.4.6c0 0-7.5 37.9-4 56.8 0 0 3.4 5 29.1 14.3 0 0 11.4 2.8 11 8.5 0 0 .4 1.3-13.4.9s-27-2.9-36-2.9-19 .4-20.7-2.2c-1.8-2.5.4-8.8 3-12.5 3-3.8 2.1-6.7 2-13.6-.7-18.1-14.5-36.9-8.4-50" class="B"/><path d="M222.5 265.4c-1.4 2 .2 9.7 2.3 17.3 2 7.5 6.5 12 7.5 24.4 1 12.2 1.2 13.9-2.2 21s-4.5 13.6 7.5 13.8 18.5-.2 30.8 1.7c12.2 1.8 16.5 2.4 23.2 1.4s8.1-3.3 5.3-5.3c-2.9-2-14.7-4.3-19.8-8.4-4.9-3.6-18.7-9.7-19-11.4-.5-5.5-.7-25.4.3-32l2.8-18.3c.4-2.5 2.5-4.9-1-4-3.5.8-16.5 2.6-26.3 2-9.7-.6-10.8-2.9-11.4-2.2" class="D"/><g class="B"><path d="M229.5 328.3c3.4 1.6 8.5 2.8 12.4 2.8 0 0-1.4 6.8.8 10.8s-16.3 1.7-16.3 1.7l-.8-14.5zm54 17.5c3.2-1 5.4-4.7 2.8-8.1-2.9-3.5-5.3-4.1-1.6-4.3s17 8 17 8l-6.9 6.2zm-61.6-72.5a83 83 0 0 0 39.1-1.2c6-2 3.5 2.2 3.5 2.2l-3.3 3s-7.7 3.1-20.3 3c-15-.3-19.4-2-19.4-2zm.4 10.2c4.7 1.6 11.8 2 18 1.8 6-.2 14.2-.2 20.1-2.4 2.5-.8 1 2.6 1 2.6l-1 1.9s-8 2.8-20.4 2.6a64 64 0 0 1-17.5-1.4z" opacity=".3"/><path d="M208.9 140.7c0 1.4 15.9 9.4 24.6 11s27.1 0 30-.6l-.4 2.8s-21.8 3.3-38.5-1.2-14.9-5.5-14.9-5.5z"/></g><path d="M174.9 314.4a34 34 0 0 0 16.9 2.3c.8-.2 0-14 2.2-20.4 3.3-8.7 8.6-15.9 11-31.4-8.5-.8-18.3-3-23.4-4.6-6.5 20-4.3 37-6.7 54.1m13.6 12.9c1.4.4 2.5 2 2.9 1 .8-1.8-1.5-5.3-1.7-7.7v-.2c-1.8-1.7-14.2-1.9-13.4-1-1.4 2.6-3.7 2.2-4.5 7.5-.4 2.6 2.9.4 6 .2-5.6 3.6-11.9 8.3-13 12.4-1.1 5.7.9 7.3 7 10.4 5.3 1.2 11.6 1.4 16.5 1.2 5.5-1 6.5-3.7 4.9-7.3a74 74 0 0 1-4.7-16.5" class="C"/><path d="M190.8 62.7c6.7 3.9 16 2.8 19.5 2.6.8 0 9-1.4 9.4-1.2.8.2.8.8.8.8s-3 1.7-10 2c-6.5.5-14.2 0-18.5-2-5.1-2.2-1.2-2.2-1.2-2.2m69.2 3.9c1.2.8 9.2 3.8 12.6 7.5 3 3.3 1.5 3 .9 2.2-.9-1-7.2-5.3-9.6-6.3s-5.5-2.8-5.5-3.2 1.6-.2 1.6-.2" class="B"/><path d="M189.7 151c6-.3 12 1.1 16 5.2 2 2 5.2 4.3 4.8 6.3 0 .6-1.2 2.2-2.2 3.5-.6.8-2.5 2.6-3 3.2l-4.4 3.3c-.6.4-1.4 1.4-2 1.6-2 1-4.3.2-6.3-.8s.4-1.2-1.8-2.9c-5.5-3.8-8.6-6.5-6.4-14 .2-1.4 2.5-3 5.3-5.3" class="C"/><g class="B"><path d="M137.8 104.4a1238 1238 0 0 0-78.2 37.7c11 7 16 23.7 17.7 40.6l.6 4.6.6 3.1.2.8c12-32.8 55-67.4 56.6-70 .9-1.3-1-6.6 1.9-11.7 3.7-6.5 10.8-9.3.6-5m43.6 153.8c9.4-18.7 9.6-36.6 9.4-57.6 0-8.8 6.3-21.2 3-17.7-12.2 13.6-43 39.3-65.2 40.7 31.2-1 43.4 14.7 52.8 34.6" opacity=".4"/><path d="M41.7 159.4c11.6-8.3 71.7-40.3 86.1-44.8 14.5-4.7 10-10.2 10-10.2S79 129.7 44 151.4"/><path d="M212.8 100.6c-4.7-1.9-8.4 3.6-7.2 9 1.2 5.2 12.2 11.1 11.6 30.5a56 56 0 0 1-3.8 22.4l-7.8-9.8s-1.2-22-3.8-25.2c-2.7-3.3-11-9.2-14.3-12.3-3.3-3 3.7-7 3.3-12.8-.5-5.5 3.4-16.5 3.4-16.5zm28.3 86.7c-.4 15.3 3 38 4.4 48.7s3.3 11.6 0 16.5c-3.2 4.7-7.5 12.4-7.5 12.4l-14-1.2s11.2-14.2 11.8-16.9S230 224 230 224zM214 44.8a18 18 0 0 0 11.8 11c3.2 1.2 16 2.8 21.2-2.9 2.2-2.6.8-9.8.8-9.8l-11.6 9.4-15.7-2.9-1.8-4.6z" opacity=".4"/></g><g class="D"><path d="M215.2 58.8a83 83 0 0 0 22.2 7.3c3.7.9 9.6-3.8 12.4-5 3-1.5 8.4-2.3 14.5 3.2.6.6-1.4 3.3-1.4 3.3-.2-.2-1.5-.2-3.1-1s-3-1.5-5.5-1.3c-10.2 1.3-11.8 4.7-20.8 2.7s-11.2-3.7-20-3.3" stroke="#010101" stroke-linejoin="round" stroke-miterlimit="10" stroke-width="1.6"/><path d="M213.4 59.4c6.7 2.9 19.7 6 23.4 6.7s9.6-2.8 12.4-4.6c5.1-3.3 11.6-.6 14.7 2.8q2.9 3.4 2.8 4.3c0 .8-2.4 0-2.4 0-1.4-.6-3-.8-4.3-1.6-1.6-.9-3.3-2-5.7-1.9-10.2 1.3-12.2 4.7-21 2.7s-11-3.9-20.3-3.3"/></g><g class="B"><path d="M181.8 249.7c-.4-.4.4-.8 0-.8-2.7 0-6.3-2-8.4-5-8.7-12.6-21.6-21-44.8-20.3-34.8.8-48.7-13.4-51.3-40.7-1.4-15-5.5-29.4-13.9-37.5l-4.8 3C67.9 156.6 71 169.8 73 188c3.3 27.2 25.3 39.9 51 40.3 26.6.4 36.2 5.9 46.2 19.3a16 16 0 0 0 9.8 6.3z"/><path d="M276.3 118.7c.6 3 2.2 9 5.5 11.8q2.1 2 .4 1.8L272 132l-2.4-4.2z" opacity=".4"/></g></svg>