<svg xmlns="http://www.w3.org/2000/svg" viewBox="0 0 174.1 385.2983"><g  ><g  ><path   d="M86.246,304.0373a211.2636,211.2636,0,0,1-48.405-5.412A93.0457,93.0457,0,0,1,24,294.3443l11.187,19.113,4.376,59.719c0,6.695,21.268,12.122,47.503,12.122s47.503-5.427,47.503-12.122l3.465-60.369,10.585-18.519a92.0824,92.0824,0,0,1-13.969,4.337A211.2607,211.2607,0,0,1,86.246,304.0373Zm62.736-194.328c-16.568,2.314-38.557,3.589-61.916,3.589s-45.348-1.275-61.916-3.589a116.0068,116.0068,0,0,1-19.299-4.016,27.9362,27.9362,0,0,1-4.745-1.968l10.265,94.473q.7155-2.44,1.597-4.871a92.3537,92.3537,0,0,1,4.181-9.731,86.2012,86.2012,0,0,1,5.169-8.984,69.4819,69.4819,0,0,1,5.946-7.79,47.4778,47.4778,0,0,1,6.472-6.122,30.7933,30.7933,0,0,1,6.702-4.006,16.9894,16.9894,0,0,1,6.703-1.444,14.4556,14.4556,0,0,1,7.397,2.091,21.2084,21.2084,0,0,1,6.681,6.769,5.41,5.41,0,0,1,.903,2.115,11.5307,11.5307,0,0,1,.189,2.016,5.3772,5.3772,0,0,1-1.071,3.534,3.21,3.21,0,0,1-2.542,1.294,3.2546,3.2546,0,0,1-2.501-1.418,26.8691,26.8691,0,0,1-2.585-4.057,9.8023,9.8023,0,0,0-2.962-3.459,6.24,6.24,0,0,0-3.509-1.07,10.8422,10.8422,0,0,0-6.282,2.439,36.4955,36.4955,0,0,0-6.618,6.445,70.612,70.612,0,0,0-6.283,9.159,95.5825,95.5825,0,0,0-5.317,10.551,75.3649,75.3649,0,0,0-3.676,10.653,37.8536,37.8536,0,0,0-1.366,9.431,22.5638,22.5638,0,0,0,.189,2.862,9.6538,9.6538,0,0,0,.715,2.664,5.3552,5.3552,0,0,0,1.428,1.964,3.3962,3.3962,0,0,0,2.29.772,7.722,7.722,0,0,0,3.531-1.045,26.5285,26.5285,0,0,0,4.096-2.736,51.4787,51.4787,0,0,0,4.266-3.834q2.145-2.139,3.992-4.33,1.848-2.1885,3.277-4.205a24.8783,24.8783,0,0,0,2.144-3.51l3.908-11.697a5.4977,5.4977,0,0,1,1.87-2.687,4.1369,4.1369,0,0,1,2.375-.797,3.6763,3.6763,0,0,1,1.176.199,2.8744,2.8744,0,0,1,1.786,1.718,4.1392,4.1392,0,0,1,.273,1.567,22.7413,22.7413,0,0,1-.42,4.48,35.5972,35.5972,0,0,1-1.072,4.082q-.651,1.989-1.45,4.006t-1.554,4.207a9.5517,9.5517,0,0,0-.61,1.566q-.441,1.3215-1.071,3.311-.63,1.992-1.366,4.455-.7365,2.4645-1.512,5.027-.7785,2.5635-1.492,5.028-.7155,2.463-1.282,4.455-.567,1.989-.946,3.334c-.252.896-.406,1.426-.462,1.594a10.3642,10.3642,0,0,1-.672,1.765,11.6651,11.6651,0,0,1-1.093,1.842,6.7115,6.7115,0,0,1-1.387,1.443,2.5545,2.5545,0,0,1-1.555.573,2.1925,2.1925,0,0,1-1.953-.895,6.255,6.255,0,0,1-.609-3.285v-.697a7.07,7.07,0,0,1,.041-.746,17.6565,17.6565,0,0,1,.631-2.989q.588-2.1885,1.408-4.951t1.765-5.725q.9435-2.961,1.702-5.3-2.2305,2.49-4.833,4.953a52.1254,52.1254,0,0,1-5.337,4.429,31.6481,31.6481,0,0,1-5.505,3.211,13.03,13.03,0,0,1-5.337,1.245,9.5452,9.5452,0,0,1-5.065-1.295c-.255-.157-.496-.332-.736-.506l5.712,59.888c1.487,3.727,29.481,12.884,66.391,12.884,36.927,0,64.932-9.166,66.393-12.89l8.205-71.202c-.679.623-1.34,1.232-1.972,1.822a86.0456,86.0456,0,0,1-6.662,5.648,30.0524,30.0524,0,0,1-6.114,3.658,15.8632,15.8632,0,0,1-6.388,1.295,7.7329,7.7329,0,0,1-4.938-1.394,4.6356,4.6356,0,0,1-1.744-3.832v-.373a2.5257,2.5257,0,0,1,.043-.424,9.0459,9.0459,0,0,1,1.303-3.434,39.4675,39.4675,0,0,1,2.73-4.031q1.5975-2.091,3.404-4.232,1.8075-2.139,3.342-4.057a39.1756,39.1756,0,0,0,2.541-3.508,5.2728,5.2728,0,0,0,1.01-2.588,1.1722,1.1722,0,0,0-.42-.947,2.1991,2.1991,0,0,0-1.387-.348,7.8861,7.8861,0,0,0-3.466.871,17.2214,17.2214,0,0,0-3.532,2.34,31.9819,31.9819,0,0,0-3.404,3.36,49.5661,49.5661,0,0,0-3.109,3.931q-1.45,2.043-2.647,4.108-1.1985,2.0655-2.039,3.806-.252.549-.715,1.543-.462.996-1.008,2.241t-1.156,2.562q-.609,1.3215-1.113,2.49c-.336.78-.637,1.475-.902,2.09q-.402.9195-.569,1.27-.21.447-.693,1.691t-1.113,2.912q-.63,1.6665-1.325,3.51-.69,1.839-1.302,3.484-.6105,1.641-1.071,2.887c-.308.828-.506,1.393-.59,1.692a18.1685,18.1685,0,0,1-.986,2.44,10.0436,10.0436,0,0,1-1.303,2.016,5.96,5.96,0,0,1-1.681,1.392,4.2968,4.2968,0,0,1-2.121.523,4.1408,4.1408,0,0,1-2.502-.722,3.2411,3.2411,0,0,1-.987-2.762,8.6778,8.6778,0,0,1,.252-2.04,18.1889,18.1889,0,0,1,.631-2.066c.252-.682.512-1.344.778-1.991s.511-1.269.734-1.867q2.271-4.977,4.623-9.98,2.352-5.001,4.518-9.904c.3-.682.576-1.35.869-2.028-.088.086-.174.176-.26.26a55.79,55.79,0,0,1-5.442,4.654,28.867,28.867,0,0,1-5.378,3.211,12.69,12.69,0,0,1-5.192,1.194,6.7023,6.7023,0,0,1-2.877-.547,4.8009,4.8009,0,0,1-1.849-1.493,5.9641,5.9641,0,0,1-.989-2.24c-.066-.295-.107-.603-.15-.91-.492.383-.988.756-1.488,1.11a30.166,30.166,0,0,1-5.127,2.96,11.3435,11.3435,0,0,1-4.537,1.12,4.2939,4.2939,0,0,1-3.28-1.344q-1.26-1.3425-1.259-4.578a25.0957,25.0957,0,0,1,.671-5.326,27.2149,27.2149,0,0,1-2.73,3.931,23.9525,23.9525,0,0,1-3.74,3.635,18.6873,18.6873,0,0,1-4.707,2.662,15.4358,15.4358,0,0,1-5.673,1.02,10.1434,10.1434,0,0,1-2.669-.348,5.5941,5.5941,0,0,1-2.248-1.195,5.9974,5.9974,0,0,1-1.555-2.264,9.345,9.345,0,0,1-.588-3.559q0-.05.168-1.519a32.4385,32.4385,0,0,1,1.072-4.629q.903-3.159,2.793-8.188,1.893-5.0265,5.338-12.193a6.7232,6.7232,0,0,1,2.037-2.713,4.2315,4.2315,0,0,1,2.5-.822,4.6109,4.6109,0,0,1,1.219.174,3.9418,3.9418,0,0,1,1.178.548,2.9591,2.9591,0,0,1,.883.946,2.57,2.57,0,0,1,.336,1.318,3.4572,3.4572,0,0,1-.127.945,11.3453,11.3453,0,0,1-.902,2.215q-.6945,1.371-1.62,3.137-.9225,1.767-1.953,3.809-1.03,2.0385-1.912,4.23a42.237,42.237,0,0,0-1.513,4.455,19.1917,19.1917,0,0,0-.714,4.405,3.2817,3.2817,0,0,0,.42,1.642,1.4658,1.4658,0,0,0,1.387.746,8.7747,8.7747,0,0,0,5.211-1.791,23.156,23.156,0,0,0,4.58-4.455,42.7674,42.7674,0,0,0,3.803-5.725q1.7025-3.0615,2.836-5.599a28.3856,28.3856,0,0,0,1.408-3.633,36.1342,36.1342,0,0,1,1.324-3.584,11.0392,11.0392,0,0,1,1.639-2.738,2.9031,2.9031,0,0,1,2.31-1.095,2.8678,2.8678,0,0,1,2.397,1.145,4.3541,4.3541,0,0,1,.881,2.737,7.7931,7.7931,0,0,1-.567,2.465q-.5685,1.5675-1.429,3.584-.8625,2.016-1.869,4.304-1.008,2.292-1.869,4.655a46.122,46.122,0,0,0-1.43,4.629,17.335,17.335,0,0,0-.567,4.205,1.61,1.61,0,0,0,1.848,1.793,8.06,8.06,0,0,0,3.236-.897,22.1194,22.1194,0,0,0,4.055-2.514c.353-.269.709-.55,1.062-.845a34.551,34.551,0,0,1,1.397-4.504q1.47-3.885,2.984-7.715,1.512-3.8325,2.774-7.019l12.732-32.104a5.3769,5.3769,0,0,1,2.037-2.738,4.87,4.87,0,0,1,2.586-.796,3.7418,3.7418,0,0,1,2.373.846,3.28,3.28,0,0,1,1.073,2.738,5.6041,5.6041,0,0,1-.358,1.891,22.894,22.894,0,0,1-.904,2.14q-1.0485,2.3415-2.5,5.724-1.4505,3.3855-3.11,7.367t-3.404,8.287q-1.743,4.3065-3.404,8.387-1.6575,4.083-3.11,7.74-1.449,3.6585-2.5,6.346a27.944,27.944,0,0,0-.902,2.664,9.8046,9.8046,0,0,0-.441,2.713,2.4328,2.4328,0,0,0,.252,1.193,1.0092,1.0092,0,0,0,.966.449,5.44,5.44,0,0,0,2.206-.623,22.5412,22.5412,0,0,0,2.857-1.643q1.536-1.0185,3.193-2.339,1.662-1.3185,3.299-2.737,1.641-1.4205,3.131-2.838t2.67-2.613a1.887,1.887,0,0,1,.646-.427c.473-1.413.905-2.797,1.286-4.151q.336-.897.925-2.539a34.8832,34.8832,0,0,1,1.344-3.236,13.8628,13.8628,0,0,1,1.701-2.762,2.6589,2.6589,0,0,1,2.039-1.17,3.3064,3.3064,0,0,1,2.438.771,3.1132,3.1132,0,0,1,.756,2.266,8.2247,8.2247,0,0,1-.084.945c-.057.432-.125.889-.209,1.37s-.176.937-.274,1.369a6.27,6.27,0,0,1-.273.945q1.5525-1.6935,3.361-3.359a34.5881,34.5881,0,0,1,3.74-3.012,21.6128,21.6128,0,0,1,3.952-2.192,10.3843,10.3843,0,0,1,4.033-.845,9.7666,9.7666,0,0,1,2.752.399,7.9179,7.9179,0,0,1,2.437,1.169,6.1135,6.1135,0,0,1,1.744,1.942,5.3433,5.3433,0,0,1,.672,2.712,10.7356,10.7356,0,0,1-1.029,4.356,31.5462,31.5462,0,0,1-2.584,4.652q-1.5555,2.3415-3.361,4.555-1.8075,2.2155-3.383,4.031-1.5765,1.82-2.649,3.086a4.6454,4.6454,0,0,0-1.113,1.719,1.3079,1.3079,0,0,0,.379.971,1.7569,1.7569,0,0,0,1.26.373,4.8454,4.8454,0,0,0,2.101-.797,35.81,35.81,0,0,0,3.887-2.762q2.499-1.9665,6.346-5.277c1.758-1.512,3.816-3.315,6.135-5.366l11.114-102.929a27.847,27.847,0,0,1-4.75,1.971A115.9617,115.9617,0,0,1,148.982,109.7093ZM87,85.2883c-48.0485,0-87,5.3724-87,12s38.9515,12,87,12,87-5.3724,87-12S135.0485,85.2883,87,85.2883Zm34.738,15.507c0,1.555-4.629,2.816-10.34,2.816s-10.339-1.261-10.339-2.816,4.629-2.817,10.339-2.817S121.738,99.2393,121.738,100.7953Z" style="fill:#da4648;fill-rule:evenodd"/><path   d="M103.1528,99.55a.4667.4667,0,0,0-.0778.25c0,1.007,3.727,1.822,8.323,1.822s8.323-.815,8.323-1.822l10.871-44.078,43.233-45.6448c.0142-.0139.0278-.0283.041-.0432.915-1.035-.942-4.238-4.023-6.985s-6.408-3.677-7.442-2.631l-.0226.0238L116.251,48.98Z" style="fill:#da4648;fill-rule:evenodd"/></g></g></svg>
