<svg aria-hidden="true" xmlns="http://www.w3.org/2000/svg" xml:space="preserve" viewBox="0 0 225 225"><g stroke-width="0" stroke="none" stroke-linejoin="round"><path fill="#8087E8" d="M41.5 0 30.3 26.2 15.6 60.7l34.3-14.5L68 38.5z" transform="matrix(3 0 0 3 10 13.4)"/><path fill="#30426B" d="m47.3 31.7 2.6 14.5L68 38.5z" transform="matrix(3 0 0 3 10 13.4)"/><path fill="#6699A1" d="m41.5 0 5.8 31.7L68 38.5z" transform="matrix(3 0 0 3 10 13.4)"/><path fill="#78758C" d="M47.3 31.7 68 38.5 30.3 26.2 15.6 60.7l34.3-14.5z" transform="matrix(3 0 0 3 10 13.4)"/><path fill="#A3EDBA" d="m15.6 60.7 14.7-34.5L0 16.3z" transform="matrix(3 0 0 3 10 13.4)"/><path fill="#6699A1" d="m49.9 46.2 3.3 18.4L68 38.5z" transform="matrix(3 0 0 3 10 13.4)"/><path fill="#8087E8" d="M41.5 0 30.3 26.2l17 5.5z" transform="matrix(3 0 0 3 10 13.4)"/></g></svg>