<svg xmlns="http://www.w3.org/2000/svg" viewBox="0 0 255.1 289.3"><g data-name="Layer 2"><g data-name="Layer 1"><path d="M255.1 0 232 260.4l-104.5 29-104.2-29L0 0Z" fill="#e44d26"/><path d="m127.6 267.2 84.4-23.4 19.8-222.5H127.6Z" fill="#f16529"/><path d="M82.4 85.2h45.2v-32H47.5l.7 8.6 7.9 88h71.5v-32H85.3Zm7.2 80.6h-32l4.4 50.1 65.4 18.2h.2v-33.3h-.2l-35.6-9.6z" fill="#ebebeb"/><path d="M127.4 149.8h39.4l-3.7 41.4-35.7 9.6v33.3l65.5-18.2.5-5.4 7.5-84 .8-8.6h-74.3zm0-64.7h77.2l.6-7.1 1.5-16.2.7-8.6h-80z" fill="#fff"/></g></g></svg>