<svg xmlns="http://www.w3.org/2000/svg" viewBox="0 0 801.2 884.9"><g data-name="Layer 2"><g data-name="Layer 1"><path d="M751 435.7a82.4 82.4 0 0 0-91-82L773.2 20.2H292.4l113 333.4-5-.2a82.4 82.4 0 0 0-25 160.9 360 360 0 0 1-64.8 81.5 330 330 0 0 1-115.4 71.6c-50.3-25.8-74-83.3-52.6-133.7q3.7-8.4 7.2-17.2a82.4 82.4 0 1 0-66-12.7C63.4 550 33.4 598.7 24 655c-11.2 67.5 0 139 58.3 179.5 136 94.2 283.4-58.4 439-96.7 56.4-14 118.2-11.7 167.9-40.5a141 141 0 0 0 68.9-97.5c6.9-39.8-3.2-79.3-26.3-111.3a82 82 0 0 0 19.1-52.8" fill="#99425b"/><path d="M738.3 596.3c-6 34.9-27.6 65.4-59 83.6-29.5 17-64.7 22.1-102 27.5-20 2.9-40.6 5.9-60.7 10.8-53.4 13.2-105 38.9-155 63.7-100 49.6-186.3 92.5-267.7 36-59.7-41.2-57-117.7-50-159.6 6.5-38.9 23.9-74.6 40.7-109.2l8.6-17.7a102 102 0 0 0 26.4 6.7c-17.1 56.5 9.8 118 66.4 147.1l7.7 4 8.2-3c44.8-15.9 86-41.4 122.5-76A382 382 0 0 0 385 537a102.5 102.5 0 0 0 117-87.8c21.2-.8 43.8-.8 65.1 0a102.4 102.4 0 0 0 160 70.6 125 125 0 0 1 11.2 76.5M131.1 374a62.2 62.2 0 0 1 4.2 124.3l-4.2.2a62.2 62.2 0 1 1 0-124.5m207 61.7a62.2 62.2 0 1 1 68.6 61.9q-3.1.3-6.3.3a62.3 62.3 0 0 1-62.3-62.2m259.8-74a103 103 0 0 0-28.2 47.3q-35.2-1.3-70.4 0a103 103 0 0 0-30.8-49.8l64.4-130.3ZM320.5 40.1H745L644.8 336a102 102 0 0 0-12.7 4l-99-202.1-99.4 200.9a102 102 0 0 0-13.3-3.6Zm410.4 395.5a62.2 62.2 0 1 1-62.2-62.3q3 0 5.8.3a62.3 62.3 0 0 1 56.4 62m40.3 0A102.6 102.6 0 0 0 687.6 335L801.2 0H264.4L378 335.7a102.4 102.4 0 0 0-31.8 187 343 343 0 0 1-49.5 58.3 311 311 0 0 1-99.9 64.2c-36.4-23-51.8-66-35.8-103.7l1.3-3 2.3-5.5a102.5 102.5 0 1 0-105.5-23.8q-5.3 11.2-10.8 22.3c-17.2 35.4-36.8 75.6-44.2 120.2C-10.4 740.3 13.2 811 71 851a182 182 0 0 0 106.3 33.8c67.4 0 135.5-33.9 202.2-67 48-23.8 97.7-48.5 146.7-60.6 18.2-4.5 37-7.2 56.9-10 39.4-5.8 80.2-11.6 116.3-32.5 41.8-24.3 70.5-65 78.6-111.6 7-40-1.4-80.2-21.8-114.2a102 102 0 0 0 15-53.3" fill="#fff"/></g></g></svg>