<svg xmlns="http://www.w3.org/2000/svg" viewBox="0 0 801.2118 884.8614"><g id="Layer_2" data-name="Layer 2"><g id="Layer_1-2" data-name="Layer 1"><path d="M751.0485,435.6681a82.35,82.35,0,0,0-91.0213-81.9041L773.1517,20.1155H292.412L405.38,353.4724q-2.5-.1575-5.0069-.163a82.37,82.37,0,0,0-25.01,160.8485,359.7783,359.7783,0,0,1-64.7608,81.5059c-34.1236,32.1892-73.1757,56.6-115.4132,71.64-50.2887-25.8341-74.0347-83.2867-52.6087-133.66,2.42-5.69,4.8909-11.456,7.2517-17.1966A82.3744,82.3744,0,1,0,83.78,503.6926c-20.3851,46.4136-50.3514,94.99-59.688,151.2893-11.1895,67.47-.0376,139.09,58.3179,179.5375,135.9049,94.1941,283.4288-58.3932,438.9726-96.7524,56.371-13.8984,118.25-11.66,167.9153-40.4222,37.2964-21.6016,61.8858-57.4025,68.8617-97.5927,6.8974-39.7042-3.154-79.236-26.2668-111.29a82.011,82.011,0,0,0,19.1561-52.7937" style="fill:#99425b"/><path d="M738.3415,596.31c-6.0572,34.8948-27.6086,65.3721-59.1237,83.6284-29.38,17.0148-64.5852,22.0938-101.8628,27.4675-19.9681,2.8782-40.6166,5.86-60.7884,10.8322-53.3361,13.1522-104.9981,38.8138-154.9544,63.629-99.9817,49.6616-186.3252,92.545-267.74,36.1175-59.6379-41.3314-56.8852-117.8053-49.9376-159.71,6.44-38.8264,23.85-74.5834,40.6825-109.1615q4.3017-8.8152,8.534-17.6638a101.7514,101.7514,0,0,0,26.4705,6.64c-17.137,56.5559,9.8132,118.05,66.3755,147.1069l7.7439,3.9786,8.1954-2.9189c44.7175-15.9268,85.9234-41.4787,122.47-75.9629a381.9417,381.9417,0,0,0,60.6318-73.2948A102.4782,102.4782,0,0,0,501.9314,449.212c21.25-.7775,43.8208-.7838,65.1935-.0062a102.3755,102.3755,0,0,0,159.99,70.586A125.0352,125.0352,0,0,1,738.3415,596.31ZM131.0524,374.0142a62.241,62.241,0,0,1,4.2764,124.3329c-1.414.094-2.84.163-4.2764.163a62.248,62.248,0,1,1,0-124.4959ZM338.13,435.6712a62.2416,62.2416,0,1,1,68.5261,61.9328q-3.0945.31-6.28.3136a62.3323,62.3323,0,0,1-62.2464-62.2464ZM597.9282,361.649A102.5881,102.5881,0,0,0,569.74,409.0439q-35.1933-1.2975-70.41,0a102.6885,102.6885,0,0,0-30.8724-49.8686L532.87,228.9327ZM320.4689,40.2372H745.0916L644.8,336.0281a101.8232,101.8232,0,0,0-12.7007,3.9347L533.0264,137.8581,433.6717,338.7558a101.8835,101.8835,0,0,0-13.2493-3.571ZM730.93,435.6743a62.2016,62.2016,0,1,1-62.2462-62.2463c1.9657,0,3.9033.1,5.8252.2821a62.32,62.32,0,0,1,56.4242,61.9642Zm40.2341,0A102.6292,102.6292,0,0,0,687.6359,334.981L801.2118,0H264.355L378.1065,335.6582a102.4258,102.4258,0,0,0-31.7628,187.0337,343.432,343.432,0,0,1-49.5425,58.34c-30.123,28.4144-63.6791,49.9658-99.8562,64.1463-36.44-22.89-51.8438-66.0588-35.848-103.6624l1.2541-2.9471,2.3514-5.53a102.5494,102.5494,0,1,0-105.54-23.8276q-5.2784,11.1838-10.7161,22.2913c-17.253,35.431-36.8042,75.59-44.2,120.1881C-10.4394,740.26,13.25,811.0618,70.9536,851.0514c35.014,24.2664,70.5735,33.81,106.3556,33.81,67.3755,0,135.5349-33.8508,202.1987-66.9648,48.0094-23.8433,97.6554-48.5017,146.6931-60.5973,18.247-4.499,37.02-7.2078,56.8977-10.0734,39.4189-5.6872,80.1766-11.5658,116.2816-32.4745,41.8519-24.2413,70.4982-64.905,78.6-111.5568,6.9538-40.0522-1.414-80.1672-21.8242-114.19a101.857,101.857,0,0,0,15.0082-53.333Z" style="fill:#fff"/></g></g></svg>