<svg xmlns="http://www.w3.org/2000/svg" xmlns:xlink="http://www.w3.org/1999/xlink" viewBox="0 0 71.8 71.7"><defs><linearGradient id="linear-gradient" x1="53.9479" y1="1815.2877" x2="39.2379" y2="1830.4577" gradientTransform="translate(0 -1798)" gradientUnits="userSpaceOnUse"><stop offset="0.18" stop-color="#0050d3"/><stop offset="1" stop-color="#0082ff"/></linearGradient><linearGradient id="linear-gradient-2" x1="37.7576" y1="1832.5565" x2="20.7476" y2="1849.1065" xlink:href="#linear-gradient"/></defs><g id="Layer_2" data-name="Layer 2"><g id="Layer_1-2" data-name="Layer 1"><path d="M68.8,0H34.2A15.62,15.62,0,0,0,49.8,15.6h6.4v6.1A15.62,15.62,0,0,0,71.8,37.3h0V3a3.0085,3.0085,0,0,0-3-3Z" style="fill:#0082ff"/><path d="M51.7,17.2H17.1A15.62,15.62,0,0,0,32.7,32.8h6.4V39A15.62,15.62,0,0,0,54.7,54.6V20.3a3.0967,3.0967,0,0,0-3-3.1Z" style="fill:url(#linear-gradient)"/><path d="M34.6,34.4H0A15.62,15.62,0,0,0,15.6,50h6.3v6.1A15.62,15.62,0,0,0,37.5,71.7h0V37.3A2.9009,2.9009,0,0,0,34.6,34.4Z" style="fill:url(#linear-gradient-2)"/></g></g></svg>