<svg xmlns="http://www.w3.org/2000/svg" xmlns:xlink="http://www.w3.org/1999/xlink" viewBox="0 0 71.8 71.7"><defs><linearGradient id="a" x1="53.9" y1="1815.3" x2="39.2" y2="1830.5" gradientTransform="translate(0 -1798)" gradientUnits="userSpaceOnUse"><stop offset=".2" stop-color="#0050d3"/><stop offset="1" stop-color="#0082ff"/></linearGradient><linearGradient id="b" x1="37.8" y1="1832.6" x2="20.7" y2="1849.1" xlink:href="#a"/></defs><g data-name="Layer 2"><g data-name="Layer 1"><path d="M68.8 0H34.2a15.6 15.6 0 0 0 15.6 15.6h6.4v6.1a15.6 15.6 0 0 0 15.6 15.6V3a3 3 0 0 0-3-3" fill="#0082ff"/><path d="M51.7 17.2H17.1a15.6 15.6 0 0 0 15.6 15.6h6.4V39a15.6 15.6 0 0 0 15.6 15.6V20.3a3 3 0 0 0-3-3.1" fill="url(#a)"/><path d="M34.6 34.4H0A15.6 15.6 0 0 0 15.6 50h6.3v6.1a15.6 15.6 0 0 0 15.6 15.6V37.3a3 3 0 0 0-2.9-2.9" fill="url(#b)"/></g></g></svg>