<svg xmlns="http://www.w3.org/2000/svg" viewBox="0 0 51.4604 49.571"><g id="Layer_2" data-name="Layer 2"><g id="Layer_1-2" data-name="Layer 1"><path d="M3.27,11.6436C-1.2872,18.1905-.7237,26.708,2.7626,33.6651c.0782.17.168.3305.2536.4946.0487.1064.1044.2129.1644.3174a1.8408,1.8408,0,0,0,.1006.1772c.0562.1138.1157.2183.1753.3267.1123.1885.2241.38.3359.5674.0635.1045.1236.2089.1944.3134.1191.2017.2574.4009.3808.6026.0557.0859.1079.17.168.2539.1787.2724.3584.5415.5561.8061a.0239.0239,0,0,0,.0147.0186c.03.0449.0635.0879.0933.1289.1679.23.3359.4536.5117.6758.0595.082.1264.164.1865.2441.16.1944.3174.3882.4736.5806.06.0688.12.1421.1831.2129.209.2519.4292.5019.6534.7485l.0112.0147a.104.104,0,0,0,.03.0278c.2163.2373.4365.47.6606.7017.0708.0712.1416.14.22.2148.1714.1738.3434.3491.5264.5205.0747.0713.149.14.22.209.2388.2241.4776.4482.7276.6626l.0112.0093c.041.0356.086.0713.1235.1064q.33.2827.6641.56c.09.0747.1792.1455.269.2182.1865.1475.3731.2891.56.4312.0972.0727.1943.1474.2949.2241.2017.1509.4107.2983.6157.4439.0747.0541.1495.1083.2282.1586.0184.0166.041.0318.0594.0469.2051.1343.3994.2647.6011.3975.09.0576.1753.1137.2612.1714.3135.2.627.3921.9371.5786.0893.0469.1787.0971.2646.1474.2314.1343.4668.2671.7056.3941.13.0727.2612.1362.3955.2031.1606.0879.3286.1773.5.2651a1.0983,1.0983,0,0,1,.1191.0523c.0709.0317.1382.0674.2051.1006.2618.1289.53.2505.8066.3735.0523.0244.1079.0464.1642.0747.3095.1343.6195.2632.937.3882.0746.0278.1488.0615.2274.0874.2876.1123.586.2222.8809.3286.0377.0152.0708.0264.1084.0391.3281.1123.6528.2182.9853.3213.0782.0224.1568.05.2388.0708a9.88,9.88,0,0,0,1.0152.2876c22.0327,4.0161,28.434-13.2412,28.434-13.2412-5.3784,7-14.9223,8.85-23.9624,6.7929-.3359-.0761-.6679-.1826-1.0078-.2837-.0786-.0224-.168-.0483-.2466-.0761-.3281-.0992-.6528-.2056-.97-.314-.0449-.0147-.0932-.0313-.1382-.05-.2871-.0986-.5708-.207-.8545-.3169-.0786-.0337-.1606-.062-.2392-.0918-.3135-.123-.6231-.2554-.9253-.3882-.0674-.0239-.1235-.0522-.187-.0781-.2647-.1216-.5186-.2407-.7764-.3643-.0781-.0332-.1489-.0708-.2274-.11-.2018-.0952-.403-.2017-.6007-.3062-.1382-.0708-.273-.1362-.4033-.209-.2427-.13-.4854-.2685-.728-.4028a2.7974,2.7974,0,0,0-.2427-.14c-.3135-.1865-.6309-.3789-.9405-.5767-.0893-.0561-.1718-.1123-.2538-.17-.2276-.1436-.4517-.2949-.6719-.4443-.0708-.05-.1416-.1026-.2164-.1548-.2127-.1494-.4217-.3-.6342-.4556q-.1349-.1062-.28-.2124c-.19-.1475-.3809-.293-.5708-.4463-.0824-.0688-.168-.1362-.25-.2031-.2462-.1978-.4776-.396-.713-.6011a.6626.6626,0,0,0-.082-.0654c-.25-.2236-.5-.4531-.7466-.6812-.0747-.0708-.1377-.1362-.2124-.2036-.1792-.1753-.3584-.3467-.5337-.5244-.0747-.0742-.1421-.1435-.2129-.2143q-.3361-.3392-.6606-.6978a.306.306,0,0,1-.0337-.0337c-.2276-.25-.4478-.5039-.668-.7617-.06-.0689-.1157-.14-.1753-.207-.1606-.1978-.3213-.3975-.4853-.5953-.0523-.0766-.1123-.1494-.1719-.2241-.19-.2446-.3731-.4887-.5562-.7407C4.621,24.3281,2.811,14.8833,6.8237,7.1328" style="fill:#0769ad"/><path d="M17.4165,6.125c-3.3038,4.74-3.1207,11.0874-.5489,16.1035a19.6563,19.6563,0,0,0,1.4556,2.43,11.2945,11.2945,0,0,0,1.6982,2.1182c.2315.2612.4815.5151.7393.77.0635.0635.1269.1255.1938.1924.2467.2368.4967.47.7539.6977.0079.01.0225.0191.03.0283l.0073.0054c.2872.2539.5787.4946.8809.73.0708.05.1343.1064.2051.1567.2988.2334.605.4571.9145.6773.0113.0039.0187.0112.0337.0171.1343.0966.276.1865.422.28.063.041.13.0893.1937.1289.2276.1474.4517.2851.6831.4218.0337.0166.0669.0352.1006.0518.1944.1177.3994.2334.605.3379.0708.043.1416.0766.2124.1157.1422.0708.2837.1455.4219.2183.0185.01.0449.02.0674.03.291.1436.5859.2759.8769.4087.0708.0279.131.0523.1978.08.2392.1026.4814.2036.7207.2949.1079.0357.209.0782.31.1138.22.0781.4443.1548.6645.2275.1079.0357.2051.0655.3024.0972a6.6067,6.6067,0,0,0,.9627.2778c17.0054,2.82,20.94-10.2793,20.94-10.2793C47.9184,27.96,41.0615,30.39,33.746,28.49q-.4929-.126-.9633-.28c-.1-.0259-.19-.0576-.2871-.0913-.2276-.0728-.4556-.1494-.6758-.2315-.1006-.0371-.2051-.0747-.3056-.1137-.2428-.0953-.4854-.1885-.7208-.293a2.0433,2.0433,0,0,1-.1938-.082c-.3023-.1309-.6011-.271-.8921-.4107-.1493-.0766-.295-.1514-.4443-.23-.0894-.0449-.1754-.0879-.254-.1289-.1977-.1025-.3808-.2109-.5674-.3208-.0444-.0244-.0893-.0469-.1342-.0732-.2276-.1377-.4629-.2759-.6792-.42-.0747-.0425-.1382-.0914-.209-.1358-.1494-.0952-.2949-.19-.4482-.293-.31-.2148-.6119-.4423-.914-.67-.0714-.0576-.1383-.11-.2057-.166a20.4314,20.4314,0,0,1-6.95-9.8965A15.3669,15.3669,0,0,1,20.1,2.3252" style="fill:#0769ad"/><path d="M29.3082,2.0025a9.9085,9.9085,0,0,0-.7917,9.5644,13.4892,13.4892,0,0,0,7.7378,7.2261c.1377.0542.2759.0991.418.1475.0635.0185.1231.039.19.0595a5.64,5.64,0,0,0,.6006.1758c9.3946,1.814,11.9405-4.8208,12.6236-5.7969C47.851,16.5928,44.1,17.3633,39.4975,16.2456A11.0459,11.0459,0,0,1,38.3892,15.9c-.4478-.1587-.8922-.3432-1.3253-.5469A13.92,13.92,0,0,1,34.746,13.937C30.6254,10.813,28.0727,4.854,30.76,0" style="fill:#0769ad"/></g></g></svg>