<svg xmlns="http://www.w3.org/2000/svg" viewBox="0 0 51.5 49.6"><g data-name="Layer 2"><g data-name="Layer 1" fill="#0769ad"><path d="M3.3 11.6c-4.6 6.6-4 15.1-.5 22l.2.6.2.3v.2l.3.3q0 .3.3.5l.2.4.4.6.1.2.6.8.1.2.5.6.2.3.5.6.2.2.6.7 1 1 .5.5.2.2.7.7.1.1.7.6.3.2.5.4.3.2.6.5.3.1.6.5.3.2 1.9 1 .4.3.5.2h.1l.2.2.8.4h.2l1 .4.2.1 2 .7h.2l1 .4c22 4 28.4-13.3 28.4-13.3-5.4 7-15 8.9-24 6.8l-1-.3H25l-2-.7-.2-.1-1-.4h-.1l-.8-.4-.2-.2-.6-.3-.4-.2-.7-.4-.3-.1-1.9-1.2-.2-.2-.6-.4-.3-.2-.6-.5-.2-.2-.7-.6H14l-.8-.7q0-.2-.2-.2l-.5-.6-.2-.2-.7-.7-.7-.8-.1-.2-.5-.6-.2-.2-.6-.7c-5-6.9-6.8-16.3-2.8-24"/><path d="M17.4 6.1a16 16 0 0 0-.5 16.1l1.4 2.5 1.7 2 .8.8q0 .2.2.2l.7.7 1 .8.1.2 1 .6.4.3.2.2.7.4.7.4h.2l.4.3 1 .4.9.4.3.1.7.3h.3l1 .3C47.5 36 51.4 23 51.4 23c-3.6 5-10.4 7.5-17.8 5.6l-1-.3h-.2l-.7-.3-.3-.1-.7-.3-.2-.1-1.3-.6-.3-.2-.6-.3-.8-.5-.2-.1-1.3-1-.2-.1a20 20 0 0 1-7-10A15 15 0 0 1 20 2.4"/><path d="M29.3 2a10 10 0 0 0-.8 9.6 14 14 0 0 0 7.8 7.2l.4.1.2.1.6.2c9.4 1.8 11.9-4.8 12.6-5.8q-3.5 4.7-10.6 2.8l-1.1-.3-1.3-.5-2.4-1.5c-4-3-6.6-9-4-13.9"/></g></g></svg>