<svg xmlns="http://www.w3.org/2000/svg" viewBox="0 0 99.7 100"><g id="Layer_2" data-name="Layer 2"><g id="Layer_1-2" data-name="Layer 1"><g id="Page-1"><g id="jwt_logo" data-name="jwt logo"><g id="Group"><g id="Shape"><path d="M57.4,26.9,57.3,0h-15l.1,26.9,7.5,10.3Z" style="fill:#fff;fill-rule:evenodd"/><path d="M42.4,73v27h15V73L49.9,62.7Z" style="fill:#fff;fill-rule:evenodd"/><path d="M57.4,73,73.2,94.8,85.3,86,69.5,64.2,57.4,60.3Z" style="fill:#00f2e6;fill-rule:evenodd"/><path d="M42.4,26.9,26.5,5.1,14.4,13.9,30.2,35.7l12.2,3.9Z" style="fill:#00f2e6;fill-rule:evenodd"/><path d="M30.2,35.7,4.6,27.4,0,41.6,25.6,50l12.1-4Z" style="fill:#00b9f1;fill-rule:evenodd"/><path d="M62,53.9l7.5,10.3,25.6,8.3,4.6-14.2L74.1,50Z" style="fill:#00b9f1;fill-rule:evenodd"/><path d="M74.1,50l25.6-8.4L95.1,27.4,69.5,35.7,62,46Z" style="fill:#d63aff;fill-rule:evenodd"/><path d="M25.6,50,0,58.3,4.6,72.5l25.6-8.3,7.5-10.3Z" style="fill:#d63aff;fill-rule:evenodd"/><path d="M30.2,64.2,14.4,86l12.1,8.8L42.4,73V60.3Z" style="fill:#fb015b;fill-rule:evenodd"/><path d="M69.5,35.7,85.3,13.9,73.2,5.1,57.4,26.9V39.6Z" style="fill:#fb015b;fill-rule:evenodd"/></g></g></g></g></g></g></svg>
