<svg xmlns="http://www.w3.org/2000/svg" viewBox="0 0 100 100"><g data-name="Layer 2"><g data-name="Layer 1"><circle cx="50" cy="50" r="50" fill="#231f20"/><path d="M54.5 36.1V20h-9l.1 16.1 4.5 6.2Zm-9 27.7V80h9V63.8L50 57.6Z" fill="#fff" fill-rule="evenodd"/><path d="M54.5 63.8 64 76.9l7.3-5.3-9.5-13.1-7.3-2.3Zm-9-27.7L35.9 23l-7.3 5.3 9.5 13.1 7.3 2.3v-7.6Z" fill="#00f2e6" fill-rule="evenodd"/><path d="m38.2 41.4-15.4-5L20 45l15.4 5 7.3-2.4Zm19.1 10.9 4.5 6.2 15.4 5L80 55l-15.4-5Z" fill="#00b9f1" fill-rule="evenodd"/><path d="M64.6 50 80 45l-2.8-8.5-15.4 5-4.5 6.2Zm-29.2 0L20 55l2.8 8.5 15.4-5 4.5-6.2Z" fill="#d63aff" fill-rule="evenodd"/><path d="m38.2 58.5-9.5 13.1 7.3 5.3 9.6-13.1v-7.6Zm23.6-17.1 9.5-13.1L64 23l-9.5 13.1v7.6Z" fill="#fb015b" fill-rule="evenodd"/></g></g></svg>