<?xml version="1.0" encoding="utf-8"?>
<!-- Generator: Adobe Illustrator 24.1.1, SVG Export Plug-In . SVG Version: 6.00 Build 0)  -->
<svg version="1.1" id="Artboard" xmlns="http://www.w3.org/2000/svg" xmlns:xlink="http://www.w3.org/1999/xlink" x="0px" y="0px"
	 viewBox="0 0 100 100" style="enable-background:new 0 0 100 100;" xml:space="preserve">
<style type="text/css">
	.st0{fill-rule:evenodd;clip-rule:evenodd;fill:#231F20;}
	.st1{fill-rule:evenodd;clip-rule:evenodd;fill:#FFFFFF;}
	.st2{fill-rule:evenodd;clip-rule:evenodd;fill:#00F2E6;}
	.st3{fill-rule:evenodd;clip-rule:evenodd;fill:#00B9F1;}
	.st4{fill-rule:evenodd;clip-rule:evenodd;fill:#D63AFF;}
	.st5{fill-rule:evenodd;clip-rule:evenodd;fill:#FB015B;}
</style>
<g id="Circle">
	<circle class="st0" cx="50" cy="50" r="50"/>
</g>
<g id="Logo">
	<path class="st1" d="M54.5,36.1L54.5,20h-9l0.1,16.1l4.5,6.2L54.5,36.1z"/>
	<path class="st1" d="M45.5,63.8V80h9V63.8L50,57.6L45.5,63.8z"/>
	<path class="st2" d="M54.5,63.8l9.5,13.1l7.3-5.3l-9.5-13.1l-7.3-2.3V63.8z"/>
	<path class="st2" d="M45.5,36.1l-9.6-13.1l-7.3,5.3l9.5,13.1l7.3,2.3V36.1z"/>
	<path class="st3" d="M38.2,41.4l-15.4-5L20,45l15.4,5l7.3-2.4L38.2,41.4z"/>
	<path class="st3" d="M57.3,52.3l4.5,6.2l15.4,5L80,55l-15.4-5L57.3,52.3z"/>
	<path class="st4" d="M64.6,50L80,45l-2.8-8.5l-15.4,5l-4.5,6.2L64.6,50z"/>
	<path class="st4" d="M35.4,50L20,55l2.8,8.5l15.4-5l4.5-6.2L35.4,50z"/>
	<path class="st5" d="M38.2,58.5l-9.5,13.1l7.3,5.3l9.6-13.1v-7.6L38.2,58.5z"/>
	<path class="st5" d="M61.8,41.4l9.5-13.1l-7.3-5.3l-9.5,13.1v7.6L61.8,41.4z"/>
</g>
</svg>
