<svg xmlns="http://www.w3.org/2000/svg" viewBox="0 0 100 100"><g id="a36a0a97-8cf2-4d7f-9125-4828604227fb" data-name="Layer 2"><g id="adf38d27-c908-4625-85da-3070cf9864d6" data-name="Layer 1"><circle cx="50" cy="50" r="50" fill="#231f20"/><path d="M54.5,36.1V20h-9l.1,16.1,4.5,6.2Z" fill="#fff" fill-rule="evenodd"/><path d="M45.5,63.8V80h9V63.8L50,57.6Z" fill="#fff" fill-rule="evenodd"/><path d="M54.5,63.8,64,76.9l7.3-5.3L61.8,58.5l-7.3-2.3Z" fill="#00f2e6" fill-rule="evenodd"/><path d="M45.5,36.1,35.9,23l-7.3,5.3,9.5,13.1,7.3,2.3V36.1Z" fill="#00f2e6" fill-rule="evenodd"/><path d="M38.2,41.4l-15.4-5L20,45l15.4,5,7.3-2.4Z" fill="#00b9f1" fill-rule="evenodd"/><path d="M57.3,52.3l4.5,6.2,15.4,5L80,55,64.6,50Z" fill="#00b9f1" fill-rule="evenodd"/><path d="M64.6,50,80,45l-2.8-8.5-15.4,5-4.5,6.2Z" fill="#d63aff" fill-rule="evenodd"/><path d="M35.4,50,20,55l2.8,8.5,15.4-5,4.5-6.2Z" fill="#d63aff" fill-rule="evenodd"/><path d="M38.2,58.5,28.7,71.6,36,76.9l9.6-13.1V56.2Z" fill="#fb015b" fill-rule="evenodd"/><path d="M61.8,41.4l9.5-13.1L64,23,54.5,36.1v7.6Z" fill="#fb015b" fill-rule="evenodd"/></g></g></svg>