<svg xmlns="http://www.w3.org/2000/svg" viewBox="0 0 36 32" fill="none" class="prefix__css-1170n61"><path fill-rule="evenodd" clip-rule="evenodd" d="M30.3 22a1 1 0 0 0 .5-.9v-5.8a1 1 0 0 1 .6-.8l3.1-1.8a1 1 0 0 1 1.5.8V24a1 1 0 0 1-.5 1l-11.8 6.7a1 1 0 0 1-1 0l-9.3-5.3a1 1 0 0 1-.5-.9v-5.3l7.7-4.4v-5.2a1 1 0 0 0-1.5-.9L13.4 13a1 1 0 0 1-1 0L6.7 9.7a1 1 0 0 0-1.5.9V20a1 1 0 0 1-1.5.8L.5 19a1 1 0 0 1-.5-.8V1.7A1 1 0 0 1 1.5 1l10.9 6a1 1 0 0 0 1 0L24.2.9a1 1 0 0 1 1.5.8v16.5a1 1 0 0 1-.5.8l-5.7 3.3a1 1 0 0 0 0 1.7l3.2 1.8a1 1 0 0 0 1 0zM31 7.2a1 1 0 0 0 1.5.9l3-1.8a1 1 0 0 0 .5-.9V1.8a1 1 0 0 0-1.5-.9l-3 1.8a1 1 0 0 0-.5.9z" fill="#007FFF"/></svg>