<svg xmlns="http://www.w3.org/2000/svg" viewBox="0 0 168.0264 114.114"><g id="Layer_2" data-name="Layer 2"><g id="Layer_1-2" data-name="Layer 1"><path d="M114.8584,11.5734a7.4718,7.4718,0,0,0-1.9189.2349v.0942h.0918a15.8006,15.8006,0,0,0,1.498,1.92c.377.749.7041,1.4951,1.0781,2.2441.0469-.0454.0918-.0942.0918-.0942a2.6277,2.6277,0,0,0,.9864-2.34,10.5491,10.5491,0,0,1-.5625-.9829c-.28-.4673-.89-.7012-1.2647-1.0762" style="fill:#5d87a1;fill-rule:evenodd"/><path d="M40.3975,103.9577H33.9141q-.3427-16.4136-1.8936-30.8721h-.0566l-9.8711,30.8721H17.1563L7.3447,73.0856H7.2871q-1.0912,13.8869-1.376,30.8721H0Q.5727,83.2991,2.8682,65.2224h8.0351l9.3535,28.4619h.0577l9.4111-28.4619h7.6885q2.5254,21.1728,2.9834,38.7353" style="fill:#00758f"/><path d="M68.5156,75.38q-3.9594,21.4863-10.4443,31.2285-5.0523,7.5058-11.0752,7.5059a10.9059,10.9059,0,0,1-3.959-.9639V109.697a18.7887,18.7887,0,0,0,2.6973.1719,6.5206,6.5206,0,0,0,4.5342-1.5518,5.6553,5.6553,0,0,0,2.0644-4.2451,28.2993,28.2993,0,0,0-1.6064-6.5977L43.6113,75.38h6.3692L55.0869,91.904q1.7212,5.628,1.4346,7.8643A107.8982,107.8982,0,0,0,62.376,75.38Z" style="fill:#00758f"/><polygon points="154.82 103.958 136.4 103.958 136.4 65.222 142.599 65.222 142.599 99.193 154.82 99.193 154.82 103.958" style="fill:#f29111"/><path d="M131.5811,104.8923l-7.12-3.5108a13.3479,13.3479,0,0,0,1.7812-1.73q4.5338-5.3306,4.5352-15.7783,0-19.2217-15.0918-19.2256-7.4019,0-11.5352,4.88Q99.6153,74.8635,99.6172,85.25q0,10.2144,4.0156,14.9776,3.6738,4.3021,11.0772,4.3037a17.8542,17.8542,0,0,0,5.0713-.6807l9.2714,5.3955Zm-23.0684-8.6836q-2.3539-3.7866-2.3545-12.1631,0-14.6323,8.8945-14.6348a7.4687,7.4687,0,0,1,6.83,3.4991q2.3511,3.7895,2.3526,12.0517,0,14.7481-8.8946,14.75a7.4557,7.4557,0,0,1-6.8281-3.5029" style="fill:#f29111;fill-rule:evenodd"/><path d="M96.916,93.2214a10.2831,10.2831,0,0,1-3.6133,8.0918q-3.6123,3.1509-9.6943,3.1543A19.4342,19.4342,0,0,1,72.5908,100.85l1.6641-3.3272a18.8831,18.8831,0,0,0,8.3184,2.294,8.727,8.727,0,0,0,5.4794-1.5449A5.2738,5.2738,0,0,0,90.1611,93.97c0-2.3008-1.6044-4.2666-4.5468-5.915-2.7178-1.4912-8.1475-4.6045-8.1475-4.6045-2.9424-2.1455-4.417-4.4492-4.417-8.2432a9.6349,9.6349,0,0,1,3.2969-7.6035,12.4429,12.4429,0,0,1,8.5225-2.9,17.64,17.64,0,0,1,9.81,2.8721L93.1836,70.9a18.9993,18.9993,0,0,0-7.4551-1.6045,6.6425,6.6425,0,0,0-4.5879,1.4375,4.796,4.796,0,0,0-1.7373,3.67c0,2.294,1.6387,4.2842,4.6641,5.9649,2.7519,1.4922,8.3144,4.665,8.3144,4.665,3.0264,2.1426,4.5342,4.4258,4.5342,8.1885" style="fill:#f29111"/><path d="M162.5977,52.2468a21.6426,21.6426,0,0,0-9.08,1.31c-.7022.28-1.8233.28-1.92,1.17.3769.374.4218.9814.7519,1.499a10.9248,10.9248,0,0,0,2.4326,2.8545c.9825.749,1.9659,1.4951,2.9971,2.15,1.8233,1.1279,3.8838,1.78,5.6592,2.9043,1.0332.6543,2.06,1.496,3.0928,2.2.5127.3741.8379.9834,1.4951,1.2149v-.1416c-.3291-.42-.4219-1.0283-.7471-1.499-.4678-.4649-.9365-.8887-1.4053-1.3545a22.3015,22.3015,0,0,0-4.8662-4.7256c-1.499-1.0322-4.7773-2.4365-5.3828-4.1631,0,0-.0488-.05-.0947-.0957a18.8088,18.8088,0,0,0,3.23-.7539c1.5888-.42,3.04-.3252,4.6777-.7451.75-.1885,1.499-.4239,2.251-.6543v-.4238c-.8467-.8409-1.4522-1.9659-2.3418-2.7608a62.6694,62.6694,0,0,0-7.7227-5.7568c-1.4531-.9365-3.3252-1.542-4.87-2.34-.5586-.2812-1.4941-.42-1.8232-.8906a18.7821,18.7821,0,0,1-1.92-3.6035c-1.3554-2.5713-2.6689-5.4248-3.8369-8.1441a50.0521,50.0521,0,0,0-2.3867-5.3339c-4.8232-7.958-10.0635-12.7759-18.1133-17.5039a22.4327,22.4327,0,0,0-5.9892-1.92c-1.1719-.0493-2.3409-.14-3.5108-.186a18.6761,18.6761,0,0,1-2.1543-1.64C108.3516,1.23,101.4746-2.42,99.5078,2.4c-1.2636,3.0439,1.8721,6.0381,2.9492,7.583a21.93,21.93,0,0,1,2.3848,3.5093c.3281.7959.4219,1.64.751,2.4809a55.7887,55.7887,0,0,0,2.4336,6.273,22.1259,22.1259,0,0,0,1.73,2.8989c.3779.5181,1.0312.749,1.1718,1.5943-.6533.9345-.7041,2.3388-1.0781,3.51-1.6836,5.2891-1.0293,11.8413,1.3584,15.7251.7471,1.17,2.5274,3.7451,4.9151,2.76,2.1054-.8408,1.6377-3.5088,2.2461-5.8477.14-.5654.0459-.9365.3261-1.3105v.0947c.6543,1.3086,1.3115,2.5693,1.92,3.8838a26.7072,26.7072,0,0,0,6.086,6.2686c1.12.8457,2.01,2.2939,3.414,2.81v-.1416h-.0927a5.148,5.148,0,0,0-1.0762-.9346,23.0221,23.0221,0,0,1-2.4346-2.8086,59.9118,59.9118,0,0,1-5.24-8.5185c-.751-1.4541-1.4043-3.044-2.0137-4.4942-.28-.5586-.28-1.4038-.749-1.6836a17.5621,17.5621,0,0,0-2.2451,3.1788c-.89,2.0146-.9824,4.4951-1.3125,7.07-.1865.0488-.0928,0-.1865.0927-1.4961-.374-2.0108-1.9179-2.5743-3.2246a20.2522,20.2522,0,0,1-.4209-12.5005c.3262-.9809,1.7344-4.07,1.17-5.0058-.2823-.8931-1.2178-1.4028-1.7315-2.1079a18.53,18.53,0,0,1-1.6836-2.9951c-1.124-2.62-1.6884-5.523-2.9013-8.1431a25.01,25.01,0,0,0-2.34-3.604,23.169,23.169,0,0,1-2.5762-3.6489c-.2324-.5162-.56-1.3589-.1875-1.919a.75.75,0,0,1,.6573-.6108c.6054-.5142,2.3388.14,2.9463.4209a23.7752,23.7752,0,0,1,4.6328,2.34c.6562.4693,1.3584,1.3579,2.1992,1.5943h.9844c1.497.3247,3.1836.0908,4.5888.5136a29.9537,29.9537,0,0,1,6.7383,3.229,41.5337,41.5337,0,0,1,14.6,16.0074c.5625,1.0747.7989,2.0586,1.3125,3.18.9834,2.2984,2.2012,4.6382,3.1817,6.8824a30.7656,30.7656,0,0,0,3.3261,6.2724c.7.9815,3.51,1.4961,4.7735,2.0117a33.51,33.51,0,0,1,3.23,1.3086c1.5918.9815,3.18,2.1065,4.68,3.1846.747.5615,3.0878,1.73,3.2285,2.668" style="fill:#00758f;fill-rule:evenodd"/><path d="M167.0586,103.9538h.9678V99.2077h-1.4551l-1.1855,3.2354-1.29-3.2354h-1.4033v4.7461h.916v-3.6113h.0527l1.3506,3.6113h.6983l1.3486-3.6113Zm-7.8144,0h1.0263v-3.94h1.3447v-.8057h-3.7675v.8057h1.3965Z" style="fill:#f29111"/></g></g></svg>