<svg xmlns="http://www.w3.org/2000/svg" viewBox="0 0 168 114.1"><g data-name="Layer 2"><g data-name="Layer 1"><path d="m114.9 11.6-2 .2v.1h.1l1.5 2 1.1 2.2.1-.1a3 3 0 0 0 1-2.4l-.6-1z" fill="#5d87a1" fill-rule="evenodd"/><path d="M40.4 104h-6.5q-.3-16.5-1.9-31l-10 31h-4.8L7.3 73q-1.1 14-1.4 31H0q.6-20.7 2.9-38.8h8l9.4 28.5 9.4-28.5h7.7q2.5 21.2 3 38.8m28.1-28.6q-4 21.5-10.4 31.2-5 7.5-11.1 7.5a11 11 0 0 1-4-1v-3.4l2.7.2a7 7 0 0 0 4.6-1.6 6 6 0 0 0 2-4.2 28 28 0 0 0-1.6-6.6l-7-22.1H50l5 16.5q1.8 5.6 1.5 7.9a108 108 0 0 0 5.9-24.4Z" fill="#00758f"/><path fill="#f29111" d="M154.8 104h-18.4V65.2h6.2v34h12.2z"/><path d="m131.6 104.9-7.1-3.5 1.7-1.7q4.6-5.4 4.6-15.8 0-19.2-15.1-19.3-7.4 0-11.5 5-4.6 5.3-4.6 15.7 0 10.2 4 15 3.7 4.2 11.1 4.2a18 18 0 0 0 5-.6l9.4 5.3Zm-23-8.7q-2.4-3.8-2.4-12.2 0-14.6 8.9-14.6a8 8 0 0 1 6.8 3.5q2.3 3.8 2.3 12 0 14.8-8.9 14.8a8 8 0 0 1-6.8-3.5" fill="#f29111" fill-rule="evenodd"/><path d="M97 93.2a10 10 0 0 1-3.7 8.1q-3.6 3.2-9.7 3.2a19 19 0 0 1-11-3.7l1.7-3.3a19 19 0 0 0 8.3 2.3 9 9 0 0 0 5.5-1.5 5 5 0 0 0 2-4.3q0-3.5-4.5-6l-8.1-4.5c-3-2.2-4.5-4.5-4.5-8.3a10 10 0 0 1 3.3-7.6 12 12 0 0 1 8.6-2.9 18 18 0 0 1 9.8 2.9l-1.5 3.3a19 19 0 0 0-7.5-1.6 7 7 0 0 0-4.6 1.4 5 5 0 0 0-1.7 3.7q0 3.5 4.7 6l8.3 4.6c3 2.2 4.5 4.5 4.5 8.2" fill="#f29111"/><path d="M162.6 52.2a22 22 0 0 0-9 1.4c-.8.2-2 .2-2 1.1l.7 1.5a11 11 0 0 0 2.5 2.9l3 2.1c1.8 1.2 3.9 1.8 5.6 3l3.1 2.1q.7.8 1.5 1.2l-.7-1.6-1.4-1.3a22 22 0 0 0-4.9-4.8c-1.5-1-4.8-2.4-5.4-4.1v-.1l3.2-.8c1.5-.4 3-.3 4.6-.7l2.3-.7V53c-.9-.8-1.5-2-2.4-2.8a63 63 0 0 0-7.7-5.7c-1.4-1-3.3-1.6-4.8-2.4-.6-.2-1.5-.4-1.9-.9a19 19 0 0 1-1.9-3.6q-2-3.9-3.8-8.1l-2.4-5.3c-4.8-8-10-12.8-18.1-17.5a22 22 0 0 0-6-2l-3.5-.1-2.2-1.7c-2.6-1.7-9.5-5.3-11.5-.5-1.3 3 1.9 6 3 7.6l2.3 3.5q.5 1.2.8 2.5l2.4 6.2 1.8 3c.3.5 1 .7 1.1 1.5q-.7 1.7-1 3.5c-1.7 5.3-1 11.9 1.3 15.8.8 1.1 2.5 3.7 5 2.7 2-.8 1.6-3.5 2.2-5.8q0-.9.3-1.3l2 4a27 27 0 0 0 6 6.2c1.1.9 2 2.3 3.4 2.8v-.1l-1.2-1-2.4-2.8a60 60 0 0 1-5.2-8.5q-1.2-2.2-2-4.5c-.3-.5-.3-1.4-.8-1.6a18 18 0 0 0-2.2 3.1c-1 2-1 4.5-1.3 7.1h-.2c-1.5-.3-2-1.8-2.6-3.1a20 20 0 0 1-.4-12.5c.3-1 1.7-4.1 1.1-5-.2-1-1.2-1.4-1.7-2.1l-1.7-3c-1.1-2.7-1.7-5.6-2.9-8.2l-2.3-3.6a23 23 0 0 1-2.6-3.6c-.2-.6-.6-1.4-.2-2a1 1 0 0 1 .7-.6c.6-.5 2.3.2 3 .5a24 24 0 0 1 4.6 2.3c.6.5 1.3 1.4 2.2 1.6h1c1.4.3 3.1 0 4.5.5a30 30 0 0 1 6.8 3.2 42 42 0 0 1 14.6 16l1.3 3.2 3.2 6.9a31 31 0 0 0 3.3 6.3c.7 1 3.5 1.5 4.8 2l3.2 1.3 4.7 3.2c.7.5 3 1.7 3.2 2.6" fill="#00758f" fill-rule="evenodd"/><path d="M167 104h1v-4.8h-1.4l-1.2 3.2-1.3-3.2h-1.4v4.8h1v-3.7l1.3 3.7h.7l1.4-3.7Zm-7.8 0h1v-4h1.4v-.8h-3.8v.8h1.4Z" fill="#f29111"/></g></g></svg>