<svg xmlns="http://www.w3.org/2000/svg" viewBox="0 0 255.4 263.3"><path d="M254.7 157.7a13 13 0 0 0-10.7-8.6 25 25 0 0 0-8.6.4 77 77 0 0 1-13.3 1.8 255 255 0 0 0 27-64.3c9-34.6 4.2-50.4-1.4-57.6A78 78 0 0 0 185.3 0a111 111 0 0 0-32.5 4.6 121 121 0 0 0-19-1.8 62 62 0 0 0-33 8.2 151 151 0 0 0-23.6-6Q43-.4 22.6 13.8-1.9 31.2.2 73.3C.6 82 5.6 109 13.4 134.8q6.8 22.1 14.2 36.3 10.5 19.8 23 24a23 23 0 0 0 22.4-4.9 20 20 0 0 0 4.7 4 31 31 0 0 0 8.9 3.8c11.3 2.8 22 2.1 31-1.9l.3 10.8a110 110 0 0 0 4.7 32.7c1.4 4.1 3.6 11 9.3 16.4a28 28 0 0 0 19.7 7.3 44 44 0 0 0 9.2-1c9.8-2.1 21-5.3 29-16.8 7.6-10.9 11.4-27.2 12-53l.3-2.1.1-1.4 1.8.2h.5a70 70 0 0 0 29.7-5.1c6-2.8 25-12.8 20.5-26.4"/><path d="M237.6 160.4c-29.7 6-31.8-4-31.8-4 31.4-46.6 44.6-105.7 33.2-120.2-30.9-39.5-84.4-20.8-85.3-20.3h-.3a106 106 0 0 0-19.8-2 49 49 0 0 0-31.4 9.4S6.8-16 11.2 72.7c1 18.9 27 142.9 58.2 105.4A575 575 0 0 1 91.8 153a29 29 0 0 0 18.9 4.8l.5-.5a21 21 0 0 0 .2 5.4c-8 9-5.6 10.5-21.7 13.8s-6.7 9.3-.5 10.9c7.6 1.9 25 4.5 36.9-12l-.5 1.9c3.1 2.5 5.3 16.4 5 29s-.7 21.1 1.8 27.9 5 21.9 26 17.4q26.4-5.6 28-30c1-11.5 3-9.8 3.2-20.2l1.6-4.9c1.9-15.7.3-20.8 11.2-18.4l2.6.2c8 .3 18.4-1.3 24.6-4.2 13.2-6 21-16.3 8-13.6" fill="#336791"/><path d="M107.8 81.2q-4.2-.5-6.4.9a2 2 0 0 0-1 1.5 5 5 0 0 0 1.2 3 8 8 0 0 0 5.2 3.2l.9.1c3.2 0 6.2-2.5 6.4-4.4.4-2.3-3-3.9-6.3-4.3m88.8 0c-.3-1.8-3.6-2.3-6.6-1.9-3.1.4-6.1 1.8-5.9 3.7.2 1.4 2.8 3.8 5.9 3.8h.7a8 8 0 0 0 4.3-2.3 5 5 0 0 0 1.6-3.3" fill="#fff"/><path d="M247.5 159.7q-1.7-5.2-10.8-3.3c-18 3.7-24.5 1.1-26.6-.4a248 248 0 0 0 31.7-71.2c3-11.4 4.6-22 4.7-30.6q.2-14.2-4.8-20.6A70 70 0 0 0 184.8 7c-16.3-.2-30.2 4-32.8 5.2a82 82 0 0 0-18.5-2.4q-18.5-.2-31.8 8.8A142 142 0 0 0 76 11.8q-31.5-5-49.3 7.6Q5.5 34.6 7.3 72.5c.4 8.5 5.3 34.7 13 59.7q15.2 49.7 32.4 55.5a15 15 0 0 0 4.6.8c4.2 0 9.4-2 14.7-8.4a530 530 0 0 1 20.3-22.9 33 33 0 0 0 14.6 4v.3l-2.6 3.2c-3.5 4.5-4.2 5.4-15.5 7.7-3.3.7-11.8 2.5-12 8.5-.1 6.5 10.2 9.3 11.3 9.6A48 48 0 0 0 100 192a34 34 0 0 0 23.5-8.8c-.2 23.4.8 46.4 3.6 53.5 2.3 5.7 7.9 19.8 25.6 19.8a41 41 0 0 0 8.7-1c18.5-4 26.5-12.2 29.6-30.2a1026 1026 0 0 0 5.9-45 36 36 0 0 0 10.4 1.2A61 61 0 0 0 231 177c6.7-3 18.8-10.7 16.6-17.3m-44.1-83.5a75 75 0 0 1-1.1 10.4 96 96 0 0 0-1.3 12.2 93 93 0 0 0 1 13.8 49 49 0 0 1-2.2 28.1l-2-4q-.8-2-3.3-6.4C188 118.8 173 92 180.8 81c2.2-3.3 8-6.6 22.6-4.8m-17.6-61.8q32.1.7 50.1 23.7c9.2 11.7-1 65-30.1 111l-1-1.1-.3-.5c7.6-12.5 6-24.8 4.8-35.7a86 86 0 0 1-1-12.7 90 90 0 0 1 1.3-11.4 72 72 0 0 0 1.1-14l.2-2c-.5-5-6.3-20.1-18-33.8a81 81 0 0 0-28.6-21.5 96 96 0 0 1 21.5-2m-119.4 161c-6 7.1-10 5.7-11.3 5.3-8.8-3-18.9-21.4-27.8-50.6a331 331 0 0 1-12.6-58q-1.7-34 16.2-46.7c19.4-13.8 51.3-5.5 64.2-1.4l-.6.6C73.5 45.8 74 82 74 84.3l.2 3.8a150 150 0 0 1-.8 30.3 38 38 0 0 0 10.1 32.1l2.7 2.5a540 540 0 0 0-19.8 22.4m22.5-30a31 31 0 0 1-8.2-26 157 157 0 0 0 .8-31.8v-2.2c3-2.8 17.2-10.4 27.4-8q6.8 1.4 8.6 9.6c6.1 28 .8 39.8-3.4 49.2l-2.4 5.7-.6 1.4a96 96 0 0 0-3.4 10.5 26 26 0 0 1-18.8-8.4m1 38a16 16 0 0 1-4.9-2.2 24 24 0 0 1 5.2-1.6c13.4-2.7 15.4-4.6 20-10.3q1.4-2 3.8-4.6c2.4-2.8 3.5-2.3 5.5-1.5a8 8 0 0 1 3.8 5 6 6 0 0 1-.5 4.6c-9.4 13.1-23 13-32.9 10.5m69.8 64.9c-16.3 3.5-22-4.9-25.9-14.4-2.4-6.1-3.6-33.8-2.8-64.4l-.1-1.2-.5-2.2a15 15 0 0 0-8.1-9.7 11 11 0 0 0-7.5-.9 90 90 0 0 1 3.2-9.6l.6-1.5 2.2-5.2c4.4-9.8 10.5-23.3 4-53.8-2.5-11.4-10.8-17-23.3-15.7a54 54 0 0 0-17.7 5.6l-2 1c.9-11.5 4.5-33 18-46.6a44 44 0 0 1 33.5-12.5 71 71 0 0 1 54.4 26 83 83 0 0 1 14.9 25.5q-20.7-2-27.9 8c-10.3 14.8 5.7 43.4 13.3 57.2 1.4 2.5 2.7 4.7 3 5.6a51 51 0 0 0 8.1 13l2 2.6c-4.2 1.2-11.7 4-11 17.9-.5 7-4.4 39.5-6.4 51-2.6 15.2-8.2 20.9-24 24.3m68.1-78c-4.2 2-11.4 3.5-18.1 3.8-7.5.4-11.3-.8-12.2-1.6-.4-8.6 2.8-9.5 6.2-10.5l1.5-.4 1 .7q9.1 6 32 1.3h.1a41 41 0 0 1-10.5 6.7" fill="#fff"/></svg>