<svg xmlns="http://www.w3.org/2000/svg" viewBox="0 0 1958.1421 1958.1737"><g  ><g  ><path d="M1753.9671,380.69C1423.4816-47.2646,808.6445-126.2789,380.69,204.2066s-506.9689,945.3225-176.4834,1373.2771,945.3225,506.9689,1373.2771,176.4834l.2256-.1743c427.7179-330.5482,506.653-945.232,176.2271-1373.1029Z" style="fill:#ff6c37"/><path d="M1309.3,623.8589,896.4815,1039.9506,779.8228,920.0183c406.3014-406.3014,447.0845-369.5874,529.5074-296.1594Z" style="fill:#fff"/><path d="M896.4815,1051.332a14.6855,14.6855,0,0,1-9.79-4.0691L769.2064,929.7782a14.6856,14.6856,0,0,1,0-20.4069c400.58-400.58,455.2533-381.8254,549.8836-296.1594a13.0641,13.0641,0,0,1,4.8952,10.6164,11.4783,11.4783,0,0,1-4.0691,10.6165L907.098,1047.2935a15.482,15.482,0,0,1-10.6165,4.0691ZM800.1991,919.9878l96.2824,96.2824,391.6157-391.6158a88.1136,88.1136,0,0,0-115.8631-19.5808C1101.2537,636.8924,987.0426,733.97,800.1991,919.9878Z" style="fill:#ff6c37"/><path d="M1014.7923,1154.9878,902.2028,1039.9507l412.8181-407.9536c110.9679,108.52-53.8472,289.6427-300.2286,522.96Z" style="fill:#fff"/><path d="M1014.7923,1169.6734a17.133,17.133,0,0,1-9.79-4.0691l-115.0371-112.59a17.1329,17.1329,0,0,1,0-13.064,15.8169,15.8169,0,0,1,0-10.6164l412.8181-412.8182a15.481,15.481,0,0,1,21.2024,0,126.5407,126.5407,0,0,1,40.7831,97.0779c0,110.142-125.6535,248.829-339.39,451.1842a17.1335,17.1335,0,0,1-10.6165,4.8952Zm-91.3872-129.7228,92.1827,92.1521C1178.7509,977.904,1334.6017,818.81,1335.3971,711.1158a93.0084,93.0084,0,0,0-21.2023-62.8115Z" style="fill:#ff6c37"/><path d="M783.0659,922.4659l81.5968,81.5969a4.8952,4.8952,0,0,1,0,7.3429L692.5048,1048.12a16.3071,16.3071,0,0,1-14.6856-27.75l100.3515-99.5255s3.2737,0,4.8952,1.6215Z" style="fill:#fff"/><path d="M688.4356,1064.4266a31.8184,31.8184,0,0,1-26.9235-15.5117,31.0232,31.0232,0,0,1,5.7213-36.714l99.5254-100.3515a19.5807,19.5807,0,0,1,26.0976,0l81.5968,81.5968a17.9934,17.9934,0,0,1,4.8952,17.9593,18.9194,18.9194,0,0,1-13.86,13.064l-172.158,36.714Zm91.3872-124.0015L687.64,1032.6078l152.5772-32.6449Z" style="fill:#ff6c37"/><path d="M1528.788,394.58a158.2754,158.2754,0,1,0-28.5451,249.655l-110.968-110.968Z" style="fill:#fff"/><path d="M1418.6461,681.7446a173.124,173.124,0,0,1-121.0338-294.5073,174.6976,174.6976,0,0,1,244.76,0,13.8562,13.8562,0,0,1,4.8952,10.6165,14.0741,14.0741,0,0,1-4.8952,10.6165l-132.17,124.8275,100.3515,98.73a13.7678,13.7678,0,0,1,4.0691,12.238,14.6857,14.6857,0,0,1-6.5168,10.6164,177.45,177.45,0,0,1-89.735,26.9236Zm0-316.5663a143.3677,143.3677,0,1,0,57.1208,274.9571l-96.2823-96.2824a13.064,13.064,0,0,1,0-20.4068L1506.76,395.345a146.3974,146.3974,0,0,0-88.1136-30.1972Z" style="fill:#ff6c37"/><path d="M1531.2356,397.0277l-139.5131,138.687L1502.69,646.6828a168.8864,168.8864,0,0,0,30.9928-22.8545,163.163,163.163,0,0,0-2.4477-226.8006Z" style="fill:#fff"/><path d="M1500.2123,658.9208a12.2383,12.2383,0,0,1-9.79-4.0692L1379.454,543.8836a13.064,13.064,0,0,1,0-20.4068l138.6871-136.24a14.6855,14.6855,0,0,1,24.4759,0,171.332,171.332,0,0,1,2.4725,242.2873q-1.2236,1.2489-2.4725,2.4725a149.3,149.3,0,0,1-32.6449,26.0976,13.1557,13.1557,0,0,1-9.79.8261Zm-89.7351-125.6231L1502.66,625.48a156.6339,156.6339,0,0,0,17.9593-14.6856,144.4078,144.4078,0,0,0,42.4352-101.973,140.1246,140.1246,0,0,0-35.0924-93.0088Z" style="fill:#ff6c37"/><path d="M1326.4328,640.9921a59.599,59.599,0,0,0-81.5968,0L875.2792,1009.7228l61.19,62.0161,390.79-342.6639a60.4862,60.4862,0,0,0,1.8153-85.5212q-1.2807-1.3363-2.6414-2.5924Z" style="fill:#fff"/><path d="M933.1955,1086.455a14.6855,14.6855,0,0,1-9.79-4.0691l-62.016-62.0161a14.6855,14.6855,0,0,1,0-20.4068l369.5874-367.9659a75.08,75.08,0,0,1,128.1012,55.4687,76.7932,76.7932,0,0,1-25.302,53.8472l-390.79,342.6638a13.92,13.92,0,0,1-9.79,2.4476Zm-43.2307-76.7322,40.7831,41.6092,383.4469-333.7a45.0611,45.0611,0,0,0,15.5116-32.6448,43.804,43.804,0,0,0-13.86-33.44,45.6782,45.6782,0,0,0-64.4635,0Z" style="fill:#ff6c37"/><path d="M588.91,1429.9143a8.26,8.26,0,0,0,0,9.79l16.3071,70.98a21.0494,21.0494,0,0,1-10.1576,21.4165,19.887,19.887,0,0,1-23.3134-2.3558L459.9829,1422.0514,808.368,1070.9128H929.1264l81.5968,81.5968A1852.2173,1852.2173,0,0,1,588.91,1429.9143Z" style="fill:#fff"/><path d="M581.5674,1549.8466a34.4589,34.4589,0,0,1-24.476-10.6165L450.2231,1432.3619a13.0641,13.0641,0,0,1,0-20.4069l350.8021-351.6281a13.7679,13.7679,0,0,1,7.3428-4.0691H929.9218a14.6849,14.6849,0,0,1,9.79,0l81.5969,81.5968a15.7592,15.7592,0,0,1-.8261,22.0284l-6.5168,5.7213a1998.7708,1998.7708,0,0,1-418.5393,268.41l15.5116,66.0852a35.1838,35.1838,0,0,1-33.44,43.2306Zm-99.5255-128.1012,96.2518,97.0779a4.3359,4.3359,0,0,0,6.5167-5.7213l-16.3072-70.98a22.7629,22.7629,0,0,1,12.238-26.0976,2005.806,2005.806,0,0,0,407.9229-262.719l-66.9113-66.9113H812.437Z" style="fill:#ff6c37"/><path d="M375.9691,1505.79l81.5968-81.5968L583.22,1549.8466l-199.8771-13.86A16.3377,16.3377,0,0,1,376,1505.82Z" style="fill:#fff"/><path d="M585.6365,1562.0846l-199.0816-13.8595a31.5131,31.5131,0,0,1-26.1281-19.9785A31.183,31.183,0,0,1,366.9741,1496l81.5968-81.5968a14.6856,14.6856,0,0,1,20.4069,0L593.8053,1539.23a13.8292,13.8292,0,0,1,0,16.3072,15.5124,15.5124,0,0,1-8.1689,6.5168Zm-199.0816-45.6783,163.1631,10.6165-89.7351-84.0445Z" style="fill:#ff6c37"/><path d="M940.5383,1080.7643l-164.8152,25.3021,95.4564-94.63Z" style="fill:#fff"/><path d="M775.7231,1121.5169a13.9512,13.9512,0,0,1-13.064-8.1689,13.7677,13.7677,0,0,1,0-16.3071l94.63-95.4563a15.4809,15.4809,0,0,1,21.2023,0l69.3894,69.3282a13.7678,13.7678,0,0,1,0,14.6856,14.38,14.38,0,0,1-11.4119,10.6164l-163.1631,25.3021Zm95.4564-88.94-53.0211,53.0212,91.3872-13.86Z" style="fill:#ff6c37"/><path d="M940.5383,1080.7032l-115.0372,14.6855a14.6856,14.6856,0,0,1-13.8595-24.4759l59.5685-59.5684Z" style="fill:#fff"/><path d="M822.2275,1110.931a30.1974,30.1974,0,0,1-26.0976-15.5117,29.3711,29.3711,0,0,1,4.8952-35.0924l59.5685-59.5684a15.4809,15.4809,0,0,1,21.2023,0l69.3588,69.3588a14.6855,14.6855,0,0,1-8.9643,25.302l-114.211,14.6856Zm0-30.1973,86.492-10.6164-38.3355-38.3355-48.952,48.9519ZM1532.031,490.8625a12.2379,12.2379,0,0,0-15.5116-4.8952,11.32,11.32,0,0,0-5.6907,6.7308,11.5344,11.5344,0,0,0,.7955,8.7808,35.0962,35.0962,0,0,1-4.0691,36.714,10.3415,10.3415,0,0,0-3.06,7.7406,11.6264,11.6264,0,0,0,3.06,7.74,8.8726,8.8726,0,0,0,6.5167,0,10.7082,10.7082,0,0,0,10.6165-3.2737,56.2949,56.2949,0,0,0,7.3428-59.5684Z" style="fill:#ff6c37"/></g></g></svg>
