<svg xmlns="http://www.w3.org/2000/svg" viewBox="0 0 1958.1 1958.2"><path d="M1754 380.7c-330.5-428-945.4-507-1373.3-176.5s-507 945.3-176.5 1373.3 945.3 507 1373.3 176.5l.2-.2c427.7-330.6 506.7-945.2 176.2-1373.1Z" fill="#ff6c37"/><path d="m1309.3 623.9-412.8 416L779.8 920c406.3-406.3 447.2-369.6 529.5-296Z" fill="#fff"/><path d="M896.5 1051.3a15 15 0 0 1-9.8-4L769.2 929.8a14.7 14.7 0 0 1 0-20.4c400.6-400.6 455.3-381.9 549.9-296.2a13 13 0 0 1 4.9 10.6 12 12 0 0 1-4 10.6l-413 412.9a16 16 0 0 1-10.6 4ZM800.2 920l96.3 96.3L1288 624.7a88 88 0 0 0-115.9-19.6c-71 31.8-185.2 128.9-372 314.9" fill="#ff6c37"/><path d="m1014.8 1155-112.6-115L1315 632c111 108.5-53.8 289.6-300.2 523" fill="#fff"/><path d="M1014.8 1169.7a17 17 0 0 1-9.8-4.1L890 1053a17 17 0 0 1 0-13 16 16 0 0 1 0-10.7l412.8-412.8a15.5 15.5 0 0 1 21.2 0 127 127 0 0 1 40.8 97c0 110.2-125.7 249-339.4 451.3a17 17 0 0 1-10.6 4.9M923.4 1040l92.2 92.1c163.2-154.2 319-313.3 319.8-421a93 93 0 0 0-21.2-62.8Z" fill="#ff6c37"/><path d="m783 922.5 81.7 81.6a5 5 0 0 1 0 7.3l-172.2 36.7a16.3 16.3 0 0 1-14.7-27.7l100.4-99.6s3.2 0 4.9 1.7" fill="#fff"/><path d="M688.4 1064.4a32 32 0 0 1-26.9-15.5 31 31 0 0 1 5.7-36.7l99.6-100.4a19.6 19.6 0 0 1 26 0l81.7 81.6a18 18 0 0 1 4.8 18 19 19 0 0 1-13.8 13l-172.2 36.8Zm91.4-124-92.2 92.2 152.6-32.6Z" fill="#ff6c37"/><path d="M1528.8 394.6a158.3 158.3 0 1 0-28.6 249.6l-111-111Z" fill="#fff"/><path d="M1418.6 681.7a173.1 173.1 0 0 1-121-294.5 174.7 174.7 0 0 1 244.8 0 14 14 0 0 1 4.9 10.7 14 14 0 0 1-5 10.6l-132.1 124.8 100.4 98.7a14 14 0 0 1 4 12.3 15 15 0 0 1-6.5 10.6 178 178 0 0 1-89.7 27Zm0-316.5a143.4 143.4 0 1 0 57.2 275l-96.3-96.3a13 13 0 0 1 0-20.5l127.3-128a146 146 0 0 0-88.2-30.3Z" fill="#ff6c37"/><path d="m1531.2 397-139.5 138.7 111 111a169 169 0 0 0 31-22.9 163 163 0 0 0-2.5-226.8" fill="#fff"/><path d="M1500.2 659a12 12 0 0 1-9.8-4.1l-111-111a13 13 0 0 1 0-20.4l138.7-136.3a14.7 14.7 0 0 1 24.5 0 171.3 171.3 0 0 1 2.5 242.3l-2.5 2.5a149 149 0 0 1-32.6 26 13 13 0 0 1-9.8 1m-89.7-125.7 92.2 92.2a157 157 0 0 0 18-14.7 144 144 0 0 0 42.4-102 140 140 0 0 0-35.1-93Z" fill="#ff6c37"/><path d="M1326.4 641a59.6 59.6 0 0 0-81.6 0l-369.5 368.7 61.2 62 390.8-342.6a60.5 60.5 0 0 0 1.8-85.5q-1.3-1.4-2.7-2.6" fill="#fff"/><path d="M933.2 1086.5a15 15 0 0 1-9.8-4.1l-62-62a14.7 14.7 0 0 1 0-20.4L1231 632a75 75 0 0 1 128 55.5 77 77 0 0 1-25.2 53.8L943 1084a14 14 0 0 1-9.8 2.4Zm-43.2-76.8 40.7 41.6 383.5-333.7a45 45 0 0 0 15.5-32.6 44 44 0 0 0-13.9-33.5 45.7 45.7 0 0 0-64.4 0Z" fill="#ff6c37"/><path d="M589 1430a8 8 0 0 0 0 9.7l16.2 71a21 21 0 0 1-10.1 21.4 20 20 0 0 1-23.4-2.4L460 1422.1l348.4-351.2H929l81.6 81.6A1852 1852 0 0 1 589 1430" fill="#fff"/><path d="M581.6 1549.8a35 35 0 0 1-24.5-10.6l-106.9-106.8a13 13 0 0 1 0-20.4L801 1060.3a14 14 0 0 1 7.4-4h121.5a15 15 0 0 1 9.8 0l81.6 81.6a16 16 0 0 1-.8 22l-6.5 5.7A1999 1999 0 0 1 595.4 1434l15.5 66.1a35.2 35.2 0 0 1-33.4 43.2Zm-99.6-128 96.3 97a4.3 4.3 0 0 0 6.5-5.7l-16.3-71a23 23 0 0 1 12.2-26 2006 2006 0 0 0 408-262.8l-67-67H812.5Z" fill="#ff6c37"/><path d="m376 1505.8 81.6-81.6 125.6 125.6-199.9-13.8a16.3 16.3 0 0 1-7.3-30.2" fill="#fff"/><path d="m585.6 1562-199-13.8a32 32 0 0 1-26.2-20 31 31 0 0 1 6.6-32.2l81.6-81.6a14.7 14.7 0 0 1 20.4 0l124.8 124.8a14 14 0 0 1 0 16.3 16 16 0 0 1-8.2 6.6Zm-199-45.6 163.1 10.6-89.7-84Z" fill="#ff6c37"/><path d="M940.5 1080.8 775.7 1106l95.5-94.7Z" fill="#fff"/><path d="M775.7 1121.5a14 14 0 0 1-13-8.2 14 14 0 0 1 0-16.3l94.6-95.4a15.5 15.5 0 0 1 21.2 0l69.4 69.3a14 14 0 0 1 0 14.7 14 14 0 0 1-11.4 10.6l-163.2 25.3Zm95.5-89-53 53.1 91.3-13.9Z" fill="#ff6c37"/><path d="m940.5 1080.7-115 14.7a14.7 14.7 0 0 1-13.9-24.5l59.6-59.6Z" fill="#fff"/><path d="M822.2 1111a30 30 0 0 1-26-15.6 29.4 29.4 0 0 1 4.8-35l59.6-59.6a15.5 15.5 0 0 1 21.2 0l69.4 69.3a14.7 14.7 0 0 1-9 25.3L828 1110.1Zm0-30.3 86.5-10.6-38.3-38.3-49 49ZM1532 491a12 12 0 0 0-15.5-5 11 11 0 0 0-5.7 6.8 12 12 0 0 0 .8 8.8 35 35 0 0 1-4 36.7 10 10 0 0 0-3.1 7.7 12 12 0 0 0 3 7.8 9 9 0 0 0 6.6 0 11 11 0 0 0 10.6-3.3 56 56 0 0 0 7.3-59.6Z" fill="#ff6c37"/></svg>