<svg xmlns="http://www.w3.org/2000/svg" viewBox="0 0 294 438.8711"><g id="Layer_2" data-name="Layer 2"><g id="Layer_1-2" data-name="Layer 1"><path d="M291.039,246.0481H2.517V229.7772a19.7951,19.7951,0,0,1,19.794-19.7961H271.243a19.7961,19.7961,0,0,1,19.796,19.7961Z" style="fill:#dfdedf"/><path d="M270.938,434.7441H22.616a20.1,20.1,0,0,1-20.1-20.1V246.0481H291.038v168.596a20.0993,20.0993,0,0,1-20.1,20.1" style="fill:#fff"/><path d="M287.456,242.7772V228.1851a15.5978,15.5978,0,0,0-15.597-15.598H22.141a15.5978,15.5978,0,0,0-15.597,15.598v14.5921Zm0,173.9519V249.3211H6.544V416.73a15.5963,15.5963,0,0,0,15.597,15.597H271.86A15.597,15.597,0,0,0,287.456,416.7291ZM23.605,206.0441l.972-10.607-4.125,10.692c.559-.042,1.119-.085,1.689-.085Zm245.078-17.881,1.44,17.881h1.736a22.28,22.28,0,0,1,2.738.187Zm19.807,25.454a22.0244,22.0244,0,0,1,5.51,14.568V416.73a22.1662,22.1662,0,0,1-22.141,22.141H22.141A22.1662,22.1662,0,0,1,0,416.73V228.1851a22.0447,22.0447,0,0,1,6.141-15.263L28.214,155.71l9.625-105.144,10.86.993-8.673,94.737,3.055,1.178-4.146,10.747-4.378,47.822H259.183L246.718,51.2981l10.869-.876,7.352,91.265.005-.001Zm-264.193,9.635a4.941,4.941,0,1,1-4.941,4.941A4.9408,4.9408,0,0,1,24.297,223.2521Zm16.891,0a4.941,4.941,0,1,1-4.941,4.941A4.9408,4.9408,0,0,1,41.188,223.2521Zm16.359,0a4.941,4.941,0,1,1-4.941,4.941A4.9408,4.9408,0,0,1,57.547,223.2521Z"/><path d="M41.369,330.4611a5.7246,5.7246,0,0,0,1.295-3.875,5.5909,5.5909,0,0,0-1.295-3.824,4.8014,4.8014,0,0,0-3.753-1.447H29.753v10.5921h7.863A4.8141,4.8141,0,0,0,41.369,330.4611ZM37.616,314.96a10.5867,10.5867,0,0,1,8.086,3.151,13.5679,13.5679,0,0,1,.046,16.9461,10.6473,10.6473,0,0,1-8.132,3.204H29.753v14.2569H23.677V314.96H37.616Zm32.781,23.034v-10.956h6.544v24.737H70.397v-2.23a10.5012,10.5012,0,0,1-7.783,2.973,9.4493,9.4493,0,0,1-7.188-2.924,10.39,10.39,0,0,1-2.726-7.486v-15.071h6.544v13.682a6.0978,6.0978,0,0,0,1.387,4.215,4.5188,4.5188,0,0,0,3.619,1.586C68.364,346.5211,70.397,343.6952,70.397,337.9941Zm32.072,6.7921a7.395,7.395,0,0,0,1.933-5.354,7.5143,7.5143,0,0,0-1.933-5.4031,6.7615,6.7615,0,0,0-5.007-2.033,6.8768,6.8768,0,0,0-4.907,2.082,7.0939,7.0939,0,0,0-2.132,5.3541,7.2024,7.2024,0,0,0,7.039,7.386A6.7608,6.7608,0,0,0,102.469,344.7862Zm-3.867-18.4911a11.6216,11.6216,0,0,1,8.527,3.719,13.0136,13.0136,0,0,1,3.618,9.418,12.82,12.82,0,0,1-3.618,9.369,11.5411,11.5411,0,0,1-8.527,3.717,12.6786,12.6786,0,0,1-8.179-2.676v13.734H83.879v-36.539h6.544v1.983A12.26,12.26,0,0,1,98.602,326.2951Zm35.69,18.4911a7.395,7.395,0,0,0,1.933-5.354,7.5143,7.5143,0,0,0-1.933-5.4031,6.7615,6.7615,0,0,0-5.007-2.033,6.8768,6.8768,0,0,0-4.907,2.082,7.0947,7.0947,0,0,0-2.133,5.3541,7.204,7.204,0,0,0,7.04,7.386A6.7577,6.7577,0,0,0,134.292,344.7862Zm-3.868-18.4911a11.6238,11.6238,0,0,1,8.528,3.719,13.0178,13.0178,0,0,1,3.618,9.418,12.824,12.824,0,0,1-3.618,9.369,11.5416,11.5416,0,0,1-8.528,3.717,12.6844,12.6844,0,0,1-8.179-2.676v13.734h-6.543v-36.539h6.543v1.983A12.2676,12.2676,0,0,1,130.424,326.2951Zm21.811,10.261h11.947a5.8213,5.8213,0,0,0-2.181-3.4209,6.2041,6.2041,0,0,0-3.669-1.1391,6.5263,6.5263,0,0,0-3.767,1.19A5.4761,5.4761,0,0,0,152.235,336.5561Zm6.097-10.261a12.2119,12.2119,0,0,1,8.726,3.52,12.92,12.92,0,0,1,3.817,9.121v2.231H152.037a7.4317,7.4317,0,0,0,2.231,4.164,5.6667,5.6667,0,0,0,3.964,1.585,6.5961,6.5961,0,0,0,6.148-3.271l5.85,1.239a11.7447,11.7447,0,0,1-4.71,5.702,13.5588,13.5588,0,0,1-7.288,1.932,12.3,12.3,0,0,1-9.022-3.667,13.9193,13.9193,0,0,1,.05-18.888A12.34,12.34,0,0,1,158.332,326.2951Zm30.586,20.127a8.9021,8.9021,0,0,0,4.115-1.19l1.883,5.453a13.4741,13.4741,0,0,1-6.445,1.8341,10.0015,10.0015,0,0,1-7.139-2.479c-1.734-1.6341-2.577-4.064-2.577-7.386v-10.262H173.45v-5.354h5.305v-7.484h6.544v7.484h8.08v5.354h-8.08v9.766C185.299,344.9842,186.489,346.4221,188.918,346.4221Zm13.729-9.866h11.947a5.8213,5.8213,0,0,0-2.181-3.4209,6.2041,6.2041,0,0,0-3.669-1.1391,6.5263,6.5263,0,0,0-3.767,1.19A5.4761,5.4761,0,0,0,202.647,336.5561Zm6.097-10.261a12.2119,12.2119,0,0,1,8.726,3.52,12.92,12.92,0,0,1,3.817,9.121v2.231H202.449a7.4317,7.4317,0,0,0,2.231,4.164,5.6667,5.6667,0,0,0,3.964,1.585,6.5962,6.5962,0,0,0,6.148-3.271l5.849,1.239a11.7265,11.7265,0,0,1-4.7091,5.702,13.5609,13.5609,0,0,1-7.2879,1.932,12.3,12.3,0,0,1-9.0221-3.667,13.9193,13.9193,0,0,1,.05-18.888A12.34,12.34,0,0,1,208.744,326.2951Zm23.297,10.261h11.947a5.8213,5.8213,0,0,0-2.181-3.4209,6.2041,6.2041,0,0,0-3.669-1.1391,6.5263,6.5263,0,0,0-3.767,1.19A5.48,5.48,0,0,0,232.041,336.5561Zm6.097-10.261a12.2119,12.2119,0,0,1,8.726,3.52,12.92,12.92,0,0,1,3.817,9.121v2.231H231.843a7.4317,7.4317,0,0,0,2.231,4.164,5.6667,5.6667,0,0,0,3.964,1.585,6.5961,6.5961,0,0,0,6.148-3.271l5.85,1.239a11.7447,11.7447,0,0,1-4.71,5.702,13.5588,13.5588,0,0,1-7.288,1.932,12.3,12.3,0,0,1-9.022-3.667,13.9193,13.9193,0,0,1,.05-18.888A12.3428,12.3428,0,0,1,238.138,326.2951Zm32.916.3961a5.36,5.36,0,0,1,1.736.198l-.348,6.2969h-1.437c-5.9,0-8.826,3.52-8.826,10.6091v7.98h-6.543v-24.737h6.543v4.511A10.3582,10.3582,0,0,1,271.054,326.6912Z"/><polygon points="242.43 152.327 277.734 135.283 277.734 118.24 196.169 79.283 277.734 37.283 277.734 20.849 243.647 5.022 147.068 53.108 48.865 5.022 17.213 22.066 17.213 36.674 93.908 78.674 17.213 117.631 17.213 135.283 50.083 152.327 147.474 102.413 242.43 152.327" style="fill:#00d8a2"/><path d="M246.856,145.3741v-7.341l26.575-13.771v8.246ZM19.352,124.07l25.679,14.741v5.869l-25.679-12.991Zm131.534-31.001,88.337,43.646v8.776l-88.337-45.254v-7.168Zm-98.222,44.923,90.588-44.914v7.157l-90.588,45.832Zm64.143-73.391L25.136,20.3431,48.879,8.2761l98.189,50.902,96.546-50.88,24.581,12.59L178.8,65.8771a4.8641,4.8641,0,0,0,.009,8.694l88.473,44.28-22.932,11.883-97.282-49.846-99.002,50.863L25.454,118.77l91.403-45.434a4.8637,4.8637,0,0,0-.05-8.735ZM20.493,35.3381v-8.055l85.497,42.655-8.643,3.453Zm175.314,38.528c-.117-.071-8.188-3.879-8.188-3.879L273.431,26.8v8.091Zm8.589,4.229,75.424-37.871a2.2614,2.2614,0,0,0,1.246-2.02V20.2851a2.26,2.26,0,0,0-1.23-2.012L244.656.2541a2.2585,2.2585,0,0,0-2.053-.003l-94.52,47.963a2.2579,2.2579,0,0,1-2.032.007L49.866.2371a2.2632,2.2632,0,0,0-2.033.008L12.954,17.97a2.2619,2.2619,0,0,0-1.237,2.016v18.208a2.26,2.26,0,0,0,1.26,2.027l75.741,37.421-75.39,37.433a2.26,2.26,0,0,0-1.254,1.983l-.33,17.905a2.2613,2.2613,0,0,0,1.239,2.058l36.218,18.324a2.2611,2.2611,0,0,0,2.035.002l94.813-47.608a2.2581,2.2581,0,0,1,2.038.005l93.631,47.607a2.2666,2.2666,0,0,0,2.009.02l36.063-17.46a2.2613,2.2613,0,0,0,1.276-2.034V117.1691a2.26,2.26,0,0,0-1.264-2.029Z"/></g></g></svg>