<svg xmlns="http://www.w3.org/2000/svg" viewBox="0 0 294 438.9"><path d="M291 246H2.5v-16.2A20 20 0 0 1 22.3 210h249a20 20 0 0 1 19.7 19.8Z" fill="#dfdedf"/><path d="M271 434.7H22.5a20 20 0 0 1-20-20V246H291v168.6a20 20 0 0 1-20 20.1" fill="#fff"/><path d="M287.5 242.8v-14.6a15.6 15.6 0 0 0-15.6-15.6H22a15.6 15.6 0 0 0-15.6 15.6v14.6Zm0 174V249.2H6.5v167.4a15.6 15.6 0 0 0 15.6 15.6H272a15.6 15.6 0 0 0 15.6-15.6M23.6 206l1-10.6-4.1 10.7H22Zm245-17.8 1.5 17.8h1.8l2.7.2Zm19.9 25.4a22 22 0 0 1 5.5 14.6v188.5a22 22 0 0 1-22.1 22.2H22a22 22 0 0 1-22-22.2V228.2a22 22 0 0 1 6.1-15.3l22.1-57.2 9.6-105.1 10.9 1-8.7 94.7 3 1.2-4 10.7-4.4 47.8h224.6L246.7 51.3l10.9-.9 7.3 91.3Zm-264.2 9.7a5 5 0 1 1-5 4.9 5 5 0 0 1 5-5m16.9 0a5 5 0 1 1-5 4.9 5 5 0 0 1 5-5m16.3 0a5 5 0 1 1-4.9 4.9 5 5 0 0 1 5-5"/><path d="M41.4 330.5a6 6 0 0 0 1.3-4 6 6 0 0 0-1.3-3.7 5 5 0 0 0-3.8-1.5h-7.8V332h7.8a5 5 0 0 0 3.8-1.4M37.6 315a11 11 0 0 1 8.1 3.1 13.6 13.6 0 0 1 0 17 11 11 0 0 1-8 3.2h-8v14.2h-6V315zm32.8 23v-11h6.5v24.8h-6.5v-2.3a11 11 0 0 1-7.8 3 9 9 0 0 1-7.2-3 10 10 0 0 1-2.7-7.4v-15h6.5v13.6a6 6 0 0 0 1.4 4.2 5 5 0 0 0 3.6 1.6q6.3 0 6.2-8.5m32 6.8a7 7 0 0 0 2-5.4 8 8 0 0 0-2-5.4 7 7 0 0 0-5-2 7 7 0 0 0-4.8 2 7 7 0 0 0-2.2 5.4 7 7 0 0 0 7 7.4 7 7 0 0 0 5-2m-3.8-18.5a12 12 0 0 1 8.5 3.7 13 13 0 0 1 3.6 9.4 13 13 0 0 1-3.6 9.4 12 12 0 0 1-8.5 3.7 13 13 0 0 1-8.2-2.7v13.8H84V327h6.5v2a12 12 0 0 1 8.2-2.7m35.7 18.5a7 7 0 0 0 2-5.4 8 8 0 0 0-2-5.4 7 7 0 0 0-5-2 7 7 0 0 0-5 2 7 7 0 0 0-2 5.4 7 7 0 0 0 7 7.4 7 7 0 0 0 5-2m-3.9-18.5a12 12 0 0 1 8.6 3.7 13 13 0 0 1 3.6 9.4 13 13 0 0 1-3.6 9.4 12 12 0 0 1-8.6 3.7 13 13 0 0 1-8.2-2.7v13.8h-6.5V327h6.5v2a12 12 0 0 1 8.2-2.7m21.8 10.3h12a6 6 0 0 0-2.2-3.5 6 6 0 0 0-3.7-1.1 7 7 0 0 0-3.7 1.2 6 6 0 0 0-2.4 3.4m6.1-10.3a12 12 0 0 1 8.8 3.5 13 13 0 0 1 3.8 9.1v2.3h-19a7 7 0 0 0 2.3 4.1 6 6 0 0 0 4 1.6 7 7 0 0 0 6-3.3l6 1.3a12 12 0 0 1-4.8 5.7 14 14 0 0 1-7.3 2 12 12 0 0 1-9-3.7 14 14 0 0 1 0-19 12 12 0 0 1 9.1-3.6m30.6 20.1a9 9 0 0 0 4.1-1.2l2 5.5a14 14 0 0 1-6.5 1.8 10 10 0 0 1-7.2-2.5q-2.5-2.4-2.5-7.3v-10.3h-5.4V327h5.4v-7.4h6.5v7.4h8v5.4h-8v9.8q0 4.2 3.6 4.2m13.7-9.8h12a6 6 0 0 0-2.2-3.5 6 6 0 0 0-3.7-1.1 7 7 0 0 0-3.7 1.2 6 6 0 0 0-2.4 3.4m6.1-10.3a12 12 0 0 1 8.8 3.5 13 13 0 0 1 3.8 9.1v2.3h-18.9a7 7 0 0 0 2.3 4.1 6 6 0 0 0 4 1.6 7 7 0 0 0 6-3.3l6 1.3a12 12 0 0 1-4.8 5.7 14 14 0 0 1-7.3 2 12 12 0 0 1-9-3.7 14 14 0 0 1 0-19 12 12 0 0 1 9.1-3.6m23.3 10.3h12a6 6 0 0 0-2.2-3.5 6 6 0 0 0-3.7-1.1 7 7 0 0 0-3.7 1.2 6 6 0 0 0-2.4 3.4m6.1-10.3a12 12 0 0 1 8.8 3.5 13 13 0 0 1 3.8 9.1v2.3h-18.9a7 7 0 0 0 2.3 4.1 6 6 0 0 0 4 1.6 7 7 0 0 0 6-3.3l6 1.3a12 12 0 0 1-4.8 5.7 14 14 0 0 1-7.3 2 12 12 0 0 1-9-3.7 14 14 0 0 1 0-19 12 12 0 0 1 9.1-3.6m33 .4 1.7.2-.4 6.3H271q-8.8 0-8.8 10.6v8h-6.6V327h6.6v4.5a10 10 0 0 1 8.9-4.8"/><path fill="#00d8a2" d="m242.4 152.3 35.3-17v-17.1l-81.5-38.9 81.5-42V20.8L243.6 5l-96.5 48.1L48.9 5 17.2 22.1v14.6l76.7 42-76.7 38.9v17.7l32.9 17 97.4-49.9z"/><path d="M246.9 145.4V138l26.5-13.7v8.2ZM19.4 124 45 138.8v5.9l-25.6-13Zm131.5-31 88.3 43.6v8.8L151 100.2zm-98.2 45 90.6-45v7.2l-90.6 45.9Zm64.1-73.4L25.1 20.3 49 8.3l98 50.9 96.5-50.9 24.6 12.6-89.4 45a4.9 4.9 0 0 0 0 8.7l88.5 44.3-23 11.8L147.1 81l-99 50.9-22.6-13 91.4-45.5a4.9 4.9 0 0 0 0-8.7M20.5 35.3v-8L106 69.9l-8.7 3.5ZM195.8 74l-8.2-4 85.8-43.1v8Zm8.6 4.2 75.4-37.9a2 2 0 0 0 1.3-2v-18a2 2 0 0 0-1.3-2L244.7.3a2 2 0 0 0-2.1 0l-94.5 48a2 2 0 0 1-2 0L49.9.2a2 2 0 0 0-2 0L12.8 18a2 2 0 0 0-1.2 2v18.2a2 2 0 0 0 1.3 2l75.7 37.4-75.4 37.5a2 2 0 0 0-1.2 2l-.4 17.9a2 2 0 0 0 1.3 2l36.2 18.3a2 2 0 0 0 2 0l94.8-47.6a2 2 0 0 1 2 0l93.7 47.7a2 2 0 0 0 2 0l36-17.5a2 2 0 0 0 1.4-2v-18.7a2 2 0 0 0-1.3-2Z"/></svg>