<svg xmlns="http://www.w3.org/2000/svg" viewBox="0 0 111.2 112.4"><defs><linearGradient id="a" x1="766" y1="-643.3" x2="875" y2="-737.1" gradientTransform="matrix(.56254 0 0 -.56797 -433.6 -362.2)" gradientUnits="userSpaceOnUse"><stop offset="0" stop-color="#5a9fd4"/><stop offset="1" stop-color="#306998"/></linearGradient><linearGradient id="b" x1="917.2" y1="-793.9" x2="878.2" y2="-738.8" gradientTransform="matrix(.56254 0 0 -.56797 -433.6 -362.2)" gradientUnits="userSpaceOnUse"><stop offset="0" stop-color="#ffd43b"/><stop offset="1" stop-color="#ffe873"/></linearGradient></defs><g data-name="Layer 2"><g data-name="svg2"><path data-name="path1948" d="M55 0a77 77 0 0 0-13 1C30.8 3.2 28.7 7.4 28.7 15v10.3h26.8v3.4H18.6C10.8 28.7 4 33.3 2 42.3a50 50 0 0 0 0 27.2c1.9 8 6.4 13.6 14.2 13.6h9.3V70.8A17 17 0 0 1 42 54.2h27a13.5 13.5 0 0 0 13.4-13.6V15c0-7.2-6.1-12.7-13.4-14a84 84 0 0 0-14-1M40.3 8.2a5.1 5.1 0 1 1-5 5.1 5 5 0 0 1 5-5" fill="url(#a)"/><path data-name="path1950" d="M85.6 28.7v11.9c0 9.2-7.8 17-16.7 17H42a13.7 13.7 0 0 0-13.4 13.6v25.5c0 7.3 6.3 11.6 13.4 13.6a45 45 0 0 0 26.8 0c6.7-2 13.4-5.8 13.4-13.6V86.5H55.5v-3.4h40.2c7.8 0 10.7-5.4 13.4-13.6a46 46 0 0 0 0-27.2c-2-7.8-5.6-13.6-13.4-13.6Zm-15 64.6a5.1 5.1 0 1 1-5 5.1 5 5 0 0 1 5-5" fill="url(#b)"/></g></g></svg>