<svg xmlns="http://www.w3.org/2000/svg" xmlns:xlink="http://www.w3.org/1999/xlink" viewBox="0 0 111.16136 112.389"><defs><linearGradient id="e5b9516e-a12b-4845-be05-ad277b22a211" x1="766.0105" y1="-643.33466" x2="875.02681" y2="-737.12854" gradientTransform="matrix(0.56254, 0, 0, -0.56797, -433.63938, -362.19582)" gradientUnits="userSpaceOnUse"><stop offset="0" stop-color="#5a9fd4"/><stop offset="1" stop-color="#306998"/></linearGradient><linearGradient id="bbbbbd7b-862a-4c71-a8ce-cba86782d3c6" x1="917.17324" y1="-793.89652" x2="878.24357" y2="-738.81775" gradientTransform="matrix(0.56254, 0, 0, -0.56797, -433.63938, -362.19582)" gradientUnits="userSpaceOnUse"><stop offset="0" stop-color="#ffd43b"/><stop offset="1" stop-color="#ffe873"/></linearGradient></defs><g id="e797fa6c-4526-4ae1-881d-b8ba85c49bc3" data-name="Layer 2"><g id="ad24e122-486f-4b04-a453-9f9f943fb5b4" data-name="svg2"><path id="ab064414-2ef0-45cf-9af2-1f3dbc2ee089" data-name="path1948" d="M54.91879.00092a76.55991,76.55991,0,0,0-12.8125,1.09375C30.76007,3.09917,28.7,7.29477,28.7,15.03217V25.25092h26.8125v3.40625h-36.875c-7.79246,0-14.61576,4.68372-16.75,13.59375-2.46182,10.213-2.571,16.586,0,27.25,1.90592,7.93785,6.45754,13.59375,14.25,13.59375h9.21875v-12.25a17.03893,17.03893,0,0,1,16.75-16.65625H68.88754a13.50851,13.50851,0,0,0,13.40625-13.625V15.03217c0-7.26634-6.13-12.72478-13.40625-13.9375A83.62827,83.62827,0,0,0,54.91879.00092Zm-14.5,8.21875a5.11,5.11,0,1,1-5.03125,5.125A5.08729,5.08729,0,0,1,40.41879,8.21967Z" fill="url(#e5b9516e-a12b-4845-be05-ad277b22a211)"/><path id="bd414a65-dba6-40fe-ae35-b0099165582a" data-name="path1950" d="M85.63754,28.65717V40.56342c0,9.23075-7.8259,17-16.75,17H42.10629A13.67772,13.67772,0,0,0,28.7,71.18842V96.71967c0,7.26634,6.31858,11.54032,13.40625,13.625a44.85912,44.85912,0,0,0,26.78125,0c6.75015-1.9544,13.40625-5.88762,13.40625-13.625V86.50092H55.51254V83.09467H95.7c7.79246,0,10.69625-5.43541,13.40625-13.59375,2.79933-8.39889,2.68022-16.47578,0-27.25C107.1805,34.49347,103.50242,28.65717,95.7,28.65717ZM70.575,93.31342a5.11,5.11,0,1,1-5.03125,5.09375A5.06028,5.06028,0,0,1,70.575,93.31342Z" fill="url(#bbbbbd7b-862a-4c71-a8ce-cba86782d3c6)"/></g></g></svg>