<svg xmlns="http://www.w3.org/2000/svg" xmlns:xlink="http://www.w3.org/1999/xlink" viewBox="0 0 2292.89531 2260.84687"><defs><linearGradient id="f2c46ef9-4e61-45f4-9dfd-ef544d546dba" x1="193.27842" y1="1936.15239" x2="317.71442" y2="2068.53039" gradientTransform="matrix(9.0411, 0, 0, -9.0411, -1399.21527, 19593.32702)" gradientUnits="userSpaceOnUse"><stop offset="0" stop-color="#e01d84"/><stop offset="0.401" stop-color="#df1d85"/><stop offset="0.77" stop-color="#932c87"/><stop offset="1" stop-color="#5d2f88"/></linearGradient><radialGradient id="a40fe0fa-2c9b-449b-a38f-08ea25610e1f" cx="330.16351" cy="2109.19476" r="121.582" gradientTransform="matrix(9.0411, 0.02161, 0.01808, -7.56017, -1436.74087, 16512.69381)" gradientUnits="userSpaceOnUse"><stop offset="0" stop-color="#e01d84"/><stop offset="0.139" stop-color="#de1e85"/><stop offset="0.285" stop-color="#d62085"/><stop offset="0.434" stop-color="#c92386"/><stop offset="0.586" stop-color="#b72786"/><stop offset="0.739" stop-color="#9d2b87"/><stop offset="0.891" stop-color="#7c2e88"/><stop offset="1" stop-color="#5d2f88"/></radialGradient><linearGradient id="a97db92a-aaf1-4acc-9ffc-5e50faa327de" x1="222.98774" y1="2121.52078" x2="277.09699" y2="2121.52078" gradientTransform="matrix(9.0411, 0, 0, -9.0411, -1399.21527, 19593.32702)" gradientUnits="userSpaceOnUse"><stop offset="0" stop-color="#e01d84"/><stop offset="0.238" stop-color="#da1e85"/><stop offset="0.658" stop-color="#c72085"/><stop offset="0.999" stop-color="#b52284"/></linearGradient></defs><g id="b0ff1aff-69bb-4c0b-9c7f-069735e22da2" data-name="Layer 2"><g id="a5331c45-64aa-49f1-9238-e7fe947f5ad5" data-name="Layer 1"><path d="M132.12721,1433.74488C85.11352,1287.27914,71.55187,1132.67633,98.67515,973.553c11.75341-66,29.83561-129.28771,49.726-193.47948,0,0,124.76714-409.56168,546.98636-596.71238,0,0,145.56165-76.84933,364.35616-82.274,0,0-29.83565-28.93151-48.82194-41.58905C907.85325-9.21419,754.1546-31.81694,661.03128,64.92281c-28.02739,28.93151-51.53422,60.57533-77.75342,89.50685-29.83564,32.54793-66,59.67122-107.58906,75.0411C439.52441,243.0324,403.36,240.32008,366.29154,246.64885c-37.97261,6.32878-76.84932,19.89042-107.58906,44.30139-33.45207,27.12329-47.01371,63.28768-50.63013,104.87671-3.61645,32.54793-2.71232,66-4.52055,98.548-4.52048,95.83561-35.26022,122.9589-103.97254,176.30138C70.64774,692.375,46.23679,721.30643,28.1546,752.04617c-54.24658,95.83561,32.548,195.28768,37.0685,292.02738.90411,19.89039-.90411,39.78077-8.137,58.76713-7.23287,20.79455-21.69862,34.3562-33.45206,51.53423-16.274,22.60274-27.12329,49.726-22.60274,77.75348s18.9863,54.24658,32.548,78.65752c26.21918,43.39729,58.76713,82.274,93.12329,119.34244,1.80823,0,3.61643,1.8082,5.42466,3.61639" fill="#e32286"/><path d="M1857.1684,1780.92293c207.94522-90.411,296.548-246.822,296.548-246.822,194.38372-264.90416,128.38354-544.274,128.38354-544.274-123.863,269.42471-236.8767,343.56168-236.8767,343.56168,304.68493-463.80829,1.80819-744.08229,1.80819-744.08229,123.863,264-40.68494,585.8631-40.68494,585.8631-138.3288,291.12328-334.52057,395.09589-334.52057,395.09589,218.79451,40.68494,379.72606-106.685,379.72606-106.685-313.726,339.04113-653.67132,322.76713-653.67132,322.76713C1540.73,1946.37489,1755.004,1932.81325,1755.004,1932.81325c-280.274,66-543.36983-27.12329-759.45212-207.04106A1191.186,1191.186,0,0,1,879.82579,1617.279s-32.54793-34.3562-38.87674-43.39729l-.9041-.90417c-4.52055,167.26029,169.97258,322.76713,169.97258,322.76713C791.223,1805.33373,690.86679,1609.142,690.86679,1609.142s-147.3699-251.34252-40.68494-537.94525S1079.634,723.11448,1079.634,723.11448c266.71235,129.28771,492.73977,169.97265,492.73977,169.97265,476.46576,79.56168,449.34247-153.69865,449.34247-153.69865C2026.23674,538.67617,1723.36,325.30626,1723.36,325.30626,1183.6067-75.21419,695.38754,183.36118,695.38754,183.36118,273.16832,370.51188,148.40119,780.07356,148.40119,780.07356,128.51078,844.26533,110.42858,907.553,98.67516,973.553c-46.10959,268.52061,23.50686,522.57535,174.49316,748.6029C508.2368,2072.95052,889.77105,2194.1013,889.77105,2194.1013c565.06855,191.67136,951.12335-90.411,951.12335-90.411,355.31513-244.10961,426.73973-526.1918,426.73973-526.1918-286.60273,224.21923-410.46573,203.42468-410.46573,203.42468ZM1415.963,461.827a48.82194,48.82194,0,1,1-48.82187,48.82194A48.61889,48.61889,0,0,1,1415.963,461.827Z" fill="url(#f2c46ef9-4e61-45f4-9dfd-ef544d546dba)"/><path d="M2020.8123,738.48453c4.52055-200.71239-298.35619-414.08222-298.35619-414.08222C1182.70267-75.21419,694.48345,183.36118,694.48345,183.36118,272.26423,370.51188,147.4971,780.07356,147.4971,780.07356c-24.411,69.61641-46.1096,176.30138-46.1096,176.30138C75.16833,1090.1832,86.92174,1214.0462,86.92174,1214.0462c10.84933,118.43842,37.0685,198,37.0685,198,27.12329,84.98625,39.78083,111.20552,39.78083,111.20552-.9041-2.71236-5.42465-22.60274-5.42465-22.60274s-37.97261-182.63013-2.71232-358.02735c0,0,30.73974-182.63013,155.50687-323.67129,0,0,202.52054-288.411,579.53425-175.39729,0,0,81.36987,28.93148,109.39725,43.39729,28.02739,13.56165,76.8494,34.3562,76.8494,34.3562,266.71235,129.28771,492.73977,169.97257,492.73977,169.97257C2047.93559,971.74485,2020.8123,738.48453,2020.8123,738.48453ZM1415.963,560.37488a48.82194,48.82194,0,1,1,48.82187-48.82194A48.61889,48.61889,0,0,1,1415.963,560.37488Z" fill="url(#a40fe0fa-2c9b-449b-a38f-08ea25610e1f)"/><path d="M1106.75737,375.03243,798.456,279.19679c-1.80819,0-10.84929-4.52055-27.12329,0,0,0-181.726,46.10958-150.08219,145.56164,0,0,18.98629,62.38358,70.52058,122.9589l339.04113-16.274Z" fill="url(#a97db92a-aaf1-4acc-9ffc-5e50faa327de)"/></g></g></svg>