<svg xmlns="http://www.w3.org/2000/svg" viewBox="0 0 2292.9 2260.8"><defs><linearGradient id="a" x1="193.3" y1="1936.2" x2="317.7" y2="2068.5" gradientTransform="matrix(9.0411 0 0 -9.0411 -1399.2 19593.3)" gradientUnits="userSpaceOnUse"><stop offset="0" stop-color="#e01d84"/><stop offset=".4" stop-color="#df1d85"/><stop offset=".8" stop-color="#932c87"/><stop offset="1" stop-color="#5d2f88"/></linearGradient><linearGradient id="c" x1="223" y1="2121.5" x2="277.1" y2="2121.5" gradientTransform="matrix(9.0411 0 0 -9.0411 -1399.2 19593.3)" gradientUnits="userSpaceOnUse"><stop offset="0" stop-color="#e01d84"/><stop offset=".2" stop-color="#da1e85"/><stop offset=".7" stop-color="#c72085"/><stop offset="1" stop-color="#b52284"/></linearGradient><radialGradient id="b" cx="330.2" cy="2109.2" r="121.6" gradientTransform="matrix(9.0411 .02161 .01808 -7.56017 -1436.7 16512.7)" gradientUnits="userSpaceOnUse"><stop offset="0" stop-color="#e01d84"/><stop offset=".1" stop-color="#de1e85"/><stop offset=".3" stop-color="#d62085"/><stop offset=".4" stop-color="#c92386"/><stop offset=".6" stop-color="#b72786"/><stop offset=".7" stop-color="#9d2b87"/><stop offset=".9" stop-color="#7c2e88"/><stop offset="1" stop-color="#5d2f88"/></radialGradient></defs><g data-name="Layer 2"><g data-name="Layer 1"><path d="M132.1 1433.7a962 962 0 0 1-33.4-460.1c11.7-66 29.8-129.3 49.7-193.5 0 0 124.8-409.6 547-596.7 0 0 145.5-76.9 364.3-82.3 0 0-29.8-29-48.8-41.6C908-9.2 754.2-31.8 661 64.9c-28 29-51.5 60.6-77.7 89.5a280 280 0 0 1-107.6 75c-36.2 13.6-72.3 11-109.4 17.2-38 6.4-76.9 20-107.6 44.4-33.4 27-47 63.2-50.6 104.8-3.6 32.6-2.7 66-4.5 98.6-4.6 95.8-35.3 123-104 176.3A279 279 0 0 0 28.2 752c-54.3 95.9 32.5 195.3 37 292 1 20-.9 39.9-8.1 58.8-7.2 20.8-21.7 34.4-33.5 51.6C7.4 1177-3.4 1204 1 1232s19 54.3 32.6 78.7a743 743 0 0 0 93.1 119.3c1.8 0 3.6 1.8 5.4 3.6" fill="#e32286"/><path d="M1857.2 1781c208-90.5 296.5-246.9 296.5-246.9 194.4-264.9 128.4-544.3 128.4-544.3-123.9 269.5-236.9 343.6-236.9 343.6 304.7-463.8 1.8-744 1.8-744 123.9 264-40.7 585.8-40.7 585.8-138.3 291-334.5 395-334.5 395 218.8 40.8 379.8-106.6 379.8-106.6-313.8 339-653.7 322.7-653.7 322.7 142.8 160 357.1 146.5 357.1 146.5-280.3 66-543.4-27.1-759.4-207a1191 1191 0 0 1-115.8-108.5s-32.5-34.4-38.9-43.4l-.9-1c-4.5 167.3 170 322.8 170 322.8-218.8-90.4-319.1-286.6-319.1-286.6s-147.4-251.3-40.7-537.9 429.4-348 429.4-348C1346.3 852.3 1572.4 893 1572.4 893c476.4 79.5 449.3-153.7 449.3-153.7 4.5-200.7-298.3-414-298.3-414-539.8-400.6-1028-142-1028-142-422.2 187.1-547 596.7-547 596.7-19.9 64.2-38 127.5-49.7 193.5-46.1 268.5 23.5 522.5 174.5 748.6C508.2 2073 889.8 2194 889.8 2194c565 191.7 951-90.4 951-90.4 355.4-244.1 426.8-526.2 426.8-526.2-286.6 224.2-410.4 203.4-410.4 203.4M1416 461.7a48.8 48.8 0 1 1-48.9 48.8 48.6 48.6 0 0 1 48.9-48.8" fill="url(#a)"/><path d="M2020.8 738.5c4.5-200.7-298.3-414.1-298.3-414.1-539.8-399.6-1028-141-1028-141-422.2 187.1-547 596.7-547 596.7-24.4 69.6-46.1 176.3-46.1 176.3C75.2 1090.2 86.9 1214 86.9 1214c10.9 118.5 37 198 37 198 27.2 85 39.9 111.3 39.9 111.3-1-2.8-5.5-22.7-5.5-22.7s-38-182.6-2.7-358c0 0 30.8-182.6 155.5-323.6 0 0 202.6-288.5 579.6-175.4 0 0 81.3 28.9 109.4 43.4 28 13.5 76.8 34.3 76.8 34.3 266.7 129.3 492.8 170 492.8 170 478.2 80.4 451.1-152.8 451.1-152.8M1416 560.4a48.8 48.8 0 1 1 48.8-48.8 48.6 48.6 0 0 1-48.8 48.8" fill="url(#b)"/><path d="m1106.8 375-308.3-95.8c-1.9 0-10.9-4.5-27.2 0 0 0-181.7 46.1-150 145.6 0 0 19 62.3 70.5 123l339-16.4Z" fill="url(#c)"/></g></g></svg>