<svg xmlns="http://www.w3.org/2000/svg" viewBox="0 0 547.5 410.6"><path d="M471.4 236a113 113 0 0 0-49.6 11.5c-5-10-10.2-19-11-25.7-1-7.7-2.3-12.4-1-21.6s6.5-22.3 6.4-23.3-1.2-5.7-12.2-5.8-20.5 2.1-21.6 5a121 121 0 0 0-4.6 16.3c-1.9 10-22 45.7-33.5 64.4a70 70 0 0 1-7.6-18.8c-1-7.7-2.2-12.4-1-21.6s6.6-22.3 6.5-23.3-1.2-5.7-12.2-5.8-20.5 2.1-21.6 5-2.3 9.7-4.6 16.3-29 66.2-36 81.6q-5.5 12-8.9 18.5l-.4.8-3 5.7v.1c-1.5 2.7-3 5.2-3.9 5.2-.6 0-1.7-7.2.2-17 4-20.7 13.5-52.9 13.4-54 0-.6 1.8-6.2-6.2-9-7.8-3-10.6 1.8-11.3 1.8s-1.2 1.7-1.2 1.7 8.7-36.2-16.6-36.2c-15.8 0-37.6 17.3-48.4 33l-36.8 20-17.7 9.7-1.2-1.3c-30.6-32.7-87.2-55.8-84.8-99.7 1-16 6.4-58 108.7-109C234 19 301 30.5 312.5 56c16.6 36.4-35.9 104-122.9 113.8-33.2 3.7-50.6-9-55-13.9-4.6-5-5.3-5.3-7-4.3-2.8 1.5-1 6 0 8.6C130.2 167 141 179 159 185c16 5.2 55 8.1 102-10 52.7-20.5 94-77.2 81.8-124.7-12-48.2-92-64-167.8-37.2-45 16-93.8 41.2-128.9 74C4.4 126-2.2 160 .5 174.1c9.7 50.4 79.2 83.2 107 107.5l-3.8 2.1c-13.9 7-66.9 34.6-80 64-15 33.1 2.3 57 13.8 60.1 35.7 10 72.4-7.9 92.1-37.3s17.3-67.6 8.2-85l-.4-.7 11-6.4c7-4.2 14-8 20-11.3-3.4 9.3-5.9 20.4-7 36.4-1.6 18.8 6.1 43.2 16.2 52.8a18 18 0 0 0 13.2 4.3c11.8 0 17.1-9.8 23-21.4a418 418 0 0 0 13.7-30.7s-8 44.6 14 44.6c8 0 16-10.4 19.6-15.7v.1l.6-1 1.3-2v-.3c3.2-5.6 10.4-18.3 21.1-39.4 13.8-27.2 27.1-61.2 27.1-61.2a174 174 0 0 0 5.3 22.1c2.4 8.1 7.4 17 11.4 25.6q-5 6.9-5.2 7l.1.1q-3.9 5.2-8.5 10.7c-10.9 13-23.9 28-25.7 32.2-2 5.1-1.6 8.8 2.4 11.8 3 2.2 8.1 2.5 13.4 2.2a62 62 0 0 0 20.1-4.6 68 68 0 0 0 17.3-9 39 39 0 0 0 16.6-34.2c-.3-8.2-3-16.4-6.3-24l3-4.3a458 458 0 0 0 30-51.8 174 174 0 0 0 5.2 22.1c2 7 6.1 14.6 9.7 22a95 95 0 0 0-29.2 37.7c-6.3 18.2-1.4 26.4 8 28.3 4.1 1 10.1-1 14.5-3a67 67 0 0 0 18.5-9.5c10.7-7.9 21-18.9 20.4-33.8a64 64 0 0 0-4.6-20c13.5-5.6 31-8.7 53.1-6 47.6 5.5 57 35.2 55.2 47.7s-11.8 19.3-15 21.4-4.5 2.8-4.2 4.3c.4 2.2 2 2.1 4.8 1.7 4-.7 25-10 26-33 1.4-29.5-26.6-61.6-76-61.3M104.2 359.8C88.4 377 66.4 383.5 57 378c-10.2-5.9-6.2-31.3 13.2-49.5a252 252 0 0 1 37.1-27.7l9.8-5.9 1.1-.6 2.4-1.5c7.1 26 .3 49-16.3 67m115-78.2c-5.5 13.4-17 47.7-24 45.8-6-1.6-9.7-27.6-1.2-53.3a121 121 0 0 1 18.7-34.3c8.6-9.6 18.1-12.8 20.4-8.9 3 5.1-10.5 42.3-13.9 50.7m95 45.4c-2.4 1.2-4.6 2-5.6 1.4-.7-.4 1-2 1-2s12-12.8 16.6-18.6q4.2-5.1 9.3-11.9v1.3c0 15.3-14.8 25.6-21.4 29.8m73.1-16.7c-1.7-1.2-1.4-5.2 4.3-17.7a67 67 0 0 1 16.3-21 28 28 0 0 1 1.6 9.2c0 19.3-13.9 26.5-22.2 29.5" fill="#cd6799"/></svg>