<svg xmlns="http://www.w3.org/2000/svg" viewBox="0 0 50.3 62"><defs><mask id="a" x="0" y="0" width="50.3" height="62" maskUnits="userSpaceOnUse"><g data-name="mask-2"><path data-name="path-1" d="M2 57.1 0 6a3 3 0 0 1 3-3.3L47 0a3 3 0 0 1 3.3 3v55.9A3 3 0 0 1 47 62L5 60.1a3 3 0 0 1-3-3" fill="#fff" fill-rule="evenodd"/></g></mask></defs><g data-name="Layer 2"><g data-name="Layer 1"><g data-name="icon"><path data-name="Combined-Shape" d="M50.3 3v55.9A3 3 0 0 1 47 62L5 60.1a3 3 0 0 1-3-3L0 6a3 3 0 0 1 3-3.3L37.4.6l-.3 7V8h.1l.7.1 2.7-2L43 7.7h.3l.4-.4-.2-7.2 3.4-.2a3 3 0 0 1 3.4 3" fill="#ff4785"/><g mask="url(#a)"><path data-name="S" d="M29.4 23.4c0 1.2 8.3.6 9.4-.3Q38.6 10.7 26 10.5c-12.5-.2-12.8 4.5-12.8 11 0 11.6 15.7 11.8 15.7 18a2.5 2.5 0 0 1-2.8 2.9c-2.5 0-3.5-1.3-3.4-5.6 0-.9-9.5-1.2-9.8 0-.7 10.4 5.8 13.4 13.3 13.4 7.3 0 13-3.8 13-10.7 0-12.4-16-12-16-18.2 0-2.4 2-2.8 3-2.8 1.2 0 3.3.2 3.1 4.9" fill="#fff"/></g><g mask="url(#a)"><path data-name="bookmark" d="m37.1 7.6.3-7 6-.4.3 7.2-.4.5-.3-.1-2.4-1.9L38 8h-.7z" fill="#fff"/></g></g></g></g></svg>