<svg xmlns="http://www.w3.org/2000/svg" xmlns:xlink="http://www.w3.org/1999/xlink" viewBox="0 0 50.27904 62"><defs><mask id="a79871bc-3bf5-49b1-8dae-35d17e4d3766" x="0" y="0" width="50.27904" height="62" maskUnits="userSpaceOnUse"><g id="fe363119-06f5-4529-95e6-3b2fd4c871e5" data-name="mask-2"><path id="b7b995ac-8c43-49c8-9399-b095057801bc" data-name="path-1" d="M1.94279,57.131.00226,5.95477a3.12956,3.12956,0,0,1,2.95082-3.228l43.98-2.72055a3.13833,3.13833,0,0,1,3.33983,2.91668q.00613.09709.00613.19444V58.8828A3.13347,3.13347,0,0,1,47.12954,62q-.07068,0-.14131-.00314L4.94876,60.1281A3.13319,3.13319,0,0,1,1.94279,57.131Z" fill="#fff" fill-rule="evenodd"/></g></mask></defs><g id="fd70b3ea-0257-4771-ad4e-4bdadb0513ef" data-name="Layer 2"><g id="a1c87342-15a8-447a-9105-c3fcb52bcd58" data-name="Layer 1"><g id="bdaf9c15-d409-40c4-968c-e8e9dd8dde13" data-name="icon"><path id="b56b517b-ab0e-42a8-9c03-6601aeb912c3" data-name="Combined-Shape" d="M50.27291,2.92286q.00613.09709.00613.19444V58.8828A3.13347,3.13347,0,0,1,47.12954,62q-.07068,0-.14131-.00314L4.94876,60.1281a3.13319,3.13319,0,0,1-3.006-2.99715L.00226,5.95477a3.12956,3.12956,0,0,1,2.95082-3.228L37.427.594l-.29973,7.02679a.46113.46113,0,0,0,.05176.23227l.04335.06807a.47305.47305,0,0,0,.65825.08945h0L40.63826,5.9402l2.32913,1.816a.47309.47309,0,0,0,.30713.09944.467.467,0,0,0,.45314-.48095h0L43.467.22,46.93308.00618A3.13833,3.13833,0,0,1,50.27291,2.92286Z" fill="#ff4785"/><g mask="url(#a79871bc-3bf5-49b1-8dae-35d17e4d3766)"><path id="bf563310-514e-4bef-949a-87228239adaa" data-name="S" d="M29.403,23.36865c0,1.21277,8.25372.63152,9.36171-.22037,0-8.25869-4.47734-12.5985-12.67611-12.5985S13.29619,14.95711,13.29619,21.56812c0,11.51416,15.69976,11.73452,15.69976,18.015a2.49565,2.49565,0,0,1-2.79107,2.80967c-2.50033,0-3.48884-1.26384-3.37254-5.561,0-.93221-9.53615-1.22284-9.82689,0C12.26512,47.24531,18.82018,50.249,26.32117,50.249c7.26841,0,12.96685-3.83451,12.96685-10.77606,0-12.34053-15.93236-12.01-15.93236-18.12516,0-2.47913,1.86072-2.80968,2.96551-2.80968C27.48412,18.53807,29.57742,18.741,29.403,23.36865Z" fill="#fff"/></g><g mask="url(#a79871bc-3bf5-49b1-8dae-35d17e4d3766)"><path id="e885deee-7f27-4bb6-9d4f-a8567dc2f75c" data-name="bookmark" d="M37.12727,7.62079,37.42768.59158,43.46746.21829l.2602,7.15639a.467.467,0,0,1-.45314.481.47309.47309,0,0,1-.30713-.09944l-2.32913-1.816L37.88063,8.01058a.47305.47305,0,0,1-.65825-.08945A.46175.46175,0,0,1,37.12727,7.62079Z" fill="#fff"/></g></g></g></g></svg>