<svg xmlns="http://www.w3.org/2000/svg" viewBox="0 0 100.1 100.1"><path d="M50 97.7A47.6 47.6 0 1 1 97.7 50 47.7 47.7 0 0 1 50 97.7" fill="#85ea2d"/><path d="M50 4.8A45.3 45.3 0 1 1 4.8 50 45.3 45.3 0 0 1 50 4.8M50 0a50 50 0 1 0 50 50A50 50 0 0 0 50 0" fill="#173647"/><path d="M31.5 33.9q-.2 2.5 0 5.2l-.7 5.1a10 10 0 0 1-4.1 5.9c4 2.6 4.5 6.7 4.8 10.9q0 3.4.3 6.7c.1 1.8.8 2.2 2.6 2.3h2.3v5.3c-5.3 1-9.6-.6-10.7-5a31 31 0 0 1-.7-5v-5.4c-.4-5-1-6.6-5.7-6.8V47l1-.2c2.6-.1 3.7-.9 4.2-3.4l.5-4.4a82 82 0 0 1 .6-8.4q1-5.9 7.2-6.1h3.7v5.4l-1.5.2c-3.4-.2-3.5 1-3.8 3.8m6.4 12.6a3.5 3.5 0 0 0-.4 7h.2a3.5 3.5 0 0 0 3.7-3.2V50a3.5 3.5 0 0 0-3.5-3.6m12 0a3.4 3.4 0 0 0-3.4 3.3v.3a3.3 3.3 0 0 0 3.6 3.4 3.3 3.3 0 0 0 3.4-3.5 3.3 3.3 0 0 0-3.5-3.5m12.4 0a3.6 3.6 0 0 0-3.6 3.5 3.5 3.5 0 0 0 3.5 3.5c1.8.3 3.6-1.4 3.7-3.4a3.6 3.6 0 0 0-3.6-3.6m17 .3c-2.3-.1-3.4-.8-4-3a21 21 0 0 1-.6-4.1l-.3-7.8c-.4-6-4.8-8.2-11.2-7.1V30h2.6c1.3 0 2.4.5 2.5 2l.3 4.2q.2 4.3.9 8.4a9 9 0 0 0 3.9 5.4c-3.4 2.2-4.4 5.5-4.6 9.2l-.3 7.6c0 2.3-.9 3-3.2 3.1l-2 .1v5.5H67q6-.4 7-6l.6-6.2q0-3 .3-5.8.3-4.3 4.7-4.4l.8-.2v-6z" fill="#173647"/></svg>