<svg xmlns="http://www.w3.org/2000/svg" viewBox="0 0 100.055 100.054"><g ><g  ><path d="M50.027,97.669A47.642,47.642,0,1,1,97.67,50.028,47.696,47.696,0,0,1,50.027,97.669Z" style="fill:#85ea2d"/><path d="M50.027,4.769A45.258,45.258,0,1,1,4.769,50.027,45.2571,45.2571,0,0,1,50.027,4.769m0-4.769a50.027,50.027,0,1,0,50.028,50.027A50.0836,50.0836,0,0,0,50.027,0Z" style="fill:#173647"/><path d="M31.501,33.854c-.154,1.712.057,3.482-.057,5.213a42.6375,42.6375,0,0,1-.693,5.156,9.5324,9.5324,0,0,1-4.097,5.829c4.079,2.655,4.54,6.771,4.809,10.946.135,2.251.077,4.521.308,6.752.173,1.731.846,2.174,2.636,2.231.731.019,1.48,0,2.328,0v5.348c-5.29.904-9.657-.596-10.735-5.078a30.76,30.76,0,0,1-.654-5.002c-.116-1.789.076-3.578-.058-5.367-.385-4.906-1.02-6.56-5.713-6.791V46.993a9.2683,9.2683,0,0,1,1.019-.173c2.578-.135,3.674-.924,4.232-3.463a29.3035,29.3035,0,0,0,.481-4.328,82.3556,82.3556,0,0,1,.596-8.406c.673-3.982,3.136-5.906,7.234-6.137,1.154-.058,2.328,0,3.655,0V29.95c-.558.039-1.039.115-1.539.115C31.925,29.949,31.751,31.084,31.501,33.854Zm6.406,12.658H37.83a3.5148,3.5148,0,0,0-.347,7.021h.231a3.4619,3.4619,0,0,0,3.655-3.251V50.09A3.5217,3.5217,0,0,0,37.907,46.512Zm12.062,0a3.3721,3.3721,0,0,0-3.482,3.251,1.79,1.79,0,0,0,.02.327,3.2986,3.2986,0,0,0,3.578,3.444,3.2644,3.2644,0,0,0,3.444-3.559A3.3093,3.3093,0,0,0,49.969,46.512Zm12.351,0a3.5926,3.5926,0,0,0-3.655,3.482,3.53,3.53,0,0,0,3.539,3.539h.039c1.77.308,3.559-1.404,3.675-3.462A3.5725,3.5725,0,0,0,62.32,46.512Zm16.948.288c-2.232-.096-3.348-.846-3.905-2.963a21.4469,21.4469,0,0,1-.635-4.136c-.154-2.578-.135-5.175-.308-7.753-.404-6.117-4.828-8.252-11.254-7.195v5.31c1.019,0,1.808,0,2.597.019,1.366.019,2.405.539,2.539,2.059.135,1.385.135,2.789.27,4.194.27,2.79.423,5.617.904,8.368A8.7173,8.7173,0,0,0,73.4,50.051c-3.404,2.289-4.405,5.559-4.578,9.234-.096,2.52-.154,5.059-.288,7.599-.116,2.308-.923,3.058-3.251,3.116-.654.019-1.289.077-2.02.116V75.56c1.366,0,2.616.077,3.866,0,3.886-.231,6.233-2.116,7.003-5.887a49.0824,49.0824,0,0,0,.577-6.271c.134-1.924.116-3.867.308-5.771.288-2.982,1.654-4.213,4.636-4.405a4.0369,4.0369,0,0,0,.828-.192V46.935C79.98,46.877,79.633,46.82,79.268,46.8Z" style="fill:#173647"/></g></g></svg>
