<svg xmlns="http://www.w3.org/2000/svg" xmlns:xlink="http://www.w3.org/1999/xlink" viewBox="0 0 62.30004 62.40004"><defs><linearGradient id="fdc91eca-6c9a-4d29-a491-584af30618b3" x1="31.15002" y1="-1796.4" x2="31.15002" y2="-1733.99996" gradientTransform="matrix(1, 0, 0, -1, 0, -1733.99996)" gradientUnits="userSpaceOnUse"><stop offset="0" stop-color="#0050d3"/><stop offset="1" stop-color="#0082ff"/></linearGradient></defs><g id="a83184e6-a47d-4b06-9efc-8b5c4f06126b" data-name="Layer 2"><g id="a32af8d6-51c5-40ae-bdd7-939fc128ae52" data-name="Layer 1"><path d="M54.9,0H7.4A7.3833,7.3833,0,0,0,0,7.36658Q0,7.38331,0,7.4V55a7.3833,7.3833,0,0,0,7.36656,7.4q.01673,0,.03344,0H54.9a7.3833,7.3833,0,0,0,7.4-7.36656q0-.01673,0-.03344V7.4A7.3833,7.3833,0,0,0,54.93346,0Q54.91674,0,54.9,0ZM26.8,44.9a2.4757,2.4757,0,0,1-2.45116,2.5q-.02442.00024-.04884,0H13.9a2.47569,2.47569,0,0,1-2.5-2.45116q-.00024-.02442,0-.04884h0V14a2.47569,2.47569,0,0,1,2.45116-2.5q.02442-.00024.04884,0H24.3a2.4757,2.4757,0,0,1,2.5,2.45116q.00024.02442,0,.04884Zm24-14.2a2.45571,2.45571,0,0,1-2.4,2.5H37.9a2.4757,2.4757,0,0,1-2.5-2.45116q-.00024-.02442,0-.04884h0V14a2.4757,2.4757,0,0,1,2.45116-2.5q.02442-.00024.04884,0H48.3a2.4757,2.4757,0,0,1,2.5,2.45116q.00024.02442,0,.04884Z" fill-rule="evenodd" fill="url(#fdc91eca-6c9a-4d29-a491-584af30618b3)"/></g></g></svg>