<svg xmlns="http://www.w3.org/2000/svg" viewBox="0 0 62.3 62.4"><defs><linearGradient id="a" x1="31.2" y1="-1796.4" x2="31.2" y2="-1734" gradientTransform="matrix(1 0 0 -1 0 -1734)" gradientUnits="userSpaceOnUse"><stop offset="0" stop-color="#0050d3"/><stop offset="1" stop-color="#0082ff"/></linearGradient></defs><g data-name="Layer 2"><path d="M54.9 0H7.4A7.4 7.4 0 0 0 0 7.4V55a7.4 7.4 0 0 0 7.4 7.4h47.5a7.4 7.4 0 0 0 7.4-7.4V7.4A7.4 7.4 0 0 0 54.9 0M26.8 44.9a2.5 2.5 0 0 1-2.5 2.5H13.9a2.5 2.5 0 0 1-2.5-2.5V14a2.5 2.5 0 0 1 2.5-2.5h10.4a2.5 2.5 0 0 1 2.5 2.5Zm24-14.2a2.5 2.5 0 0 1-2.4 2.5H37.9a2.5 2.5 0 0 1-2.5-2.5V14a2.5 2.5 0 0 1 2.5-2.5h10.4a2.5 2.5 0 0 1 2.5 2.5Z" fill-rule="evenodd" fill="url(#a)" data-name="Layer 1"/></g></svg>