<svg xmlns="http://www.w3.org/2000/svg" xmlns:xlink="http://www.w3.org/1999/xlink" viewBox="0 0 62.3 62.4"><defs><linearGradient id="linear-gradient" x1="31.15" y1="1860.4" x2="31.15" y2="1798" gradientTransform="translate(0 -1798)" gradientUnits="userSpaceOnUse"><stop offset="0" stop-color="#0050d3"/><stop offset="1" stop-color="#0082ff"/></linearGradient></defs><g id="Layer_2" data-name="Layer 2"><g id="Layer_1-2" data-name="Layer 1"><path d="M54.9,0H7.4A7.3833,7.3833,0,0,0,0,7.4V55a7.3833,7.3833,0,0,0,7.4,7.4H54.9A7.3833,7.3833,0,0,0,62.3,55V7.4A7.3833,7.3833,0,0,0,54.9,0ZM26.8,44.9a2.4757,2.4757,0,0,1-2.5,2.5H13.9a2.4757,2.4757,0,0,1-2.5-2.5h0V14a2.4757,2.4757,0,0,1,2.5-2.5H24.3A2.4757,2.4757,0,0,1,26.8,14Zm24-14.2a2.4557,2.4557,0,0,1-2.4,2.5H37.9a2.4757,2.4757,0,0,1-2.5-2.5h0V14a2.4757,2.4757,0,0,1,2.5-2.5H48.3A2.4757,2.4757,0,0,1,50.8,14Z" style="fill-rule:evenodd;fill:url(#linear-gradient)"/></g></g></svg>