<svg fill="none" height="24" viewBox="0 0 24 24" width="24" xmlns="http://www.w3.org/2000/svg"><g fill="hsl(90deg 20% 98%)"><path d="m15.5 11.25h-7c-.41 0-.75-.34-.75-.75s.34-.75.75-.75h7c.41 0 .75.34.75.75s-.34.75-.75.75z"/><path d="m16 22.3199c-.34 0-.68-.0999-.97-.2899l-4.26-2.8401h-3.77c-3.44 0-5.75-2.31-5.75-5.75v-5.99996c0-3.44 2.31-5.75 5.75-5.75h10c3.44 0 5.75 2.31 5.75 5.75v5.99996c0 3.18-1.98 5.4001-5 5.7101v1.4199c0 .65-.35 1.24-.92 1.54-.26.14-.55.21-.83.21zm-9-19.13997c-2.58 0-4.25 1.67-4.25 4.25v5.99997c0 2.58 1.67 4.25 4.25 4.25h4c.15 0 .29.04.42.13l4.45 2.9601c.11.07.21.04.26.01s.13-.0901.13-.2201v-2.13c0-.41.34-.75.75-.75 2.58 0 4.25-1.67 4.25-4.25v-5.99997c0-2.58-1.67-4.25-4.25-4.25z"/></g></svg>
