<svg version="1.1" id="Layer_1" xmlns="http://www.w3.org/2000/svg" xmlns:xlink="http://www.w3.org/1999/xlink" x="0px" y="0px"
	 width="66" height="43" viewBox="0 0 66 43" xml:space="preserve">
<g>
	<path d="M65.8,3.9L62,0.1c-0.2-0.2-0.5-0.2-0.7,0l-21,20.6c-0.4,0.4-0.4,1,0,1.4c0,0,0,0,0,0l21,20.6
		c0.2,0.2,0.5,0.2,0.7,0l3.8-3.8c0.2-0.2,0.2-0.5,0-0.7c0,0,0,0,0,0L49,21.9c-0.2-0.2-0.2-0.5,0-0.7c0,0,0,0,0,0L65.8,4.6
		C66,4.4,66,4.1,65.8,3.9C65.8,3.9,65.8,3.9,65.8,3.9z"/>
	<path d="M45.8,3.9L42,0.1c-0.2-0.2-0.5-0.2-0.7,0l-21,20.6c-0.4,0.4-0.4,1,0,1.4c0,0,0,0,0,0l21,20.6
		c0.2,0.2,0.5,0.2,0.7,0l3.8-3.8c0.2-0.2,0.2-0.5,0-0.7c0,0,0,0,0,0L29,21.9c-0.2-0.2-0.2-0.5,0-0.7c0,0,0,0,0,0L45.8,4.6
		C46,4.4,46,4.1,45.8,3.9C45.8,3.9,45.8,3.9,45.8,3.9z"/>
	<path d="M25.8,3.9L22,0.1c-0.2-0.2-0.5-0.2-0.7,0l-21,20.6c-0.4,0.4-0.4,1,0,1.4c0,0,0,0,0,0l21,20.6
		c0.2,0.2,0.5,0.2,0.7,0l3.8-3.8c0.2-0.2,0.2-0.5,0-0.7c0,0,0,0,0,0L9,21.9c-0.2-0.2-0.2-0.5,0-0.7c0,0,0,0,0,0L25.8,4.6
		C26,4.4,26,4.1,25.8,3.9C25.8,3.9,25.8,3.9,25.8,3.9z"/>
</g>
</svg>
