<svg fill="none" height="24" viewBox="0 0 24 24" width="24" xmlns="http://www.w3.org/2000/svg"><path d="m5.56971 22.7001c-2.34 0-4.32-1.9801-4.32-4.3201v-6.16c-.05-2.91995 1.03-5.66995 3.05-7.72995 2.02-2.05 4.73-3.19 7.64999-3.19 5.96 0 10.8 4.85 10.8 10.79995v6.16c0 2.38-1.94 4.32-4.32 4.32-2.34 0-4.32-1.98-4.32-4.32v-2.81c0-1.45 1.14-2.59 2.59-2.59s2.59 1.14 2.59 2.59v3.03c0 .41-.34.75-.75.75s-.75-.34-.75-.75v-3.03c0-.68-.55-1.09-1.09-1.09-.68 0-1.09.55-1.09 1.09v2.81c0 1.5301 1.29 2.82 2.82 2.82s2.82-1.2899 2.82-2.82v-6.16c0-5.12995-4.17-9.29995-9.3-9.29995-2.50999 0-4.83999.97-6.57999 2.74s-2.67 4.14-2.62 6.65995v6.18c0 1.53 1.29 2.8201 2.82 2.8201s2.82-1.2901 2.82-2.8201v-2.81c0-.68-.55-1.09-1.09-1.09-.68 0-1.09.55-1.09 1.09v2.92c0 .41-.34.75-.75.75s-.75-.34-.75-.75v-2.92c0-1.45 1.14-2.59 2.59-2.59s2.59 1.14 2.59 2.59v2.81c0 2.34-1.98 4.3201-4.32 4.3201z" fill="hsl(90deg 20% 98%)"/></svg>
