<svg fill="none" height="24" viewBox="0 0 24 24" width="24" xmlns="http://www.w3.org/2000/svg"><g fill="hsl(90deg 20% 98%)"><path d="m17.1 1.25h-4.2c-3.91 0-5.65 1.74-5.65 5.65v1.1c0 .41.34.75.75.75h3.1c3.1 0 4.15 1.05 4.15 4.15v3.1c0 .41.34.75.75.75h1.1c3.91 0 5.65-1.74 5.65-5.65v-4.2c0-3.91-1.74-5.65-5.65-5.65zm-8.35 6v-.35c0-3.1 1.05-4.15 4.15-4.15h4.2c3.1 0 4.15 1.05 4.15 4.15v4.2c0 3.1-1.05 4.15-4.15 4.15h-.35v-2.35c0-3.91-1.74-5.65-5.65-5.65z"/><path d="m11.1 7.25h-4.2c-3.91 0-5.65 1.74-5.65 5.65v4.2c0 3.91 1.74 5.65 5.65 5.65h4.2c3.91 0 5.65-1.74 5.65-5.65v-4.2c0-3.91-1.74-5.65-5.65-5.65zm-4.2 14c-3.1 0-4.15-1.05-4.15-4.15v-4.2c0-3.1 1.05-4.15 4.15-4.15h4.2c3.1 0 4.15 1.05 4.15 4.15v4.2c0 3.1-1.05 4.15-4.15 4.15z"/><path d="m8.02953 17.7c-.19 0-.38-.07-.53-.22l-1.95-1.95c-.29-.29-.29-.77 0-1.06s.77-.29 1.06 0l1.42 1.42 3.35997-3.36c.29-.29.77-.29 1.06 0s.29.77 0 1.06l-3.89997 3.89c-.14.14-.33.22-.52.22z"/></g></svg>
