<svg fill="none" height="24" viewBox="0 0 24 24" width="24" xmlns="http://www.w3.org/2000/svg"><g fill="hsl(90deg 20% 98%)"><path d="m12.0103 17c-.85 0-1.71-.22-2.37999-.65l-6.02-3.93c-1.12-.73-1.79-1.96-1.79-3.29997 0-1.34.67-2.57 1.79-3.3l6.03-3.92c1.33999-.87 3.42999-.87 4.75999.01l5.99 3.93c1.11.73 1.78 1.96 1.78 3.29 0 1.32997-.67 2.55997-1.78 3.28997l-5.99 3.93c-.67.44-1.53.65-2.39.65zm0-14.24997c-.57 0-1.14.13-1.55.41l-6.01999 3.92c-.7.46-1.11 1.2-1.11 2.04s.4 1.57997 1.11 2.03997l6.01999 3.93c.83.54 2.29.54 3.12 0l5.99-3.93c.7-.46 1.1-1.19997 1.1-2.03997s-.4-1.58-1.1-2.04l-5.99-3.93c-.42-.26-.99-.4-1.57-.4z"/><path d="m11.9992 22.7501c-.44 0-.89-.06-1.25-.18l-3.19-1.06c-1.51-.5-2.7-2.15-2.69-3.74l.01-4.69c0-.41.34-.75.75-.75s.75.34.75.75l-.01 4.69c0 .94.78 2.02 1.67 2.32l3.19 1.06c.4.13 1.14.13 1.54 0l3.19-1.06c.89-.3 1.67-1.38 1.67-2.31v-4.64c0-.41.34-.75.75-.75s.75.34.75.75v4.64c0 1.59-1.18 3.23-2.69 3.74l-3.19 1.06c-.36.11-.81.17-1.25.17z"/><path d="m21.4004 15.75c-.41 0-.75-.34-.75-.75v-6c0-.41.34-.75.75-.75s.75.34.75.75v6c0 .41-.34.75-.75.75z"/></g></svg>
