<?xml version="1.0" standalone="no"?>
<!DOCTYPE svg PUBLIC "-//W3C//DTD SVG 20010904//EN"
 "http://www.w3.org/TR/2001/REC-SVG-20010904/DTD/svg10.dtd">
<svg version="1.0" xmlns="http://www.w3.org/2000/svg"
 width="700.000000pt" height="700.000000pt" viewBox="0 0 700.000000 700.000000"
 preserveAspectRatio="xMidYMid meet">
<metadata>
Created by potrace 1.14, written by Peter Selinger 2001-2017
</metadata>
<g transform="translate(0.000000,700.000000) scale(0.100000,-0.100000)"
fill="#000000" stroke="none">
<path d="M1805 6390 c-198 -40 -348 -190 -391 -388 -11 -56 -14 -335 -14
-1728 0 -1081 4 -1698 10 -1765 41 -402 200 -790 458 -1117 83 -105 274 -290
387 -374 273 -204 572 -331 920 -394 139 -25 507 -26 650 -1 231 41 429 105
620 202 734 371 1185 1137 1152 1955 -32 780 -481 1467 -1180 1806 -168 81
-263 114 -354 121 -298 24 -563 -221 -563 -522 0 -159 80 -321 204 -415 29
-22 106 -63 172 -91 270 -116 442 -274 559 -514 64 -129 90 -219 107 -361 22
-191 -13 -378 -107 -569 -251 -516 -885 -730 -1399 -474 -309 154 -520 442
-571 779 -13 80 -15 355 -15 1745 0 1809 3 1721 -61 1846 -98 195 -349 306
-584 259z"/>
</g>
</svg>
